<?xml version="1.0" encoding="utf-8" standalone="no"?>
<!DOCTYPE svg PUBLIC "-//W3C//DTD SVG 1.1//EN"
  "http://www.w3.org/Graphics/SVG/1.1/DTD/svg11.dtd">
<svg xmlns:xlink="http://www.w3.org/1999/xlink" width="1144.774062pt" height="447.284063pt" viewBox="0 0 1144.774062 447.284063" xmlns="http://www.w3.org/2000/svg" version="1.1">
 <metadata>
  <rdf:RDF xmlns:dc="http://purl.org/dc/elements/1.1/" xmlns:cc="http://creativecommons.org/ns#" xmlns:rdf="http://www.w3.org/1999/02/22-rdf-syntax-ns#">
   <cc:Work>
    <dc:type rdf:resource="http://purl.org/dc/dcmitype/StillImage"/>
    <dc:date>2026-04-14T21:10:26.782228</dc:date>
    <dc:format>image/svg+xml</dc:format>
    <dc:creator>
     <cc:Agent>
      <dc:title>Matplotlib v3.5.1, https://matplotlib.org/</dc:title>
     </cc:Agent>
    </dc:creator>
   </cc:Work>
  </rdf:RDF>
 </metadata>
 <defs>
  <style type="text/css">*{stroke-linejoin: round; stroke-linecap: butt}</style>
 </defs>
 <g id="figure_1">
  <g id="patch_1">
   <path d="M 0 447.284063 
L 1144.774062 447.284063 
L 1144.774062 0 
L 0 0 
z
" style="fill: #ffffff"/>
  </g>
  <g id="axes_1">
   <g id="patch_2">
    <path d="M 57.474063 408.76 
L 563.786562 408.76 
L 563.786562 74.16 
L 57.474063 74.16 
z
" style="fill: #ffffff"/>
   </g>
   <g id="matplotlib.axis_1">
    <g id="xtick_1">
     <g id="line2d_1">
      <defs>
       <path id="maca9c2be71" d="M 0 0 
L 0 3.5 
" style="stroke: #000000; stroke-width: 0.8"/>
      </defs>
      <g>
       <use xlink:href="#maca9c2be71" x="80.488267" y="408.76" style="stroke: #000000; stroke-width: 0.8"/>
      </g>
     </g>
     <g id="text_1">
      <!-- 0.0 -->
      <g transform="translate(72.536705 423.358438)scale(0.1 -0.1)">
       <defs>
        <path id="DejaVuSans-30" d="M 2034 4250 
Q 1547 4250 1301 3770 
Q 1056 3291 1056 2328 
Q 1056 1369 1301 889 
Q 1547 409 2034 409 
Q 2525 409 2770 889 
Q 3016 1369 3016 2328 
Q 3016 3291 2770 3770 
Q 2525 4250 2034 4250 
z
M 2034 4750 
Q 2819 4750 3233 4129 
Q 3647 3509 3647 2328 
Q 3647 1150 3233 529 
Q 2819 -91 2034 -91 
Q 1250 -91 836 529 
Q 422 1150 422 2328 
Q 422 3509 836 4129 
Q 1250 4750 2034 4750 
z
" transform="scale(0.015625)"/>
        <path id="DejaVuSans-2e" d="M 684 794 
L 1344 794 
L 1344 0 
L 684 0 
L 684 794 
z
" transform="scale(0.015625)"/>
       </defs>
       <use xlink:href="#DejaVuSans-30"/>
       <use xlink:href="#DejaVuSans-2e" x="63.623047"/>
       <use xlink:href="#DejaVuSans-30" x="95.410156"/>
      </g>
     </g>
    </g>
    <g id="xtick_2">
     <g id="line2d_2">
      <g>
       <use xlink:href="#maca9c2be71" x="157.202282" y="408.76" style="stroke: #000000; stroke-width: 0.8"/>
      </g>
     </g>
     <g id="text_2">
      <!-- 0.5 -->
      <g transform="translate(149.25072 423.358438)scale(0.1 -0.1)">
       <defs>
        <path id="DejaVuSans-35" d="M 691 4666 
L 3169 4666 
L 3169 4134 
L 1269 4134 
L 1269 2991 
Q 1406 3038 1543 3061 
Q 1681 3084 1819 3084 
Q 2600 3084 3056 2656 
Q 3513 2228 3513 1497 
Q 3513 744 3044 326 
Q 2575 -91 1722 -91 
Q 1428 -91 1123 -41 
Q 819 9 494 109 
L 494 744 
Q 775 591 1075 516 
Q 1375 441 1709 441 
Q 2250 441 2565 725 
Q 2881 1009 2881 1497 
Q 2881 1984 2565 2268 
Q 2250 2553 1709 2553 
Q 1456 2553 1204 2497 
Q 953 2441 691 2322 
L 691 4666 
z
" transform="scale(0.015625)"/>
       </defs>
       <use xlink:href="#DejaVuSans-30"/>
       <use xlink:href="#DejaVuSans-2e" x="63.623047"/>
       <use xlink:href="#DejaVuSans-35" x="95.410156"/>
      </g>
     </g>
    </g>
    <g id="xtick_3">
     <g id="line2d_3">
      <g>
       <use xlink:href="#maca9c2be71" x="233.916297" y="408.76" style="stroke: #000000; stroke-width: 0.8"/>
      </g>
     </g>
     <g id="text_3">
      <!-- 1.0 -->
      <g transform="translate(225.964735 423.358438)scale(0.1 -0.1)">
       <defs>
        <path id="DejaVuSans-31" d="M 794 531 
L 1825 531 
L 1825 4091 
L 703 3866 
L 703 4441 
L 1819 4666 
L 2450 4666 
L 2450 531 
L 3481 531 
L 3481 0 
L 794 0 
L 794 531 
z
" transform="scale(0.015625)"/>
       </defs>
       <use xlink:href="#DejaVuSans-31"/>
       <use xlink:href="#DejaVuSans-2e" x="63.623047"/>
       <use xlink:href="#DejaVuSans-30" x="95.410156"/>
      </g>
     </g>
    </g>
    <g id="xtick_4">
     <g id="line2d_4">
      <g>
       <use xlink:href="#maca9c2be71" x="310.630313" y="408.76" style="stroke: #000000; stroke-width: 0.8"/>
      </g>
     </g>
     <g id="text_4">
      <!-- 1.5 -->
      <g transform="translate(302.67875 423.358438)scale(0.1 -0.1)">
       <use xlink:href="#DejaVuSans-31"/>
       <use xlink:href="#DejaVuSans-2e" x="63.623047"/>
       <use xlink:href="#DejaVuSans-35" x="95.410156"/>
      </g>
     </g>
    </g>
    <g id="xtick_5">
     <g id="line2d_5">
      <g>
       <use xlink:href="#maca9c2be71" x="387.344328" y="408.76" style="stroke: #000000; stroke-width: 0.8"/>
      </g>
     </g>
     <g id="text_5">
      <!-- 2.0 -->
      <g transform="translate(379.392765 423.358438)scale(0.1 -0.1)">
       <defs>
        <path id="DejaVuSans-32" d="M 1228 531 
L 3431 531 
L 3431 0 
L 469 0 
L 469 531 
Q 828 903 1448 1529 
Q 2069 2156 2228 2338 
Q 2531 2678 2651 2914 
Q 2772 3150 2772 3378 
Q 2772 3750 2511 3984 
Q 2250 4219 1831 4219 
Q 1534 4219 1204 4116 
Q 875 4013 500 3803 
L 500 4441 
Q 881 4594 1212 4672 
Q 1544 4750 1819 4750 
Q 2544 4750 2975 4387 
Q 3406 4025 3406 3419 
Q 3406 3131 3298 2873 
Q 3191 2616 2906 2266 
Q 2828 2175 2409 1742 
Q 1991 1309 1228 531 
z
" transform="scale(0.015625)"/>
       </defs>
       <use xlink:href="#DejaVuSans-32"/>
       <use xlink:href="#DejaVuSans-2e" x="63.623047"/>
       <use xlink:href="#DejaVuSans-30" x="95.410156"/>
      </g>
     </g>
    </g>
    <g id="xtick_6">
     <g id="line2d_6">
      <g>
       <use xlink:href="#maca9c2be71" x="464.058343" y="408.76" style="stroke: #000000; stroke-width: 0.8"/>
      </g>
     </g>
     <g id="text_6">
      <!-- 2.5 -->
      <g transform="translate(456.10678 423.358438)scale(0.1 -0.1)">
       <use xlink:href="#DejaVuSans-32"/>
       <use xlink:href="#DejaVuSans-2e" x="63.623047"/>
       <use xlink:href="#DejaVuSans-35" x="95.410156"/>
      </g>
     </g>
    </g>
    <g id="xtick_7">
     <g id="line2d_7">
      <g>
       <use xlink:href="#maca9c2be71" x="540.772358" y="408.76" style="stroke: #000000; stroke-width: 0.8"/>
      </g>
     </g>
     <g id="text_7">
      <!-- 3.0 -->
      <g transform="translate(532.820795 423.358438)scale(0.1 -0.1)">
       <defs>
        <path id="DejaVuSans-33" d="M 2597 2516 
Q 3050 2419 3304 2112 
Q 3559 1806 3559 1356 
Q 3559 666 3084 287 
Q 2609 -91 1734 -91 
Q 1441 -91 1130 -33 
Q 819 25 488 141 
L 488 750 
Q 750 597 1062 519 
Q 1375 441 1716 441 
Q 2309 441 2620 675 
Q 2931 909 2931 1356 
Q 2931 1769 2642 2001 
Q 2353 2234 1838 2234 
L 1294 2234 
L 1294 2753 
L 1863 2753 
Q 2328 2753 2575 2939 
Q 2822 3125 2822 3475 
Q 2822 3834 2567 4026 
Q 2313 4219 1838 4219 
Q 1578 4219 1281 4162 
Q 984 4106 628 3988 
L 628 4550 
Q 988 4650 1302 4700 
Q 1616 4750 1894 4750 
Q 2613 4750 3031 4423 
Q 3450 4097 3450 3541 
Q 3450 3153 3228 2886 
Q 3006 2619 2597 2516 
z
" transform="scale(0.015625)"/>
       </defs>
       <use xlink:href="#DejaVuSans-33"/>
       <use xlink:href="#DejaVuSans-2e" x="63.623047"/>
       <use xlink:href="#DejaVuSans-30" x="95.410156"/>
      </g>
     </g>
    </g>
    <g id="text_8">
     <!-- Reward amount (OneKeyCash) -->
     <g transform="translate(226.406406 437.796406)scale(0.11 -0.11)">
      <defs>
       <path id="DejaVuSans-52" d="M 2841 2188 
Q 3044 2119 3236 1894 
Q 3428 1669 3622 1275 
L 4263 0 
L 3584 0 
L 2988 1197 
Q 2756 1666 2539 1819 
Q 2322 1972 1947 1972 
L 1259 1972 
L 1259 0 
L 628 0 
L 628 4666 
L 2053 4666 
Q 2853 4666 3247 4331 
Q 3641 3997 3641 3322 
Q 3641 2881 3436 2590 
Q 3231 2300 2841 2188 
z
M 1259 4147 
L 1259 2491 
L 2053 2491 
Q 2509 2491 2742 2702 
Q 2975 2913 2975 3322 
Q 2975 3731 2742 3939 
Q 2509 4147 2053 4147 
L 1259 4147 
z
" transform="scale(0.015625)"/>
       <path id="DejaVuSans-65" d="M 3597 1894 
L 3597 1613 
L 953 1613 
Q 991 1019 1311 708 
Q 1631 397 2203 397 
Q 2534 397 2845 478 
Q 3156 559 3463 722 
L 3463 178 
Q 3153 47 2828 -22 
Q 2503 -91 2169 -91 
Q 1331 -91 842 396 
Q 353 884 353 1716 
Q 353 2575 817 3079 
Q 1281 3584 2069 3584 
Q 2775 3584 3186 3129 
Q 3597 2675 3597 1894 
z
M 3022 2063 
Q 3016 2534 2758 2815 
Q 2500 3097 2075 3097 
Q 1594 3097 1305 2825 
Q 1016 2553 972 2059 
L 3022 2063 
z
" transform="scale(0.015625)"/>
       <path id="DejaVuSans-77" d="M 269 3500 
L 844 3500 
L 1563 769 
L 2278 3500 
L 2956 3500 
L 3675 769 
L 4391 3500 
L 4966 3500 
L 4050 0 
L 3372 0 
L 2619 2869 
L 1863 0 
L 1184 0 
L 269 3500 
z
" transform="scale(0.015625)"/>
       <path id="DejaVuSans-61" d="M 2194 1759 
Q 1497 1759 1228 1600 
Q 959 1441 959 1056 
Q 959 750 1161 570 
Q 1363 391 1709 391 
Q 2188 391 2477 730 
Q 2766 1069 2766 1631 
L 2766 1759 
L 2194 1759 
z
M 3341 1997 
L 3341 0 
L 2766 0 
L 2766 531 
Q 2569 213 2275 61 
Q 1981 -91 1556 -91 
Q 1019 -91 701 211 
Q 384 513 384 1019 
Q 384 1609 779 1909 
Q 1175 2209 1959 2209 
L 2766 2209 
L 2766 2266 
Q 2766 2663 2505 2880 
Q 2244 3097 1772 3097 
Q 1472 3097 1187 3025 
Q 903 2953 641 2809 
L 641 3341 
Q 956 3463 1253 3523 
Q 1550 3584 1831 3584 
Q 2591 3584 2966 3190 
Q 3341 2797 3341 1997 
z
" transform="scale(0.015625)"/>
       <path id="DejaVuSans-72" d="M 2631 2963 
Q 2534 3019 2420 3045 
Q 2306 3072 2169 3072 
Q 1681 3072 1420 2755 
Q 1159 2438 1159 1844 
L 1159 0 
L 581 0 
L 581 3500 
L 1159 3500 
L 1159 2956 
Q 1341 3275 1631 3429 
Q 1922 3584 2338 3584 
Q 2397 3584 2469 3576 
Q 2541 3569 2628 3553 
L 2631 2963 
z
" transform="scale(0.015625)"/>
       <path id="DejaVuSans-64" d="M 2906 2969 
L 2906 4863 
L 3481 4863 
L 3481 0 
L 2906 0 
L 2906 525 
Q 2725 213 2448 61 
Q 2172 -91 1784 -91 
Q 1150 -91 751 415 
Q 353 922 353 1747 
Q 353 2572 751 3078 
Q 1150 3584 1784 3584 
Q 2172 3584 2448 3432 
Q 2725 3281 2906 2969 
z
M 947 1747 
Q 947 1113 1208 752 
Q 1469 391 1925 391 
Q 2381 391 2643 752 
Q 2906 1113 2906 1747 
Q 2906 2381 2643 2742 
Q 2381 3103 1925 3103 
Q 1469 3103 1208 2742 
Q 947 2381 947 1747 
z
" transform="scale(0.015625)"/>
       <path id="DejaVuSans-20" transform="scale(0.015625)"/>
       <path id="DejaVuSans-6d" d="M 3328 2828 
Q 3544 3216 3844 3400 
Q 4144 3584 4550 3584 
Q 5097 3584 5394 3201 
Q 5691 2819 5691 2113 
L 5691 0 
L 5113 0 
L 5113 2094 
Q 5113 2597 4934 2840 
Q 4756 3084 4391 3084 
Q 3944 3084 3684 2787 
Q 3425 2491 3425 1978 
L 3425 0 
L 2847 0 
L 2847 2094 
Q 2847 2600 2669 2842 
Q 2491 3084 2119 3084 
Q 1678 3084 1418 2786 
Q 1159 2488 1159 1978 
L 1159 0 
L 581 0 
L 581 3500 
L 1159 3500 
L 1159 2956 
Q 1356 3278 1631 3431 
Q 1906 3584 2284 3584 
Q 2666 3584 2933 3390 
Q 3200 3197 3328 2828 
z
" transform="scale(0.015625)"/>
       <path id="DejaVuSans-6f" d="M 1959 3097 
Q 1497 3097 1228 2736 
Q 959 2375 959 1747 
Q 959 1119 1226 758 
Q 1494 397 1959 397 
Q 2419 397 2687 759 
Q 2956 1122 2956 1747 
Q 2956 2369 2687 2733 
Q 2419 3097 1959 3097 
z
M 1959 3584 
Q 2709 3584 3137 3096 
Q 3566 2609 3566 1747 
Q 3566 888 3137 398 
Q 2709 -91 1959 -91 
Q 1206 -91 779 398 
Q 353 888 353 1747 
Q 353 2609 779 3096 
Q 1206 3584 1959 3584 
z
" transform="scale(0.015625)"/>
       <path id="DejaVuSans-75" d="M 544 1381 
L 544 3500 
L 1119 3500 
L 1119 1403 
Q 1119 906 1312 657 
Q 1506 409 1894 409 
Q 2359 409 2629 706 
Q 2900 1003 2900 1516 
L 2900 3500 
L 3475 3500 
L 3475 0 
L 2900 0 
L 2900 538 
Q 2691 219 2414 64 
Q 2138 -91 1772 -91 
Q 1169 -91 856 284 
Q 544 659 544 1381 
z
M 1991 3584 
L 1991 3584 
z
" transform="scale(0.015625)"/>
       <path id="DejaVuSans-6e" d="M 3513 2113 
L 3513 0 
L 2938 0 
L 2938 2094 
Q 2938 2591 2744 2837 
Q 2550 3084 2163 3084 
Q 1697 3084 1428 2787 
Q 1159 2491 1159 1978 
L 1159 0 
L 581 0 
L 581 3500 
L 1159 3500 
L 1159 2956 
Q 1366 3272 1645 3428 
Q 1925 3584 2291 3584 
Q 2894 3584 3203 3211 
Q 3513 2838 3513 2113 
z
" transform="scale(0.015625)"/>
       <path id="DejaVuSans-74" d="M 1172 4494 
L 1172 3500 
L 2356 3500 
L 2356 3053 
L 1172 3053 
L 1172 1153 
Q 1172 725 1289 603 
Q 1406 481 1766 481 
L 2356 481 
L 2356 0 
L 1766 0 
Q 1100 0 847 248 
Q 594 497 594 1153 
L 594 3053 
L 172 3053 
L 172 3500 
L 594 3500 
L 594 4494 
L 1172 4494 
z
" transform="scale(0.015625)"/>
       <path id="DejaVuSans-28" d="M 1984 4856 
Q 1566 4138 1362 3434 
Q 1159 2731 1159 2009 
Q 1159 1288 1364 580 
Q 1569 -128 1984 -844 
L 1484 -844 
Q 1016 -109 783 600 
Q 550 1309 550 2009 
Q 550 2706 781 3412 
Q 1013 4119 1484 4856 
L 1984 4856 
z
" transform="scale(0.015625)"/>
       <path id="DejaVuSans-4f" d="M 2522 4238 
Q 1834 4238 1429 3725 
Q 1025 3213 1025 2328 
Q 1025 1447 1429 934 
Q 1834 422 2522 422 
Q 3209 422 3611 934 
Q 4013 1447 4013 2328 
Q 4013 3213 3611 3725 
Q 3209 4238 2522 4238 
z
M 2522 4750 
Q 3503 4750 4090 4092 
Q 4678 3434 4678 2328 
Q 4678 1225 4090 567 
Q 3503 -91 2522 -91 
Q 1538 -91 948 565 
Q 359 1222 359 2328 
Q 359 3434 948 4092 
Q 1538 4750 2522 4750 
z
" transform="scale(0.015625)"/>
       <path id="DejaVuSans-4b" d="M 628 4666 
L 1259 4666 
L 1259 2694 
L 3353 4666 
L 4166 4666 
L 1850 2491 
L 4331 0 
L 3500 0 
L 1259 2247 
L 1259 0 
L 628 0 
L 628 4666 
z
" transform="scale(0.015625)"/>
       <path id="DejaVuSans-79" d="M 2059 -325 
Q 1816 -950 1584 -1140 
Q 1353 -1331 966 -1331 
L 506 -1331 
L 506 -850 
L 844 -850 
Q 1081 -850 1212 -737 
Q 1344 -625 1503 -206 
L 1606 56 
L 191 3500 
L 800 3500 
L 1894 763 
L 2988 3500 
L 3597 3500 
L 2059 -325 
z
" transform="scale(0.015625)"/>
       <path id="DejaVuSans-43" d="M 4122 4306 
L 4122 3641 
Q 3803 3938 3442 4084 
Q 3081 4231 2675 4231 
Q 1875 4231 1450 3742 
Q 1025 3253 1025 2328 
Q 1025 1406 1450 917 
Q 1875 428 2675 428 
Q 3081 428 3442 575 
Q 3803 722 4122 1019 
L 4122 359 
Q 3791 134 3420 21 
Q 3050 -91 2638 -91 
Q 1578 -91 968 557 
Q 359 1206 359 2328 
Q 359 3453 968 4101 
Q 1578 4750 2638 4750 
Q 3056 4750 3426 4639 
Q 3797 4528 4122 4306 
z
" transform="scale(0.015625)"/>
       <path id="DejaVuSans-73" d="M 2834 3397 
L 2834 2853 
Q 2591 2978 2328 3040 
Q 2066 3103 1784 3103 
Q 1356 3103 1142 2972 
Q 928 2841 928 2578 
Q 928 2378 1081 2264 
Q 1234 2150 1697 2047 
L 1894 2003 
Q 2506 1872 2764 1633 
Q 3022 1394 3022 966 
Q 3022 478 2636 193 
Q 2250 -91 1575 -91 
Q 1294 -91 989 -36 
Q 684 19 347 128 
L 347 722 
Q 666 556 975 473 
Q 1284 391 1588 391 
Q 1994 391 2212 530 
Q 2431 669 2431 922 
Q 2431 1156 2273 1281 
Q 2116 1406 1581 1522 
L 1381 1569 
Q 847 1681 609 1914 
Q 372 2147 372 2553 
Q 372 3047 722 3315 
Q 1072 3584 1716 3584 
Q 2034 3584 2315 3537 
Q 2597 3491 2834 3397 
z
" transform="scale(0.015625)"/>
       <path id="DejaVuSans-68" d="M 3513 2113 
L 3513 0 
L 2938 0 
L 2938 2094 
Q 2938 2591 2744 2837 
Q 2550 3084 2163 3084 
Q 1697 3084 1428 2787 
Q 1159 2491 1159 1978 
L 1159 0 
L 581 0 
L 581 4863 
L 1159 4863 
L 1159 2956 
Q 1366 3272 1645 3428 
Q 1925 3584 2291 3584 
Q 2894 3584 3203 3211 
Q 3513 2838 3513 2113 
z
" transform="scale(0.015625)"/>
       <path id="DejaVuSans-29" d="M 513 4856 
L 1013 4856 
Q 1481 4119 1714 3412 
Q 1947 2706 1947 2009 
Q 1947 1309 1714 600 
Q 1481 -109 1013 -844 
L 513 -844 
Q 928 -128 1133 580 
Q 1338 1288 1338 2009 
Q 1338 2731 1133 3434 
Q 928 4138 513 4856 
z
" transform="scale(0.015625)"/>
      </defs>
      <use xlink:href="#DejaVuSans-52"/>
      <use xlink:href="#DejaVuSans-65" x="64.982422"/>
      <use xlink:href="#DejaVuSans-77" x="126.505859"/>
      <use xlink:href="#DejaVuSans-61" x="208.292969"/>
      <use xlink:href="#DejaVuSans-72" x="269.572266"/>
      <use xlink:href="#DejaVuSans-64" x="308.935547"/>
      <use xlink:href="#DejaVuSans-20" x="372.412109"/>
      <use xlink:href="#DejaVuSans-61" x="404.199219"/>
      <use xlink:href="#DejaVuSans-6d" x="465.478516"/>
      <use xlink:href="#DejaVuSans-6f" x="562.890625"/>
      <use xlink:href="#DejaVuSans-75" x="624.072266"/>
      <use xlink:href="#DejaVuSans-6e" x="687.451172"/>
      <use xlink:href="#DejaVuSans-74" x="750.830078"/>
      <use xlink:href="#DejaVuSans-20" x="790.039062"/>
      <use xlink:href="#DejaVuSans-28" x="821.826172"/>
      <use xlink:href="#DejaVuSans-4f" x="860.839844"/>
      <use xlink:href="#DejaVuSans-6e" x="939.550781"/>
      <use xlink:href="#DejaVuSans-65" x="1002.929688"/>
      <use xlink:href="#DejaVuSans-4b" x="1064.453125"/>
      <use xlink:href="#DejaVuSans-65" x="1125.029297"/>
      <use xlink:href="#DejaVuSans-79" x="1186.552734"/>
      <use xlink:href="#DejaVuSans-43" x="1245.732422"/>
      <use xlink:href="#DejaVuSans-61" x="1315.556641"/>
      <use xlink:href="#DejaVuSans-73" x="1376.835938"/>
      <use xlink:href="#DejaVuSans-68" x="1428.935547"/>
      <use xlink:href="#DejaVuSans-29" x="1492.314453"/>
     </g>
    </g>
   </g>
   <g id="matplotlib.axis_2">
    <g id="ytick_1">
     <g id="line2d_8">
      <defs>
       <path id="mec7646ef00" d="M 0 0 
L -3.5 0 
" style="stroke: #000000; stroke-width: 0.8"/>
      </defs>
      <g>
       <use xlink:href="#mec7646ef00" x="57.474063" y="393.550909" style="stroke: #000000; stroke-width: 0.8"/>
      </g>
     </g>
     <g id="text_9">
      <!-- 0.000 -->
      <g transform="translate(21.845938 397.350128)scale(0.1 -0.1)">
       <use xlink:href="#DejaVuSans-30"/>
       <use xlink:href="#DejaVuSans-2e" x="63.623047"/>
       <use xlink:href="#DejaVuSans-30" x="95.410156"/>
       <use xlink:href="#DejaVuSans-30" x="159.033203"/>
       <use xlink:href="#DejaVuSans-30" x="222.65625"/>
      </g>
     </g>
    </g>
    <g id="ytick_2">
     <g id="line2d_9">
      <g>
       <use xlink:href="#mec7646ef00" x="57.474063" y="355.13359" style="stroke: #000000; stroke-width: 0.8"/>
      </g>
     </g>
     <g id="text_10">
      <!-- 0.025 -->
      <g transform="translate(21.845938 358.932808)scale(0.1 -0.1)">
       <use xlink:href="#DejaVuSans-30"/>
       <use xlink:href="#DejaVuSans-2e" x="63.623047"/>
       <use xlink:href="#DejaVuSans-30" x="95.410156"/>
       <use xlink:href="#DejaVuSans-32" x="159.033203"/>
       <use xlink:href="#DejaVuSans-35" x="222.65625"/>
      </g>
     </g>
    </g>
    <g id="ytick_3">
     <g id="line2d_10">
      <g>
       <use xlink:href="#mec7646ef00" x="57.474063" y="316.71627" style="stroke: #000000; stroke-width: 0.8"/>
      </g>
     </g>
     <g id="text_11">
      <!-- 0.050 -->
      <g transform="translate(21.845938 320.515489)scale(0.1 -0.1)">
       <use xlink:href="#DejaVuSans-30"/>
       <use xlink:href="#DejaVuSans-2e" x="63.623047"/>
       <use xlink:href="#DejaVuSans-30" x="95.410156"/>
       <use xlink:href="#DejaVuSans-35" x="159.033203"/>
       <use xlink:href="#DejaVuSans-30" x="222.65625"/>
      </g>
     </g>
    </g>
    <g id="ytick_4">
     <g id="line2d_11">
      <g>
       <use xlink:href="#mec7646ef00" x="57.474063" y="278.298951" style="stroke: #000000; stroke-width: 0.8"/>
      </g>
     </g>
     <g id="text_12">
      <!-- 0.075 -->
      <g transform="translate(21.845938 282.098169)scale(0.1 -0.1)">
       <defs>
        <path id="DejaVuSans-37" d="M 525 4666 
L 3525 4666 
L 3525 4397 
L 1831 0 
L 1172 0 
L 2766 4134 
L 525 4134 
L 525 4666 
z
" transform="scale(0.015625)"/>
       </defs>
       <use xlink:href="#DejaVuSans-30"/>
       <use xlink:href="#DejaVuSans-2e" x="63.623047"/>
       <use xlink:href="#DejaVuSans-30" x="95.410156"/>
       <use xlink:href="#DejaVuSans-37" x="159.033203"/>
       <use xlink:href="#DejaVuSans-35" x="222.65625"/>
      </g>
     </g>
    </g>
    <g id="ytick_5">
     <g id="line2d_12">
      <g>
       <use xlink:href="#mec7646ef00" x="57.474063" y="239.881631" style="stroke: #000000; stroke-width: 0.8"/>
      </g>
     </g>
     <g id="text_13">
      <!-- 0.100 -->
      <g transform="translate(21.845938 243.68085)scale(0.1 -0.1)">
       <use xlink:href="#DejaVuSans-30"/>
       <use xlink:href="#DejaVuSans-2e" x="63.623047"/>
       <use xlink:href="#DejaVuSans-31" x="95.410156"/>
       <use xlink:href="#DejaVuSans-30" x="159.033203"/>
       <use xlink:href="#DejaVuSans-30" x="222.65625"/>
      </g>
     </g>
    </g>
    <g id="ytick_6">
     <g id="line2d_13">
      <g>
       <use xlink:href="#mec7646ef00" x="57.474063" y="201.464312" style="stroke: #000000; stroke-width: 0.8"/>
      </g>
     </g>
     <g id="text_14">
      <!-- 0.125 -->
      <g transform="translate(21.845938 205.263531)scale(0.1 -0.1)">
       <use xlink:href="#DejaVuSans-30"/>
       <use xlink:href="#DejaVuSans-2e" x="63.623047"/>
       <use xlink:href="#DejaVuSans-31" x="95.410156"/>
       <use xlink:href="#DejaVuSans-32" x="159.033203"/>
       <use xlink:href="#DejaVuSans-35" x="222.65625"/>
      </g>
     </g>
    </g>
    <g id="ytick_7">
     <g id="line2d_14">
      <g>
       <use xlink:href="#mec7646ef00" x="57.474063" y="163.046992" style="stroke: #000000; stroke-width: 0.8"/>
      </g>
     </g>
     <g id="text_15">
      <!-- 0.150 -->
      <g transform="translate(21.845938 166.846211)scale(0.1 -0.1)">
       <use xlink:href="#DejaVuSans-30"/>
       <use xlink:href="#DejaVuSans-2e" x="63.623047"/>
       <use xlink:href="#DejaVuSans-31" x="95.410156"/>
       <use xlink:href="#DejaVuSans-35" x="159.033203"/>
       <use xlink:href="#DejaVuSans-30" x="222.65625"/>
      </g>
     </g>
    </g>
    <g id="ytick_8">
     <g id="line2d_15">
      <g>
       <use xlink:href="#mec7646ef00" x="57.474063" y="124.629673" style="stroke: #000000; stroke-width: 0.8"/>
      </g>
     </g>
     <g id="text_16">
      <!-- 0.175 -->
      <g transform="translate(21.845938 128.428892)scale(0.1 -0.1)">
       <use xlink:href="#DejaVuSans-30"/>
       <use xlink:href="#DejaVuSans-2e" x="63.623047"/>
       <use xlink:href="#DejaVuSans-31" x="95.410156"/>
       <use xlink:href="#DejaVuSans-37" x="159.033203"/>
       <use xlink:href="#DejaVuSans-35" x="222.65625"/>
      </g>
     </g>
    </g>
    <g id="ytick_9">
     <g id="line2d_16">
      <g>
       <use xlink:href="#mec7646ef00" x="57.474063" y="86.212353" style="stroke: #000000; stroke-width: 0.8"/>
      </g>
     </g>
     <g id="text_17">
      <!-- 0.200 -->
      <g transform="translate(21.845938 90.011572)scale(0.1 -0.1)">
       <use xlink:href="#DejaVuSans-30"/>
       <use xlink:href="#DejaVuSans-2e" x="63.623047"/>
       <use xlink:href="#DejaVuSans-32" x="95.410156"/>
       <use xlink:href="#DejaVuSans-30" x="159.033203"/>
       <use xlink:href="#DejaVuSans-30" x="222.65625"/>
      </g>
     </g>
    </g>
    <g id="text_18">
     <!-- Cost ($M) -->
     <g transform="translate(15.558281 267.971719)rotate(-90)scale(0.11 -0.11)">
      <defs>
       <path id="DejaVuSans-24" d="M 2163 -941 
L 1850 -941 
L 1847 0 
Q 1519 6 1191 76 
Q 863 147 531 288 
L 531 850 
Q 850 650 1176 548 
Q 1503 447 1850 444 
L 1850 1869 
Q 1159 1981 845 2250 
Q 531 2519 531 2988 
Q 531 3497 872 3790 
Q 1213 4084 1850 4128 
L 1850 4863 
L 2163 4863 
L 2163 4138 
Q 2453 4125 2725 4076 
Q 2997 4028 3256 3944 
L 3256 3397 
Q 2997 3528 2723 3600 
Q 2450 3672 2163 3684 
L 2163 2350 
Q 2872 2241 3206 1959 
Q 3541 1678 3541 1191 
Q 3541 663 3186 358 
Q 2831 53 2163 6 
L 2163 -941 
z
M 1850 2406 
L 1850 3688 
Q 1488 3647 1297 3481 
Q 1106 3316 1106 3041 
Q 1106 2772 1282 2622 
Q 1459 2472 1850 2406 
z
M 2163 1806 
L 2163 453 
Q 2559 506 2761 678 
Q 2963 850 2963 1131 
Q 2963 1406 2770 1568 
Q 2578 1731 2163 1806 
z
" transform="scale(0.015625)"/>
       <path id="DejaVuSans-4d" d="M 628 4666 
L 1569 4666 
L 2759 1491 
L 3956 4666 
L 4897 4666 
L 4897 0 
L 4281 0 
L 4281 4097 
L 3078 897 
L 2444 897 
L 1241 4097 
L 1241 0 
L 628 0 
L 628 4666 
z
" transform="scale(0.015625)"/>
      </defs>
      <use xlink:href="#DejaVuSans-43"/>
      <use xlink:href="#DejaVuSans-6f" x="69.824219"/>
      <use xlink:href="#DejaVuSans-73" x="131.005859"/>
      <use xlink:href="#DejaVuSans-74" x="183.105469"/>
      <use xlink:href="#DejaVuSans-20" x="222.314453"/>
      <use xlink:href="#DejaVuSans-28" x="254.101562"/>
      <use xlink:href="#DejaVuSans-24" x="293.115234"/>
      <use xlink:href="#DejaVuSans-4d" x="356.738281"/>
      <use xlink:href="#DejaVuSans-29" x="443.017578"/>
     </g>
    </g>
   </g>
   <g id="line2d_17">
    <path d="M 80.488267 393.550909 
L 118.845275 379.829975 
L 157.202282 364.376055 
L 195.55929 347.956806 
L 233.916297 331.037621 
L 310.630313 296.679619 
L 387.344328 262.335737 
L 540.772358 194.439016 
" clip-path="url(#p002e7d160a)" style="fill: none; stroke: #1f77b4; stroke-width: 2.5; stroke-linecap: square"/>
    <defs>
     <path id="ma384566055" d="M 0 3 
C 0.795609 3 1.55874 2.683901 2.12132 2.12132 
C 2.683901 1.55874 3 0.795609 3 0 
C 3 -0.795609 2.683901 -1.55874 2.12132 -2.12132 
C 1.55874 -2.683901 0.795609 -3 0 -3 
C -0.795609 -3 -1.55874 -2.683901 -2.12132 -2.12132 
C -2.683901 -1.55874 -3 -0.795609 -3 0 
C -3 0.795609 -2.683901 1.55874 -2.12132 2.12132 
C -1.55874 2.683901 -0.795609 3 0 3 
z
" style="stroke: #1f77b4"/>
    </defs>
    <g clip-path="url(#p002e7d160a)">
     <use xlink:href="#ma384566055" x="80.488267" y="393.550909" style="fill: #1f77b4; stroke: #1f77b4"/>
     <use xlink:href="#ma384566055" x="118.845275" y="379.829975" style="fill: #1f77b4; stroke: #1f77b4"/>
     <use xlink:href="#ma384566055" x="157.202282" y="364.376055" style="fill: #1f77b4; stroke: #1f77b4"/>
     <use xlink:href="#ma384566055" x="195.55929" y="347.956806" style="fill: #1f77b4; stroke: #1f77b4"/>
     <use xlink:href="#ma384566055" x="233.916297" y="331.037621" style="fill: #1f77b4; stroke: #1f77b4"/>
     <use xlink:href="#ma384566055" x="310.630313" y="296.679619" style="fill: #1f77b4; stroke: #1f77b4"/>
     <use xlink:href="#ma384566055" x="387.344328" y="262.335737" style="fill: #1f77b4; stroke: #1f77b4"/>
     <use xlink:href="#ma384566055" x="540.772358" y="194.439016" style="fill: #1f77b4; stroke: #1f77b4"/>
    </g>
   </g>
   <g id="line2d_18">
    <path d="M 80.488267 393.550909 
L 118.845275 371.89464 
L 157.202282 348.010247 
L 195.55929 322.884717 
L 233.916297 297.116411 
L 310.630313 244.911701 
L 387.344328 192.725145 
L 540.772358 89.369091 
" clip-path="url(#p002e7d160a)" style="fill: none; stroke: #ff7f0e; stroke-width: 2.5; stroke-linecap: square"/>
    <defs>
     <path id="m58d5932e2d" d="M 0 3 
C 0.795609 3 1.55874 2.683901 2.12132 2.12132 
C 2.683901 1.55874 3 0.795609 3 0 
C 3 -0.795609 2.683901 -1.55874 2.12132 -2.12132 
C 1.55874 -2.683901 0.795609 -3 0 -3 
C -0.795609 -3 -1.55874 -2.683901 -2.12132 -2.12132 
C -2.683901 -1.55874 -3 -0.795609 -3 0 
C -3 0.795609 -2.683901 1.55874 -2.12132 2.12132 
C -1.55874 2.683901 -0.795609 3 0 3 
z
" style="stroke: #ff7f0e"/>
    </defs>
    <g clip-path="url(#p002e7d160a)">
     <use xlink:href="#m58d5932e2d" x="80.488267" y="393.550909" style="fill: #ff7f0e; stroke: #ff7f0e"/>
     <use xlink:href="#m58d5932e2d" x="118.845275" y="371.89464" style="fill: #ff7f0e; stroke: #ff7f0e"/>
     <use xlink:href="#m58d5932e2d" x="157.202282" y="348.010247" style="fill: #ff7f0e; stroke: #ff7f0e"/>
     <use xlink:href="#m58d5932e2d" x="195.55929" y="322.884717" style="fill: #ff7f0e; stroke: #ff7f0e"/>
     <use xlink:href="#m58d5932e2d" x="233.916297" y="297.116411" style="fill: #ff7f0e; stroke: #ff7f0e"/>
     <use xlink:href="#m58d5932e2d" x="310.630313" y="244.911701" style="fill: #ff7f0e; stroke: #ff7f0e"/>
     <use xlink:href="#m58d5932e2d" x="387.344328" y="192.725145" style="fill: #ff7f0e; stroke: #ff7f0e"/>
     <use xlink:href="#m58d5932e2d" x="540.772358" y="89.369091" style="fill: #ff7f0e; stroke: #ff7f0e"/>
    </g>
   </g>
   <g id="line2d_19">
    <path d="M 80.488267 393.550909 
L 118.845275 384.673817 
L 157.202282 374.524449 
L 195.55929 363.666384 
L 233.916297 352.44129 
L 310.630313 329.609612 
L 387.344328 306.788301 
L 540.772358 261.726425 
" clip-path="url(#p002e7d160a)" style="fill: none; stroke: #2ca02c; stroke-width: 2.5; stroke-linecap: square"/>
    <defs>
     <path id="m6f93a0d647" d="M 0 3 
C 0.795609 3 1.55874 2.683901 2.12132 2.12132 
C 2.683901 1.55874 3 0.795609 3 0 
C 3 -0.795609 2.683901 -1.55874 2.12132 -2.12132 
C 1.55874 -2.683901 0.795609 -3 0 -3 
C -0.795609 -3 -1.55874 -2.683901 -2.12132 -2.12132 
C -2.683901 -1.55874 -3 -0.795609 -3 0 
C -3 0.795609 -2.683901 1.55874 -2.12132 2.12132 
C -1.55874 2.683901 -0.795609 3 0 3 
z
" style="stroke: #2ca02c"/>
    </defs>
    <g clip-path="url(#p002e7d160a)">
     <use xlink:href="#m6f93a0d647" x="80.488267" y="393.550909" style="fill: #2ca02c; stroke: #2ca02c"/>
     <use xlink:href="#m6f93a0d647" x="118.845275" y="384.673817" style="fill: #2ca02c; stroke: #2ca02c"/>
     <use xlink:href="#m6f93a0d647" x="157.202282" y="374.524449" style="fill: #2ca02c; stroke: #2ca02c"/>
     <use xlink:href="#m6f93a0d647" x="195.55929" y="363.666384" style="fill: #2ca02c; stroke: #2ca02c"/>
     <use xlink:href="#m6f93a0d647" x="233.916297" y="352.44129" style="fill: #2ca02c; stroke: #2ca02c"/>
     <use xlink:href="#m6f93a0d647" x="310.630313" y="329.609612" style="fill: #2ca02c; stroke: #2ca02c"/>
     <use xlink:href="#m6f93a0d647" x="387.344328" y="306.788301" style="fill: #2ca02c; stroke: #2ca02c"/>
     <use xlink:href="#m6f93a0d647" x="540.772358" y="261.726425" style="fill: #2ca02c; stroke: #2ca02c"/>
    </g>
   </g>
   <g id="patch_3">
    <path d="M 57.474063 408.76 
L 57.474063 74.16 
" style="fill: none; stroke: #000000; stroke-width: 0.8; stroke-linejoin: miter; stroke-linecap: square"/>
   </g>
   <g id="patch_4">
    <path d="M 57.474063 408.76 
L 563.786562 408.76 
" style="fill: none; stroke: #000000; stroke-width: 0.8; stroke-linejoin: miter; stroke-linecap: square"/>
   </g>
   <g id="text_19">
    <!-- Targeted Program: Cost Sensitivity -->
    <g transform="translate(172.322344 68.16)scale(0.14 -0.14)">
     <defs>
      <path id="DejaVuSans-Bold-54" d="M 31 4666 
L 4331 4666 
L 4331 3756 
L 2784 3756 
L 2784 0 
L 1581 0 
L 1581 3756 
L 31 3756 
L 31 4666 
z
" transform="scale(0.015625)"/>
      <path id="DejaVuSans-Bold-61" d="M 2106 1575 
Q 1756 1575 1579 1456 
Q 1403 1338 1403 1106 
Q 1403 894 1545 773 
Q 1688 653 1941 653 
Q 2256 653 2472 879 
Q 2688 1106 2688 1447 
L 2688 1575 
L 2106 1575 
z
M 3816 1997 
L 3816 0 
L 2688 0 
L 2688 519 
Q 2463 200 2181 54 
Q 1900 -91 1497 -91 
Q 953 -91 614 226 
Q 275 544 275 1050 
Q 275 1666 698 1953 
Q 1122 2241 2028 2241 
L 2688 2241 
L 2688 2328 
Q 2688 2594 2478 2717 
Q 2269 2841 1825 2841 
Q 1466 2841 1156 2769 
Q 847 2697 581 2553 
L 581 3406 
Q 941 3494 1303 3539 
Q 1666 3584 2028 3584 
Q 2975 3584 3395 3211 
Q 3816 2838 3816 1997 
z
" transform="scale(0.015625)"/>
      <path id="DejaVuSans-Bold-72" d="M 3138 2547 
Q 2991 2616 2845 2648 
Q 2700 2681 2553 2681 
Q 2122 2681 1889 2404 
Q 1656 2128 1656 1613 
L 1656 0 
L 538 0 
L 538 3500 
L 1656 3500 
L 1656 2925 
Q 1872 3269 2151 3426 
Q 2431 3584 2822 3584 
Q 2878 3584 2943 3579 
Q 3009 3575 3134 3559 
L 3138 2547 
z
" transform="scale(0.015625)"/>
      <path id="DejaVuSans-Bold-67" d="M 2919 594 
Q 2688 288 2409 144 
Q 2131 0 1766 0 
Q 1125 0 706 504 
Q 288 1009 288 1791 
Q 288 2575 706 3076 
Q 1125 3578 1766 3578 
Q 2131 3578 2409 3434 
Q 2688 3291 2919 2981 
L 2919 3500 
L 4044 3500 
L 4044 353 
Q 4044 -491 3511 -936 
Q 2978 -1381 1966 -1381 
Q 1638 -1381 1331 -1331 
Q 1025 -1281 716 -1178 
L 716 -306 
Q 1009 -475 1290 -558 
Q 1572 -641 1856 -641 
Q 2406 -641 2662 -400 
Q 2919 -159 2919 353 
L 2919 594 
z
M 2181 2772 
Q 1834 2772 1640 2515 
Q 1447 2259 1447 1791 
Q 1447 1309 1634 1061 
Q 1822 813 2181 813 
Q 2531 813 2725 1069 
Q 2919 1325 2919 1791 
Q 2919 2259 2725 2515 
Q 2531 2772 2181 2772 
z
" transform="scale(0.015625)"/>
      <path id="DejaVuSans-Bold-65" d="M 4031 1759 
L 4031 1441 
L 1416 1441 
Q 1456 1047 1700 850 
Q 1944 653 2381 653 
Q 2734 653 3104 758 
Q 3475 863 3866 1075 
L 3866 213 
Q 3469 63 3072 -14 
Q 2675 -91 2278 -91 
Q 1328 -91 801 392 
Q 275 875 275 1747 
Q 275 2603 792 3093 
Q 1309 3584 2216 3584 
Q 3041 3584 3536 3087 
Q 4031 2591 4031 1759 
z
M 2881 2131 
Q 2881 2450 2695 2645 
Q 2509 2841 2209 2841 
Q 1884 2841 1681 2658 
Q 1478 2475 1428 2131 
L 2881 2131 
z
" transform="scale(0.015625)"/>
      <path id="DejaVuSans-Bold-74" d="M 1759 4494 
L 1759 3500 
L 2913 3500 
L 2913 2700 
L 1759 2700 
L 1759 1216 
Q 1759 972 1856 886 
Q 1953 800 2241 800 
L 2816 800 
L 2816 0 
L 1856 0 
Q 1194 0 917 276 
Q 641 553 641 1216 
L 641 2700 
L 84 2700 
L 84 3500 
L 641 3500 
L 641 4494 
L 1759 4494 
z
" transform="scale(0.015625)"/>
      <path id="DejaVuSans-Bold-64" d="M 2919 2988 
L 2919 4863 
L 4044 4863 
L 4044 0 
L 2919 0 
L 2919 506 
Q 2688 197 2409 53 
Q 2131 -91 1766 -91 
Q 1119 -91 703 423 
Q 288 938 288 1747 
Q 288 2556 703 3070 
Q 1119 3584 1766 3584 
Q 2128 3584 2408 3439 
Q 2688 3294 2919 2988 
z
M 2181 722 
Q 2541 722 2730 984 
Q 2919 1247 2919 1747 
Q 2919 2247 2730 2509 
Q 2541 2772 2181 2772 
Q 1825 2772 1636 2509 
Q 1447 2247 1447 1747 
Q 1447 1247 1636 984 
Q 1825 722 2181 722 
z
" transform="scale(0.015625)"/>
      <path id="DejaVuSans-Bold-20" transform="scale(0.015625)"/>
      <path id="DejaVuSans-Bold-50" d="M 588 4666 
L 2584 4666 
Q 3475 4666 3951 4270 
Q 4428 3875 4428 3144 
Q 4428 2409 3951 2014 
Q 3475 1619 2584 1619 
L 1791 1619 
L 1791 0 
L 588 0 
L 588 4666 
z
M 1791 3794 
L 1791 2491 
L 2456 2491 
Q 2806 2491 2997 2661 
Q 3188 2831 3188 3144 
Q 3188 3456 2997 3625 
Q 2806 3794 2456 3794 
L 1791 3794 
z
" transform="scale(0.015625)"/>
      <path id="DejaVuSans-Bold-6f" d="M 2203 2784 
Q 1831 2784 1636 2517 
Q 1441 2250 1441 1747 
Q 1441 1244 1636 976 
Q 1831 709 2203 709 
Q 2569 709 2762 976 
Q 2956 1244 2956 1747 
Q 2956 2250 2762 2517 
Q 2569 2784 2203 2784 
z
M 2203 3584 
Q 3106 3584 3614 3096 
Q 4122 2609 4122 1747 
Q 4122 884 3614 396 
Q 3106 -91 2203 -91 
Q 1297 -91 786 396 
Q 275 884 275 1747 
Q 275 2609 786 3096 
Q 1297 3584 2203 3584 
z
" transform="scale(0.015625)"/>
      <path id="DejaVuSans-Bold-6d" d="M 3781 2919 
Q 3994 3244 4286 3414 
Q 4578 3584 4928 3584 
Q 5531 3584 5847 3212 
Q 6163 2841 6163 2131 
L 6163 0 
L 5038 0 
L 5038 1825 
Q 5041 1866 5042 1909 
Q 5044 1953 5044 2034 
Q 5044 2406 4934 2573 
Q 4825 2741 4581 2741 
Q 4263 2741 4089 2478 
Q 3916 2216 3909 1719 
L 3909 0 
L 2784 0 
L 2784 1825 
Q 2784 2406 2684 2573 
Q 2584 2741 2328 2741 
Q 2006 2741 1831 2477 
Q 1656 2213 1656 1722 
L 1656 0 
L 531 0 
L 531 3500 
L 1656 3500 
L 1656 2988 
Q 1863 3284 2130 3434 
Q 2397 3584 2719 3584 
Q 3081 3584 3359 3409 
Q 3638 3234 3781 2919 
z
" transform="scale(0.015625)"/>
      <path id="DejaVuSans-Bold-3a" d="M 716 3500 
L 1844 3500 
L 1844 2291 
L 716 2291 
L 716 3500 
z
M 716 1209 
L 1844 1209 
L 1844 0 
L 716 0 
L 716 1209 
z
" transform="scale(0.015625)"/>
      <path id="DejaVuSans-Bold-43" d="M 4288 256 
Q 3956 84 3597 -3 
Q 3238 -91 2847 -91 
Q 1681 -91 1000 561 
Q 319 1213 319 2328 
Q 319 3447 1000 4098 
Q 1681 4750 2847 4750 
Q 3238 4750 3597 4662 
Q 3956 4575 4288 4403 
L 4288 3438 
Q 3953 3666 3628 3772 
Q 3303 3878 2944 3878 
Q 2300 3878 1931 3465 
Q 1563 3053 1563 2328 
Q 1563 1606 1931 1193 
Q 2300 781 2944 781 
Q 3303 781 3628 887 
Q 3953 994 4288 1222 
L 4288 256 
z
" transform="scale(0.015625)"/>
      <path id="DejaVuSans-Bold-73" d="M 3272 3391 
L 3272 2541 
Q 2913 2691 2578 2766 
Q 2244 2841 1947 2841 
Q 1628 2841 1473 2761 
Q 1319 2681 1319 2516 
Q 1319 2381 1436 2309 
Q 1553 2238 1856 2203 
L 2053 2175 
Q 2913 2066 3209 1816 
Q 3506 1566 3506 1031 
Q 3506 472 3093 190 
Q 2681 -91 1863 -91 
Q 1516 -91 1145 -36 
Q 775 19 384 128 
L 384 978 
Q 719 816 1070 734 
Q 1422 653 1784 653 
Q 2113 653 2278 743 
Q 2444 834 2444 1013 
Q 2444 1163 2330 1236 
Q 2216 1309 1875 1350 
L 1678 1375 
Q 931 1469 631 1722 
Q 331 1975 331 2491 
Q 331 3047 712 3315 
Q 1094 3584 1881 3584 
Q 2191 3584 2531 3537 
Q 2872 3491 3272 3391 
z
" transform="scale(0.015625)"/>
      <path id="DejaVuSans-Bold-53" d="M 3834 4519 
L 3834 3531 
Q 3450 3703 3084 3790 
Q 2719 3878 2394 3878 
Q 1963 3878 1756 3759 
Q 1550 3641 1550 3391 
Q 1550 3203 1689 3098 
Q 1828 2994 2194 2919 
L 2706 2816 
Q 3484 2659 3812 2340 
Q 4141 2022 4141 1434 
Q 4141 663 3683 286 
Q 3225 -91 2284 -91 
Q 1841 -91 1394 -6 
Q 947 78 500 244 
L 500 1259 
Q 947 1022 1364 901 
Q 1781 781 2169 781 
Q 2563 781 2772 912 
Q 2981 1044 2981 1288 
Q 2981 1506 2839 1625 
Q 2697 1744 2272 1838 
L 1806 1941 
Q 1106 2091 782 2419 
Q 459 2747 459 3303 
Q 459 4000 909 4375 
Q 1359 4750 2203 4750 
Q 2588 4750 2994 4692 
Q 3400 4634 3834 4519 
z
" transform="scale(0.015625)"/>
      <path id="DejaVuSans-Bold-6e" d="M 4056 2131 
L 4056 0 
L 2931 0 
L 2931 347 
L 2931 1631 
Q 2931 2084 2911 2256 
Q 2891 2428 2841 2509 
Q 2775 2619 2662 2680 
Q 2550 2741 2406 2741 
Q 2056 2741 1856 2470 
Q 1656 2200 1656 1722 
L 1656 0 
L 538 0 
L 538 3500 
L 1656 3500 
L 1656 2988 
Q 1909 3294 2193 3439 
Q 2478 3584 2822 3584 
Q 3428 3584 3742 3212 
Q 4056 2841 4056 2131 
z
" transform="scale(0.015625)"/>
      <path id="DejaVuSans-Bold-69" d="M 538 3500 
L 1656 3500 
L 1656 0 
L 538 0 
L 538 3500 
z
M 538 4863 
L 1656 4863 
L 1656 3950 
L 538 3950 
L 538 4863 
z
" transform="scale(0.015625)"/>
      <path id="DejaVuSans-Bold-76" d="M 97 3500 
L 1216 3500 
L 2088 1081 
L 2956 3500 
L 4078 3500 
L 2700 0 
L 1472 0 
L 97 3500 
z
" transform="scale(0.015625)"/>
      <path id="DejaVuSans-Bold-79" d="M 78 3500 
L 1197 3500 
L 2138 1125 
L 2938 3500 
L 4056 3500 
L 2584 -331 
Q 2363 -916 2067 -1148 
Q 1772 -1381 1288 -1381 
L 641 -1381 
L 641 -647 
L 991 -647 
Q 1275 -647 1404 -556 
Q 1534 -466 1606 -231 
L 1638 -134 
L 78 3500 
z
" transform="scale(0.015625)"/>
     </defs>
     <use xlink:href="#DejaVuSans-Bold-54"/>
     <use xlink:href="#DejaVuSans-Bold-61" x="55.337891"/>
     <use xlink:href="#DejaVuSans-Bold-72" x="122.818359"/>
     <use xlink:href="#DejaVuSans-Bold-67" x="172.134766"/>
     <use xlink:href="#DejaVuSans-Bold-65" x="243.716797"/>
     <use xlink:href="#DejaVuSans-Bold-74" x="311.539062"/>
     <use xlink:href="#DejaVuSans-Bold-65" x="359.341797"/>
     <use xlink:href="#DejaVuSans-Bold-64" x="427.164062"/>
     <use xlink:href="#DejaVuSans-Bold-20" x="498.746094"/>
     <use xlink:href="#DejaVuSans-Bold-50" x="533.560547"/>
     <use xlink:href="#DejaVuSans-Bold-72" x="606.851562"/>
     <use xlink:href="#DejaVuSans-Bold-6f" x="656.167969"/>
     <use xlink:href="#DejaVuSans-Bold-67" x="724.869141"/>
     <use xlink:href="#DejaVuSans-Bold-72" x="796.451172"/>
     <use xlink:href="#DejaVuSans-Bold-61" x="845.767578"/>
     <use xlink:href="#DejaVuSans-Bold-6d" x="913.248047"/>
     <use xlink:href="#DejaVuSans-Bold-3a" x="1017.447266"/>
     <use xlink:href="#DejaVuSans-Bold-20" x="1057.4375"/>
     <use xlink:href="#DejaVuSans-Bold-43" x="1092.251953"/>
     <use xlink:href="#DejaVuSans-Bold-6f" x="1165.640625"/>
     <use xlink:href="#DejaVuSans-Bold-73" x="1234.341797"/>
     <use xlink:href="#DejaVuSans-Bold-74" x="1293.863281"/>
     <use xlink:href="#DejaVuSans-Bold-20" x="1341.666016"/>
     <use xlink:href="#DejaVuSans-Bold-53" x="1376.480469"/>
     <use xlink:href="#DejaVuSans-Bold-65" x="1448.501953"/>
     <use xlink:href="#DejaVuSans-Bold-6e" x="1516.324219"/>
     <use xlink:href="#DejaVuSans-Bold-73" x="1587.515625"/>
     <use xlink:href="#DejaVuSans-Bold-69" x="1647.037109"/>
     <use xlink:href="#DejaVuSans-Bold-74" x="1681.314453"/>
     <use xlink:href="#DejaVuSans-Bold-69" x="1729.117188"/>
     <use xlink:href="#DejaVuSans-Bold-76" x="1763.394531"/>
     <use xlink:href="#DejaVuSans-Bold-69" x="1828.580078"/>
     <use xlink:href="#DejaVuSans-Bold-74" x="1862.857422"/>
     <use xlink:href="#DejaVuSans-Bold-79" x="1910.660156"/>
    </g>
   </g>
   <g id="legend_1">
    <g id="line2d_20">
     <path d="M 66.474063 87.258438 
L 76.474063 87.258438 
L 86.474063 87.258438 
" style="fill: none; stroke: #1f77b4; stroke-width: 2.5; stroke-linecap: square"/>
     <g>
      <use xlink:href="#ma384566055" x="76.474063" y="87.258438" style="fill: #1f77b4; stroke: #1f77b4"/>
     </g>
    </g>
    <g id="text_20">
     <!-- Base -->
     <g transform="translate(94.474063 90.758438)scale(0.1 -0.1)">
      <defs>
       <path id="DejaVuSans-42" d="M 1259 2228 
L 1259 519 
L 2272 519 
Q 2781 519 3026 730 
Q 3272 941 3272 1375 
Q 3272 1813 3026 2020 
Q 2781 2228 2272 2228 
L 1259 2228 
z
M 1259 4147 
L 1259 2741 
L 2194 2741 
Q 2656 2741 2882 2914 
Q 3109 3088 3109 3444 
Q 3109 3797 2882 3972 
Q 2656 4147 2194 4147 
L 1259 4147 
z
M 628 4666 
L 2241 4666 
Q 2963 4666 3353 4366 
Q 3744 4066 3744 3513 
Q 3744 3084 3544 2831 
Q 3344 2578 2956 2516 
Q 3422 2416 3680 2098 
Q 3938 1781 3938 1306 
Q 3938 681 3513 340 
Q 3088 0 2303 0 
L 628 0 
L 628 4666 
z
" transform="scale(0.015625)"/>
      </defs>
      <use xlink:href="#DejaVuSans-42"/>
      <use xlink:href="#DejaVuSans-61" x="68.603516"/>
      <use xlink:href="#DejaVuSans-73" x="129.882812"/>
      <use xlink:href="#DejaVuSans-65" x="181.982422"/>
     </g>
    </g>
    <g id="line2d_21">
     <path d="M 66.474063 101.936563 
L 76.474063 101.936563 
L 86.474063 101.936563 
" style="fill: none; stroke: #ff7f0e; stroke-width: 2.5; stroke-linecap: square"/>
     <g>
      <use xlink:href="#m58d5932e2d" x="76.474063" y="101.936563" style="fill: #ff7f0e; stroke: #ff7f0e"/>
     </g>
    </g>
    <g id="text_21">
     <!-- Conservative -->
     <g transform="translate(94.474063 105.436563)scale(0.1 -0.1)">
      <defs>
       <path id="DejaVuSans-76" d="M 191 3500 
L 800 3500 
L 1894 563 
L 2988 3500 
L 3597 3500 
L 2284 0 
L 1503 0 
L 191 3500 
z
" transform="scale(0.015625)"/>
       <path id="DejaVuSans-69" d="M 603 3500 
L 1178 3500 
L 1178 0 
L 603 0 
L 603 3500 
z
M 603 4863 
L 1178 4863 
L 1178 4134 
L 603 4134 
L 603 4863 
z
" transform="scale(0.015625)"/>
      </defs>
      <use xlink:href="#DejaVuSans-43"/>
      <use xlink:href="#DejaVuSans-6f" x="69.824219"/>
      <use xlink:href="#DejaVuSans-6e" x="131.005859"/>
      <use xlink:href="#DejaVuSans-73" x="194.384766"/>
      <use xlink:href="#DejaVuSans-65" x="246.484375"/>
      <use xlink:href="#DejaVuSans-72" x="308.007812"/>
      <use xlink:href="#DejaVuSans-76" x="349.121094"/>
      <use xlink:href="#DejaVuSans-61" x="408.300781"/>
      <use xlink:href="#DejaVuSans-74" x="469.580078"/>
      <use xlink:href="#DejaVuSans-69" x="508.789062"/>
      <use xlink:href="#DejaVuSans-76" x="536.572266"/>
      <use xlink:href="#DejaVuSans-65" x="595.751953"/>
     </g>
    </g>
    <g id="line2d_22">
     <path d="M 66.474063 116.614688 
L 76.474063 116.614688 
L 86.474063 116.614688 
" style="fill: none; stroke: #2ca02c; stroke-width: 2.5; stroke-linecap: square"/>
     <g>
      <use xlink:href="#m6f93a0d647" x="76.474063" y="116.614688" style="fill: #2ca02c; stroke: #2ca02c"/>
     </g>
    </g>
    <g id="text_22">
     <!-- Optimistic -->
     <g transform="translate(94.474063 120.114688)scale(0.1 -0.1)">
      <defs>
       <path id="DejaVuSans-70" d="M 1159 525 
L 1159 -1331 
L 581 -1331 
L 581 3500 
L 1159 3500 
L 1159 2969 
Q 1341 3281 1617 3432 
Q 1894 3584 2278 3584 
Q 2916 3584 3314 3078 
Q 3713 2572 3713 1747 
Q 3713 922 3314 415 
Q 2916 -91 2278 -91 
Q 1894 -91 1617 61 
Q 1341 213 1159 525 
z
M 3116 1747 
Q 3116 2381 2855 2742 
Q 2594 3103 2138 3103 
Q 1681 3103 1420 2742 
Q 1159 2381 1159 1747 
Q 1159 1113 1420 752 
Q 1681 391 2138 391 
Q 2594 391 2855 752 
Q 3116 1113 3116 1747 
z
" transform="scale(0.015625)"/>
       <path id="DejaVuSans-63" d="M 3122 3366 
L 3122 2828 
Q 2878 2963 2633 3030 
Q 2388 3097 2138 3097 
Q 1578 3097 1268 2742 
Q 959 2388 959 1747 
Q 959 1106 1268 751 
Q 1578 397 2138 397 
Q 2388 397 2633 464 
Q 2878 531 3122 666 
L 3122 134 
Q 2881 22 2623 -34 
Q 2366 -91 2075 -91 
Q 1284 -91 818 406 
Q 353 903 353 1747 
Q 353 2603 823 3093 
Q 1294 3584 2113 3584 
Q 2378 3584 2631 3529 
Q 2884 3475 3122 3366 
z
" transform="scale(0.015625)"/>
      </defs>
      <use xlink:href="#DejaVuSans-4f"/>
      <use xlink:href="#DejaVuSans-70" x="78.710938"/>
      <use xlink:href="#DejaVuSans-74" x="142.1875"/>
      <use xlink:href="#DejaVuSans-69" x="181.396484"/>
      <use xlink:href="#DejaVuSans-6d" x="209.179688"/>
      <use xlink:href="#DejaVuSans-69" x="306.591797"/>
      <use xlink:href="#DejaVuSans-73" x="334.375"/>
      <use xlink:href="#DejaVuSans-74" x="386.474609"/>
      <use xlink:href="#DejaVuSans-69" x="425.683594"/>
      <use xlink:href="#DejaVuSans-63" x="453.466797"/>
     </g>
    </g>
   </g>
  </g>
  <g id="axes_2">
   <g id="patch_5">
    <path d="M 631.261562 408.76 
L 1137.574062 408.76 
L 1137.574062 74.16 
L 631.261562 74.16 
z
" style="fill: #ffffff"/>
   </g>
   <g id="matplotlib.axis_3">
    <g id="xtick_8">
     <g id="line2d_23">
      <g>
       <use xlink:href="#maca9c2be71" x="696.119775" y="408.76" style="stroke: #000000; stroke-width: 0.8"/>
      </g>
     </g>
     <g id="text_23">
      <!-- 0.5 -->
      <g transform="translate(688.168213 423.358438)scale(0.1 -0.1)">
       <use xlink:href="#DejaVuSans-30"/>
       <use xlink:href="#DejaVuSans-2e" x="63.623047"/>
       <use xlink:href="#DejaVuSans-35" x="95.410156"/>
      </g>
     </g>
    </g>
    <g id="xtick_9">
     <g id="line2d_24">
      <g>
       <use xlink:href="#maca9c2be71" x="779.807792" y="408.76" style="stroke: #000000; stroke-width: 0.8"/>
      </g>
     </g>
     <g id="text_24">
      <!-- 1.0 -->
      <g transform="translate(771.856229 423.358438)scale(0.1 -0.1)">
       <use xlink:href="#DejaVuSans-31"/>
       <use xlink:href="#DejaVuSans-2e" x="63.623047"/>
       <use xlink:href="#DejaVuSans-30" x="95.410156"/>
      </g>
     </g>
    </g>
    <g id="xtick_10">
     <g id="line2d_25">
      <g>
       <use xlink:href="#maca9c2be71" x="863.495808" y="408.76" style="stroke: #000000; stroke-width: 0.8"/>
      </g>
     </g>
     <g id="text_25">
      <!-- 1.5 -->
      <g transform="translate(855.544246 423.358438)scale(0.1 -0.1)">
       <use xlink:href="#DejaVuSans-31"/>
       <use xlink:href="#DejaVuSans-2e" x="63.623047"/>
       <use xlink:href="#DejaVuSans-35" x="95.410156"/>
      </g>
     </g>
    </g>
    <g id="xtick_11">
     <g id="line2d_26">
      <g>
       <use xlink:href="#maca9c2be71" x="947.183825" y="408.76" style="stroke: #000000; stroke-width: 0.8"/>
      </g>
     </g>
     <g id="text_26">
      <!-- 2.0 -->
      <g transform="translate(939.232262 423.358438)scale(0.1 -0.1)">
       <use xlink:href="#DejaVuSans-32"/>
       <use xlink:href="#DejaVuSans-2e" x="63.623047"/>
       <use xlink:href="#DejaVuSans-30" x="95.410156"/>
      </g>
     </g>
    </g>
    <g id="xtick_12">
     <g id="line2d_27">
      <g>
       <use xlink:href="#maca9c2be71" x="1030.871841" y="408.76" style="stroke: #000000; stroke-width: 0.8"/>
      </g>
     </g>
     <g id="text_27">
      <!-- 2.5 -->
      <g transform="translate(1022.920279 423.358438)scale(0.1 -0.1)">
       <use xlink:href="#DejaVuSans-32"/>
       <use xlink:href="#DejaVuSans-2e" x="63.623047"/>
       <use xlink:href="#DejaVuSans-35" x="95.410156"/>
      </g>
     </g>
    </g>
    <g id="xtick_13">
     <g id="line2d_28">
      <g>
       <use xlink:href="#maca9c2be71" x="1114.559858" y="408.76" style="stroke: #000000; stroke-width: 0.8"/>
      </g>
     </g>
     <g id="text_28">
      <!-- 3.0 -->
      <g transform="translate(1106.608295 423.358438)scale(0.1 -0.1)">
       <use xlink:href="#DejaVuSans-33"/>
       <use xlink:href="#DejaVuSans-2e" x="63.623047"/>
       <use xlink:href="#DejaVuSans-30" x="95.410156"/>
      </g>
     </g>
    </g>
    <g id="text_29">
     <!-- Reward amount (OneKeyCash) -->
     <g transform="translate(800.193906 437.796406)scale(0.11 -0.11)">
      <use xlink:href="#DejaVuSans-52"/>
      <use xlink:href="#DejaVuSans-65" x="64.982422"/>
      <use xlink:href="#DejaVuSans-77" x="126.505859"/>
      <use xlink:href="#DejaVuSans-61" x="208.292969"/>
      <use xlink:href="#DejaVuSans-72" x="269.572266"/>
      <use xlink:href="#DejaVuSans-64" x="308.935547"/>
      <use xlink:href="#DejaVuSans-20" x="372.412109"/>
      <use xlink:href="#DejaVuSans-61" x="404.199219"/>
      <use xlink:href="#DejaVuSans-6d" x="465.478516"/>
      <use xlink:href="#DejaVuSans-6f" x="562.890625"/>
      <use xlink:href="#DejaVuSans-75" x="624.072266"/>
      <use xlink:href="#DejaVuSans-6e" x="687.451172"/>
      <use xlink:href="#DejaVuSans-74" x="750.830078"/>
      <use xlink:href="#DejaVuSans-20" x="790.039062"/>
      <use xlink:href="#DejaVuSans-28" x="821.826172"/>
      <use xlink:href="#DejaVuSans-4f" x="860.839844"/>
      <use xlink:href="#DejaVuSans-6e" x="939.550781"/>
      <use xlink:href="#DejaVuSans-65" x="1002.929688"/>
      <use xlink:href="#DejaVuSans-4b" x="1064.453125"/>
      <use xlink:href="#DejaVuSans-65" x="1125.029297"/>
      <use xlink:href="#DejaVuSans-79" x="1186.552734"/>
      <use xlink:href="#DejaVuSans-43" x="1245.732422"/>
      <use xlink:href="#DejaVuSans-61" x="1315.556641"/>
      <use xlink:href="#DejaVuSans-73" x="1376.835938"/>
      <use xlink:href="#DejaVuSans-68" x="1428.935547"/>
      <use xlink:href="#DejaVuSans-29" x="1492.314453"/>
     </g>
    </g>
   </g>
   <g id="matplotlib.axis_4">
    <g id="ytick_10">
     <g id="line2d_29">
      <g>
       <use xlink:href="#mec7646ef00" x="631.261562" y="365.367841" style="stroke: #000000; stroke-width: 0.8"/>
      </g>
     </g>
     <g id="text_30">
      <!-- $2.00 -->
      <g transform="translate(595.633437 369.167059)scale(0.1 -0.1)">
       <use xlink:href="#DejaVuSans-24"/>
       <use xlink:href="#DejaVuSans-32" x="63.623047"/>
       <use xlink:href="#DejaVuSans-2e" x="127.246094"/>
       <use xlink:href="#DejaVuSans-30" x="159.033203"/>
       <use xlink:href="#DejaVuSans-30" x="222.65625"/>
      </g>
     </g>
    </g>
    <g id="ytick_11">
     <g id="line2d_30">
      <g>
       <use xlink:href="#mec7646ef00" x="631.261562" y="315.090914" style="stroke: #000000; stroke-width: 0.8"/>
      </g>
     </g>
     <g id="text_31">
      <!-- $4.00 -->
      <g transform="translate(595.633437 318.890133)scale(0.1 -0.1)">
       <defs>
        <path id="DejaVuSans-34" d="M 2419 4116 
L 825 1625 
L 2419 1625 
L 2419 4116 
z
M 2253 4666 
L 3047 4666 
L 3047 1625 
L 3713 1625 
L 3713 1100 
L 3047 1100 
L 3047 0 
L 2419 0 
L 2419 1100 
L 313 1100 
L 313 1709 
L 2253 4666 
z
" transform="scale(0.015625)"/>
       </defs>
       <use xlink:href="#DejaVuSans-24"/>
       <use xlink:href="#DejaVuSans-34" x="63.623047"/>
       <use xlink:href="#DejaVuSans-2e" x="127.246094"/>
       <use xlink:href="#DejaVuSans-30" x="159.033203"/>
       <use xlink:href="#DejaVuSans-30" x="222.65625"/>
      </g>
     </g>
    </g>
    <g id="ytick_12">
     <g id="line2d_31">
      <g>
       <use xlink:href="#mec7646ef00" x="631.261562" y="264.813987" style="stroke: #000000; stroke-width: 0.8"/>
      </g>
     </g>
     <g id="text_32">
      <!-- $6.00 -->
      <g transform="translate(595.633437 268.613206)scale(0.1 -0.1)">
       <defs>
        <path id="DejaVuSans-36" d="M 2113 2584 
Q 1688 2584 1439 2293 
Q 1191 2003 1191 1497 
Q 1191 994 1439 701 
Q 1688 409 2113 409 
Q 2538 409 2786 701 
Q 3034 994 3034 1497 
Q 3034 2003 2786 2293 
Q 2538 2584 2113 2584 
z
M 3366 4563 
L 3366 3988 
Q 3128 4100 2886 4159 
Q 2644 4219 2406 4219 
Q 1781 4219 1451 3797 
Q 1122 3375 1075 2522 
Q 1259 2794 1537 2939 
Q 1816 3084 2150 3084 
Q 2853 3084 3261 2657 
Q 3669 2231 3669 1497 
Q 3669 778 3244 343 
Q 2819 -91 2113 -91 
Q 1303 -91 875 529 
Q 447 1150 447 2328 
Q 447 3434 972 4092 
Q 1497 4750 2381 4750 
Q 2619 4750 2861 4703 
Q 3103 4656 3366 4563 
z
" transform="scale(0.015625)"/>
       </defs>
       <use xlink:href="#DejaVuSans-24"/>
       <use xlink:href="#DejaVuSans-36" x="63.623047"/>
       <use xlink:href="#DejaVuSans-2e" x="127.246094"/>
       <use xlink:href="#DejaVuSans-30" x="159.033203"/>
       <use xlink:href="#DejaVuSans-30" x="222.65625"/>
      </g>
     </g>
    </g>
    <g id="ytick_13">
     <g id="line2d_32">
      <g>
       <use xlink:href="#mec7646ef00" x="631.261562" y="214.537061" style="stroke: #000000; stroke-width: 0.8"/>
      </g>
     </g>
     <g id="text_33">
      <!-- $8.00 -->
      <g transform="translate(595.633437 218.33628)scale(0.1 -0.1)">
       <defs>
        <path id="DejaVuSans-38" d="M 2034 2216 
Q 1584 2216 1326 1975 
Q 1069 1734 1069 1313 
Q 1069 891 1326 650 
Q 1584 409 2034 409 
Q 2484 409 2743 651 
Q 3003 894 3003 1313 
Q 3003 1734 2745 1975 
Q 2488 2216 2034 2216 
z
M 1403 2484 
Q 997 2584 770 2862 
Q 544 3141 544 3541 
Q 544 4100 942 4425 
Q 1341 4750 2034 4750 
Q 2731 4750 3128 4425 
Q 3525 4100 3525 3541 
Q 3525 3141 3298 2862 
Q 3072 2584 2669 2484 
Q 3125 2378 3379 2068 
Q 3634 1759 3634 1313 
Q 3634 634 3220 271 
Q 2806 -91 2034 -91 
Q 1263 -91 848 271 
Q 434 634 434 1313 
Q 434 1759 690 2068 
Q 947 2378 1403 2484 
z
M 1172 3481 
Q 1172 3119 1398 2916 
Q 1625 2713 2034 2713 
Q 2441 2713 2670 2916 
Q 2900 3119 2900 3481 
Q 2900 3844 2670 4047 
Q 2441 4250 2034 4250 
Q 1625 4250 1398 4047 
Q 1172 3844 1172 3481 
z
" transform="scale(0.015625)"/>
       </defs>
       <use xlink:href="#DejaVuSans-24"/>
       <use xlink:href="#DejaVuSans-38" x="63.623047"/>
       <use xlink:href="#DejaVuSans-2e" x="127.246094"/>
       <use xlink:href="#DejaVuSans-30" x="159.033203"/>
       <use xlink:href="#DejaVuSans-30" x="222.65625"/>
      </g>
     </g>
    </g>
    <g id="ytick_14">
     <g id="line2d_33">
      <g>
       <use xlink:href="#mec7646ef00" x="631.261562" y="164.260134" style="stroke: #000000; stroke-width: 0.8"/>
      </g>
     </g>
     <g id="text_34">
      <!-- $10.00 -->
      <g transform="translate(589.270937 168.059353)scale(0.1 -0.1)">
       <use xlink:href="#DejaVuSans-24"/>
       <use xlink:href="#DejaVuSans-31" x="63.623047"/>
       <use xlink:href="#DejaVuSans-30" x="127.246094"/>
       <use xlink:href="#DejaVuSans-2e" x="190.869141"/>
       <use xlink:href="#DejaVuSans-30" x="222.65625"/>
       <use xlink:href="#DejaVuSans-30" x="286.279297"/>
      </g>
     </g>
    </g>
    <g id="ytick_15">
     <g id="line2d_34">
      <g>
       <use xlink:href="#mec7646ef00" x="631.261562" y="113.983208" style="stroke: #000000; stroke-width: 0.8"/>
      </g>
     </g>
     <g id="text_35">
      <!-- $12.00 -->
      <g transform="translate(589.270937 117.782426)scale(0.1 -0.1)">
       <use xlink:href="#DejaVuSans-24"/>
       <use xlink:href="#DejaVuSans-31" x="63.623047"/>
       <use xlink:href="#DejaVuSans-32" x="127.246094"/>
       <use xlink:href="#DejaVuSans-2e" x="190.869141"/>
       <use xlink:href="#DejaVuSans-30" x="222.65625"/>
       <use xlink:href="#DejaVuSans-30" x="286.279297"/>
      </g>
     </g>
    </g>
    <g id="text_36">
     <!-- Economic cost per incremental review -->
     <g transform="translate(582.983281 346.652656)rotate(-90)scale(0.11 -0.11)">
      <defs>
       <path id="DejaVuSans-45" d="M 628 4666 
L 3578 4666 
L 3578 4134 
L 1259 4134 
L 1259 2753 
L 3481 2753 
L 3481 2222 
L 1259 2222 
L 1259 531 
L 3634 531 
L 3634 0 
L 628 0 
L 628 4666 
z
" transform="scale(0.015625)"/>
       <path id="DejaVuSans-6c" d="M 603 4863 
L 1178 4863 
L 1178 0 
L 603 0 
L 603 4863 
z
" transform="scale(0.015625)"/>
      </defs>
      <use xlink:href="#DejaVuSans-45"/>
      <use xlink:href="#DejaVuSans-63" x="63.183594"/>
      <use xlink:href="#DejaVuSans-6f" x="118.164062"/>
      <use xlink:href="#DejaVuSans-6e" x="179.345703"/>
      <use xlink:href="#DejaVuSans-6f" x="242.724609"/>
      <use xlink:href="#DejaVuSans-6d" x="303.90625"/>
      <use xlink:href="#DejaVuSans-69" x="401.318359"/>
      <use xlink:href="#DejaVuSans-63" x="429.101562"/>
      <use xlink:href="#DejaVuSans-20" x="484.082031"/>
      <use xlink:href="#DejaVuSans-63" x="515.869141"/>
      <use xlink:href="#DejaVuSans-6f" x="570.849609"/>
      <use xlink:href="#DejaVuSans-73" x="632.03125"/>
      <use xlink:href="#DejaVuSans-74" x="684.130859"/>
      <use xlink:href="#DejaVuSans-20" x="723.339844"/>
      <use xlink:href="#DejaVuSans-70" x="755.126953"/>
      <use xlink:href="#DejaVuSans-65" x="818.603516"/>
      <use xlink:href="#DejaVuSans-72" x="880.126953"/>
      <use xlink:href="#DejaVuSans-20" x="921.240234"/>
      <use xlink:href="#DejaVuSans-69" x="953.027344"/>
      <use xlink:href="#DejaVuSans-6e" x="980.810547"/>
      <use xlink:href="#DejaVuSans-63" x="1044.189453"/>
      <use xlink:href="#DejaVuSans-72" x="1099.169922"/>
      <use xlink:href="#DejaVuSans-65" x="1138.033203"/>
      <use xlink:href="#DejaVuSans-6d" x="1199.556641"/>
      <use xlink:href="#DejaVuSans-65" x="1296.96875"/>
      <use xlink:href="#DejaVuSans-6e" x="1358.492188"/>
      <use xlink:href="#DejaVuSans-74" x="1421.871094"/>
      <use xlink:href="#DejaVuSans-61" x="1461.080078"/>
      <use xlink:href="#DejaVuSans-6c" x="1522.359375"/>
      <use xlink:href="#DejaVuSans-20" x="1550.142578"/>
      <use xlink:href="#DejaVuSans-72" x="1581.929688"/>
      <use xlink:href="#DejaVuSans-65" x="1620.792969"/>
      <use xlink:href="#DejaVuSans-76" x="1682.316406"/>
      <use xlink:href="#DejaVuSans-69" x="1741.496094"/>
      <use xlink:href="#DejaVuSans-65" x="1769.279297"/>
      <use xlink:href="#DejaVuSans-77" x="1830.802734"/>
     </g>
    </g>
   </g>
   <g id="line2d_35">
    <path d="M 654.275767 376.37283 
L 696.119775 366.659846 
L 737.963784 356.361335 
L 779.807792 345.511417 
L 863.495808 322.339533 
L 947.183825 297.555551 
L 1114.559858 244.785462 
" clip-path="url(#pe2cc0b1326)" style="fill: none; stroke: #1f77b4; stroke-width: 2.5; stroke-linecap: square"/>
    <g clip-path="url(#pe2cc0b1326)">
     <use xlink:href="#ma384566055" x="654.275767" y="376.37283" style="fill: #1f77b4; stroke: #1f77b4"/>
     <use xlink:href="#ma384566055" x="696.119775" y="366.659846" style="fill: #1f77b4; stroke: #1f77b4"/>
     <use xlink:href="#ma384566055" x="737.963784" y="356.361335" style="fill: #1f77b4; stroke: #1f77b4"/>
     <use xlink:href="#ma384566055" x="779.807792" y="345.511417" style="fill: #1f77b4; stroke: #1f77b4"/>
     <use xlink:href="#ma384566055" x="863.495808" y="322.339533" style="fill: #1f77b4; stroke: #1f77b4"/>
     <use xlink:href="#ma384566055" x="947.183825" y="297.555551" style="fill: #1f77b4; stroke: #1f77b4"/>
     <use xlink:href="#ma384566055" x="1114.559858" y="244.785462" style="fill: #1f77b4; stroke: #1f77b4"/>
    </g>
   </g>
   <g id="line2d_36">
    <path d="M 654.275767 338.164289 
L 696.119775 320.065636 
L 737.963784 300.790702 
L 779.807792 280.40803 
L 863.495808 236.685447 
L 947.183825 189.724275 
L 1114.559858 89.369091 
" clip-path="url(#pe2cc0b1326)" style="fill: none; stroke: #ff7f0e; stroke-width: 2.5; stroke-linecap: square"/>
    <g clip-path="url(#pe2cc0b1326)">
     <use xlink:href="#m58d5932e2d" x="654.275767" y="338.164289" style="fill: #ff7f0e; stroke: #ff7f0e"/>
     <use xlink:href="#m58d5932e2d" x="696.119775" y="320.065636" style="fill: #ff7f0e; stroke: #ff7f0e"/>
     <use xlink:href="#m58d5932e2d" x="737.963784" y="300.790702" style="fill: #ff7f0e; stroke: #ff7f0e"/>
     <use xlink:href="#m58d5932e2d" x="779.807792" y="280.40803" style="fill: #ff7f0e; stroke: #ff7f0e"/>
     <use xlink:href="#m58d5932e2d" x="863.495808" y="236.685447" style="fill: #ff7f0e; stroke: #ff7f0e"/>
     <use xlink:href="#m58d5932e2d" x="947.183825" y="189.724275" style="fill: #ff7f0e; stroke: #ff7f0e"/>
     <use xlink:href="#m58d5932e2d" x="1114.559858" y="89.369091" style="fill: #ff7f0e; stroke: #ff7f0e"/>
    </g>
   </g>
   <g id="line2d_37">
    <path d="M 654.275767 393.550909 
L 696.119775 387.865942 
L 737.963784 381.855935 
L 779.807792 375.539828 
L 863.495808 362.090445 
L 947.183825 347.746148 
L 1114.559858 317.279976 
" clip-path="url(#pe2cc0b1326)" style="fill: none; stroke: #2ca02c; stroke-width: 2.5; stroke-linecap: square"/>
    <g clip-path="url(#pe2cc0b1326)">
     <use xlink:href="#m6f93a0d647" x="654.275767" y="393.550909" style="fill: #2ca02c; stroke: #2ca02c"/>
     <use xlink:href="#m6f93a0d647" x="696.119775" y="387.865942" style="fill: #2ca02c; stroke: #2ca02c"/>
     <use xlink:href="#m6f93a0d647" x="737.963784" y="381.855935" style="fill: #2ca02c; stroke: #2ca02c"/>
     <use xlink:href="#m6f93a0d647" x="779.807792" y="375.539828" style="fill: #2ca02c; stroke: #2ca02c"/>
     <use xlink:href="#m6f93a0d647" x="863.495808" y="362.090445" style="fill: #2ca02c; stroke: #2ca02c"/>
     <use xlink:href="#m6f93a0d647" x="947.183825" y="347.746148" style="fill: #2ca02c; stroke: #2ca02c"/>
     <use xlink:href="#m6f93a0d647" x="1114.559858" y="317.279976" style="fill: #2ca02c; stroke: #2ca02c"/>
    </g>
   </g>
   <g id="patch_6">
    <path d="M 631.261562 408.76 
L 631.261562 74.16 
" style="fill: none; stroke: #000000; stroke-width: 0.8; stroke-linejoin: miter; stroke-linecap: square"/>
   </g>
   <g id="patch_7">
    <path d="M 631.261562 408.76 
L 1137.574062 408.76 
" style="fill: none; stroke: #000000; stroke-width: 0.8; stroke-linejoin: miter; stroke-linecap: square"/>
   </g>
   <g id="text_37">
    <!-- Targeted Program: Cost per Additional Review -->
    <g transform="translate(701.165469 68.16)scale(0.14 -0.14)">
     <defs>
      <path id="DejaVuSans-Bold-70" d="M 1656 506 
L 1656 -1331 
L 538 -1331 
L 538 3500 
L 1656 3500 
L 1656 2988 
Q 1888 3294 2169 3439 
Q 2450 3584 2816 3584 
Q 3463 3584 3878 3070 
Q 4294 2556 4294 1747 
Q 4294 938 3878 423 
Q 3463 -91 2816 -91 
Q 2450 -91 2169 54 
Q 1888 200 1656 506 
z
M 2400 2772 
Q 2041 2772 1848 2508 
Q 1656 2244 1656 1747 
Q 1656 1250 1848 986 
Q 2041 722 2400 722 
Q 2759 722 2948 984 
Q 3138 1247 3138 1747 
Q 3138 2247 2948 2509 
Q 2759 2772 2400 2772 
z
" transform="scale(0.015625)"/>
      <path id="DejaVuSans-Bold-41" d="M 3419 850 
L 1538 850 
L 1241 0 
L 31 0 
L 1759 4666 
L 3194 4666 
L 4922 0 
L 3713 0 
L 3419 850 
z
M 1838 1716 
L 3116 1716 
L 2478 3572 
L 1838 1716 
z
" transform="scale(0.015625)"/>
      <path id="DejaVuSans-Bold-6c" d="M 538 4863 
L 1656 4863 
L 1656 0 
L 538 0 
L 538 4863 
z
" transform="scale(0.015625)"/>
      <path id="DejaVuSans-Bold-52" d="M 2297 2597 
Q 2675 2597 2839 2737 
Q 3003 2878 3003 3200 
Q 3003 3519 2839 3656 
Q 2675 3794 2297 3794 
L 1791 3794 
L 1791 2597 
L 2297 2597 
z
M 1791 1766 
L 1791 0 
L 588 0 
L 588 4666 
L 2425 4666 
Q 3347 4666 3776 4356 
Q 4206 4047 4206 3378 
Q 4206 2916 3982 2619 
Q 3759 2322 3309 2181 
Q 3556 2125 3751 1926 
Q 3947 1728 4147 1325 
L 4800 0 
L 3519 0 
L 2950 1159 
Q 2778 1509 2601 1637 
Q 2425 1766 2131 1766 
L 1791 1766 
z
" transform="scale(0.015625)"/>
      <path id="DejaVuSans-Bold-77" d="M 225 3500 
L 1313 3500 
L 1900 1088 
L 2491 3500 
L 3425 3500 
L 4013 1113 
L 4603 3500 
L 5691 3500 
L 4769 0 
L 3547 0 
L 2956 2406 
L 2369 0 
L 1147 0 
L 225 3500 
z
" transform="scale(0.015625)"/>
     </defs>
     <use xlink:href="#DejaVuSans-Bold-54"/>
     <use xlink:href="#DejaVuSans-Bold-61" x="55.337891"/>
     <use xlink:href="#DejaVuSans-Bold-72" x="122.818359"/>
     <use xlink:href="#DejaVuSans-Bold-67" x="172.134766"/>
     <use xlink:href="#DejaVuSans-Bold-65" x="243.716797"/>
     <use xlink:href="#DejaVuSans-Bold-74" x="311.539062"/>
     <use xlink:href="#DejaVuSans-Bold-65" x="359.341797"/>
     <use xlink:href="#DejaVuSans-Bold-64" x="427.164062"/>
     <use xlink:href="#DejaVuSans-Bold-20" x="498.746094"/>
     <use xlink:href="#DejaVuSans-Bold-50" x="533.560547"/>
     <use xlink:href="#DejaVuSans-Bold-72" x="606.851562"/>
     <use xlink:href="#DejaVuSans-Bold-6f" x="656.167969"/>
     <use xlink:href="#DejaVuSans-Bold-67" x="724.869141"/>
     <use xlink:href="#DejaVuSans-Bold-72" x="796.451172"/>
     <use xlink:href="#DejaVuSans-Bold-61" x="845.767578"/>
     <use xlink:href="#DejaVuSans-Bold-6d" x="913.248047"/>
     <use xlink:href="#DejaVuSans-Bold-3a" x="1017.447266"/>
     <use xlink:href="#DejaVuSans-Bold-20" x="1057.4375"/>
     <use xlink:href="#DejaVuSans-Bold-43" x="1092.251953"/>
     <use xlink:href="#DejaVuSans-Bold-6f" x="1165.640625"/>
     <use xlink:href="#DejaVuSans-Bold-73" x="1234.341797"/>
     <use xlink:href="#DejaVuSans-Bold-74" x="1293.863281"/>
     <use xlink:href="#DejaVuSans-Bold-20" x="1341.666016"/>
     <use xlink:href="#DejaVuSans-Bold-70" x="1376.480469"/>
     <use xlink:href="#DejaVuSans-Bold-65" x="1448.0625"/>
     <use xlink:href="#DejaVuSans-Bold-72" x="1515.884766"/>
     <use xlink:href="#DejaVuSans-Bold-20" x="1565.201172"/>
     <use xlink:href="#DejaVuSans-Bold-41" x="1600.015625"/>
     <use xlink:href="#DejaVuSans-Bold-64" x="1677.408203"/>
     <use xlink:href="#DejaVuSans-Bold-64" x="1748.990234"/>
     <use xlink:href="#DejaVuSans-Bold-69" x="1820.572266"/>
     <use xlink:href="#DejaVuSans-Bold-74" x="1854.849609"/>
     <use xlink:href="#DejaVuSans-Bold-69" x="1902.652344"/>
     <use xlink:href="#DejaVuSans-Bold-6f" x="1936.929688"/>
     <use xlink:href="#DejaVuSans-Bold-6e" x="2005.630859"/>
     <use xlink:href="#DejaVuSans-Bold-61" x="2076.822266"/>
     <use xlink:href="#DejaVuSans-Bold-6c" x="2144.302734"/>
     <use xlink:href="#DejaVuSans-Bold-20" x="2178.580078"/>
     <use xlink:href="#DejaVuSans-Bold-52" x="2213.394531"/>
     <use xlink:href="#DejaVuSans-Bold-65" x="2290.396484"/>
     <use xlink:href="#DejaVuSans-Bold-76" x="2358.21875"/>
     <use xlink:href="#DejaVuSans-Bold-69" x="2423.404297"/>
     <use xlink:href="#DejaVuSans-Bold-65" x="2457.681641"/>
     <use xlink:href="#DejaVuSans-Bold-77" x="2525.503906"/>
    </g>
   </g>
   <g id="legend_2">
    <g id="line2d_38">
     <path d="M 640.261562 87.258438 
L 650.261562 87.258438 
L 660.261562 87.258438 
" style="fill: none; stroke: #1f77b4; stroke-width: 2.5; stroke-linecap: square"/>
     <g>
      <use xlink:href="#ma384566055" x="650.261562" y="87.258438" style="fill: #1f77b4; stroke: #1f77b4"/>
     </g>
    </g>
    <g id="text_38">
     <!-- Base -->
     <g transform="translate(668.261562 90.758438)scale(0.1 -0.1)">
      <use xlink:href="#DejaVuSans-42"/>
      <use xlink:href="#DejaVuSans-61" x="68.603516"/>
      <use xlink:href="#DejaVuSans-73" x="129.882812"/>
      <use xlink:href="#DejaVuSans-65" x="181.982422"/>
     </g>
    </g>
    <g id="line2d_39">
     <path d="M 640.261562 101.936563 
L 650.261562 101.936563 
L 660.261562 101.936563 
" style="fill: none; stroke: #ff7f0e; stroke-width: 2.5; stroke-linecap: square"/>
     <g>
      <use xlink:href="#m58d5932e2d" x="650.261562" y="101.936563" style="fill: #ff7f0e; stroke: #ff7f0e"/>
     </g>
    </g>
    <g id="text_39">
     <!-- Conservative -->
     <g transform="translate(668.261562 105.436563)scale(0.1 -0.1)">
      <use xlink:href="#DejaVuSans-43"/>
      <use xlink:href="#DejaVuSans-6f" x="69.824219"/>
      <use xlink:href="#DejaVuSans-6e" x="131.005859"/>
      <use xlink:href="#DejaVuSans-73" x="194.384766"/>
      <use xlink:href="#DejaVuSans-65" x="246.484375"/>
      <use xlink:href="#DejaVuSans-72" x="308.007812"/>
      <use xlink:href="#DejaVuSans-76" x="349.121094"/>
      <use xlink:href="#DejaVuSans-61" x="408.300781"/>
      <use xlink:href="#DejaVuSans-74" x="469.580078"/>
      <use xlink:href="#DejaVuSans-69" x="508.789062"/>
      <use xlink:href="#DejaVuSans-76" x="536.572266"/>
      <use xlink:href="#DejaVuSans-65" x="595.751953"/>
     </g>
    </g>
    <g id="line2d_40">
     <path d="M 640.261562 116.614688 
L 650.261562 116.614688 
L 660.261562 116.614688 
" style="fill: none; stroke: #2ca02c; stroke-width: 2.5; stroke-linecap: square"/>
     <g>
      <use xlink:href="#m6f93a0d647" x="650.261562" y="116.614688" style="fill: #2ca02c; stroke: #2ca02c"/>
     </g>
    </g>
    <g id="text_40">
     <!-- Optimistic -->
     <g transform="translate(668.261562 120.114688)scale(0.1 -0.1)">
      <use xlink:href="#DejaVuSans-4f"/>
      <use xlink:href="#DejaVuSans-70" x="78.710938"/>
      <use xlink:href="#DejaVuSans-74" x="142.1875"/>
      <use xlink:href="#DejaVuSans-69" x="181.396484"/>
      <use xlink:href="#DejaVuSans-6d" x="209.179688"/>
      <use xlink:href="#DejaVuSans-69" x="306.591797"/>
      <use xlink:href="#DejaVuSans-73" x="334.375"/>
      <use xlink:href="#DejaVuSans-74" x="386.474609"/>
      <use xlink:href="#DejaVuSans-69" x="425.683594"/>
      <use xlink:href="#DejaVuSans-63" x="453.466797"/>
     </g>
    </g>
   </g>
  </g>
  <g id="text_41">
   <!-- Even With Conservative Assumptions, Small Rewards Are Manageable -->
   <g transform="translate(255.695313 19.3575)scale(0.16 -0.16)">
    <defs>
     <path id="DejaVuSans-Bold-45" d="M 588 4666 
L 3834 4666 
L 3834 3756 
L 1791 3756 
L 1791 2888 
L 3713 2888 
L 3713 1978 
L 1791 1978 
L 1791 909 
L 3903 909 
L 3903 0 
L 588 0 
L 588 4666 
z
" transform="scale(0.015625)"/>
     <path id="DejaVuSans-Bold-57" d="M 191 4666 
L 1344 4666 
L 2150 1275 
L 2950 4666 
L 4109 4666 
L 4909 1275 
L 5716 4666 
L 6859 4666 
L 5759 0 
L 4372 0 
L 3525 3547 
L 2688 0 
L 1300 0 
L 191 4666 
z
" transform="scale(0.015625)"/>
     <path id="DejaVuSans-Bold-68" d="M 4056 2131 
L 4056 0 
L 2931 0 
L 2931 347 
L 2931 1625 
Q 2931 2084 2911 2256 
Q 2891 2428 2841 2509 
Q 2775 2619 2662 2680 
Q 2550 2741 2406 2741 
Q 2056 2741 1856 2470 
Q 1656 2200 1656 1722 
L 1656 0 
L 538 0 
L 538 4863 
L 1656 4863 
L 1656 2988 
Q 1909 3294 2193 3439 
Q 2478 3584 2822 3584 
Q 3428 3584 3742 3212 
Q 4056 2841 4056 2131 
z
" transform="scale(0.015625)"/>
     <path id="DejaVuSans-Bold-75" d="M 500 1363 
L 500 3500 
L 1625 3500 
L 1625 3150 
Q 1625 2866 1622 2436 
Q 1619 2006 1619 1863 
Q 1619 1441 1641 1255 
Q 1663 1069 1716 984 
Q 1784 875 1895 815 
Q 2006 756 2150 756 
Q 2500 756 2700 1025 
Q 2900 1294 2900 1772 
L 2900 3500 
L 4019 3500 
L 4019 0 
L 2900 0 
L 2900 506 
Q 2647 200 2364 54 
Q 2081 -91 1741 -91 
Q 1134 -91 817 281 
Q 500 653 500 1363 
z
" transform="scale(0.015625)"/>
     <path id="DejaVuSans-Bold-2c" d="M 653 1209 
L 1778 1209 
L 1778 256 
L 1006 -909 
L 341 -909 
L 653 256 
L 653 1209 
z
" transform="scale(0.015625)"/>
     <path id="DejaVuSans-Bold-4d" d="M 588 4666 
L 2119 4666 
L 3181 2169 
L 4250 4666 
L 5778 4666 
L 5778 0 
L 4641 0 
L 4641 3413 
L 3566 897 
L 2803 897 
L 1728 3413 
L 1728 0 
L 588 0 
L 588 4666 
z
" transform="scale(0.015625)"/>
     <path id="DejaVuSans-Bold-62" d="M 2400 722 
Q 2759 722 2948 984 
Q 3138 1247 3138 1747 
Q 3138 2247 2948 2509 
Q 2759 2772 2400 2772 
Q 2041 2772 1848 2508 
Q 1656 2244 1656 1747 
Q 1656 1250 1848 986 
Q 2041 722 2400 722 
z
M 1656 2988 
Q 1888 3294 2169 3439 
Q 2450 3584 2816 3584 
Q 3463 3584 3878 3070 
Q 4294 2556 4294 1747 
Q 4294 938 3878 423 
Q 3463 -91 2816 -91 
Q 2450 -91 2169 54 
Q 1888 200 1656 506 
L 1656 0 
L 538 0 
L 538 4863 
L 1656 4863 
L 1656 2988 
z
" transform="scale(0.015625)"/>
    </defs>
    <use xlink:href="#DejaVuSans-Bold-45"/>
    <use xlink:href="#DejaVuSans-Bold-76" x="68.310547"/>
    <use xlink:href="#DejaVuSans-Bold-65" x="133.496094"/>
    <use xlink:href="#DejaVuSans-Bold-6e" x="201.318359"/>
    <use xlink:href="#DejaVuSans-Bold-20" x="272.509766"/>
    <use xlink:href="#DejaVuSans-Bold-57" x="307.324219"/>
    <use xlink:href="#DejaVuSans-Bold-69" x="417.626953"/>
    <use xlink:href="#DejaVuSans-Bold-74" x="451.904297"/>
    <use xlink:href="#DejaVuSans-Bold-68" x="499.707031"/>
    <use xlink:href="#DejaVuSans-Bold-20" x="570.898438"/>
    <use xlink:href="#DejaVuSans-Bold-43" x="605.712891"/>
    <use xlink:href="#DejaVuSans-Bold-6f" x="679.101562"/>
    <use xlink:href="#DejaVuSans-Bold-6e" x="747.802734"/>
    <use xlink:href="#DejaVuSans-Bold-73" x="818.994141"/>
    <use xlink:href="#DejaVuSans-Bold-65" x="878.515625"/>
    <use xlink:href="#DejaVuSans-Bold-72" x="946.337891"/>
    <use xlink:href="#DejaVuSans-Bold-76" x="995.654297"/>
    <use xlink:href="#DejaVuSans-Bold-61" x="1060.839844"/>
    <use xlink:href="#DejaVuSans-Bold-74" x="1128.320312"/>
    <use xlink:href="#DejaVuSans-Bold-69" x="1176.123047"/>
    <use xlink:href="#DejaVuSans-Bold-76" x="1210.400391"/>
    <use xlink:href="#DejaVuSans-Bold-65" x="1275.585938"/>
    <use xlink:href="#DejaVuSans-Bold-20" x="1343.408203"/>
    <use xlink:href="#DejaVuSans-Bold-41" x="1378.222656"/>
    <use xlink:href="#DejaVuSans-Bold-73" x="1455.615234"/>
    <use xlink:href="#DejaVuSans-Bold-73" x="1515.136719"/>
    <use xlink:href="#DejaVuSans-Bold-75" x="1574.658203"/>
    <use xlink:href="#DejaVuSans-Bold-6d" x="1645.849609"/>
    <use xlink:href="#DejaVuSans-Bold-70" x="1750.048828"/>
    <use xlink:href="#DejaVuSans-Bold-74" x="1821.630859"/>
    <use xlink:href="#DejaVuSans-Bold-69" x="1869.433594"/>
    <use xlink:href="#DejaVuSans-Bold-6f" x="1903.710938"/>
    <use xlink:href="#DejaVuSans-Bold-6e" x="1972.412109"/>
    <use xlink:href="#DejaVuSans-Bold-73" x="2043.603516"/>
    <use xlink:href="#DejaVuSans-Bold-2c" x="2103.125"/>
    <use xlink:href="#DejaVuSans-Bold-20" x="2141.113281"/>
    <use xlink:href="#DejaVuSans-Bold-53" x="2175.927734"/>
    <use xlink:href="#DejaVuSans-Bold-6d" x="2247.949219"/>
    <use xlink:href="#DejaVuSans-Bold-61" x="2352.148438"/>
    <use xlink:href="#DejaVuSans-Bold-6c" x="2419.628906"/>
    <use xlink:href="#DejaVuSans-Bold-6c" x="2453.90625"/>
    <use xlink:href="#DejaVuSans-Bold-20" x="2488.183594"/>
    <use xlink:href="#DejaVuSans-Bold-52" x="2522.998047"/>
    <use xlink:href="#DejaVuSans-Bold-65" x="2600"/>
    <use xlink:href="#DejaVuSans-Bold-77" x="2667.822266"/>
    <use xlink:href="#DejaVuSans-Bold-61" x="2760.205078"/>
    <use xlink:href="#DejaVuSans-Bold-72" x="2827.685547"/>
    <use xlink:href="#DejaVuSans-Bold-64" x="2877.001953"/>
    <use xlink:href="#DejaVuSans-Bold-73" x="2948.583984"/>
    <use xlink:href="#DejaVuSans-Bold-20" x="3008.105469"/>
    <use xlink:href="#DejaVuSans-Bold-41" x="3042.919922"/>
    <use xlink:href="#DejaVuSans-Bold-72" x="3120.3125"/>
    <use xlink:href="#DejaVuSans-Bold-65" x="3169.628906"/>
    <use xlink:href="#DejaVuSans-Bold-20" x="3237.451172"/>
    <use xlink:href="#DejaVuSans-Bold-4d" x="3272.265625"/>
    <use xlink:href="#DejaVuSans-Bold-61" x="3371.777344"/>
    <use xlink:href="#DejaVuSans-Bold-6e" x="3439.257812"/>
    <use xlink:href="#DejaVuSans-Bold-61" x="3510.449219"/>
    <use xlink:href="#DejaVuSans-Bold-67" x="3577.929688"/>
    <use xlink:href="#DejaVuSans-Bold-65" x="3649.511719"/>
    <use xlink:href="#DejaVuSans-Bold-61" x="3717.333984"/>
    <use xlink:href="#DejaVuSans-Bold-62" x="3784.814453"/>
    <use xlink:href="#DejaVuSans-Bold-6c" x="3856.396484"/>
    <use xlink:href="#DejaVuSans-Bold-65" x="3890.673828"/>
   </g>
  </g>
 </g>
 <defs>
  <clipPath id="p002e7d160a">
   <rect x="57.474063" y="74.16" width="506.3125" height="334.6"/>
  </clipPath>
  <clipPath id="pe2cc0b1326">
   <rect x="631.261562" y="74.16" width="506.3125" height="334.6"/>
  </clipPath>
 </defs>
</svg>
