<?xml version="1.0" encoding="utf-8" standalone="no"?>
<!DOCTYPE svg PUBLIC "-//W3C//DTD SVG 1.1//EN"
  "http://www.w3.org/Graphics/SVG/1.1/DTD/svg11.dtd">
<svg xmlns:xlink="http://www.w3.org/1999/xlink" width="1145.04375pt" height="516.404063pt" viewBox="0 0 1145.04375 516.404063" xmlns="http://www.w3.org/2000/svg" version="1.1">
 <metadata>
  <rdf:RDF xmlns:dc="http://purl.org/dc/elements/1.1/" xmlns:cc="http://creativecommons.org/ns#" xmlns:rdf="http://www.w3.org/1999/02/22-rdf-syntax-ns#">
   <cc:Work>
    <dc:type rdf:resource="http://purl.org/dc/dcmitype/StillImage"/>
    <dc:date>2026-04-14T09:20:27.713611</dc:date>
    <dc:format>image/svg+xml</dc:format>
    <dc:creator>
     <cc:Agent>
      <dc:title>Matplotlib v3.9.2, https://matplotlib.org/</dc:title>
     </cc:Agent>
    </dc:creator>
   </cc:Work>
  </rdf:RDF>
 </metadata>
 <defs>
  <style type="text/css">*{stroke-linejoin: round; stroke-linecap: butt}</style>
 </defs>
 <g id="figure_1">
  <g id="patch_1">
   <path d="M 0 516.404063 
L 1145.04375 516.404063 
L 1145.04375 0 
L 0 0 
z
" style="fill: #ffffff"/>
  </g>
  <g id="axes_1">
   <g id="patch_2">
    <path d="M 94.46875 477.88 
L 577.14375 477.88 
L 577.14375 71.28 
L 94.46875 71.28 
z
" style="fill: #ffffff"/>
   </g>
   <g id="patch_3">
    <path d="M 94.46875 89.761818 
L 554.159226 89.761818 
L 554.159226 108.477583 
L 94.46875 108.477583 
z
" clip-path="url(#p85234cbeea)" style="fill: #2878b5"/>
   </g>
   <g id="patch_4">
    <path d="M 94.46875 113.156525 
L 472.983115 113.156525 
L 472.983115 131.87229 
L 94.46875 131.87229 
z
" clip-path="url(#p85234cbeea)" style="fill: #2878b5"/>
   </g>
   <g id="patch_5">
    <path d="M 94.46875 136.551231 
L 459.761249 136.551231 
L 459.761249 155.266997 
L 94.46875 155.266997 
z
" clip-path="url(#p85234cbeea)" style="fill: #2878b5"/>
   </g>
   <g id="patch_6">
    <path d="M 94.46875 159.945938 
L 351.218949 159.945938 
L 351.218949 178.661703 
L 94.46875 178.661703 
z
" clip-path="url(#p85234cbeea)" style="fill: #2878b5"/>
   </g>
   <g id="patch_7">
    <path d="M 94.46875 183.340644 
L 285.417102 183.340644 
L 285.417102 202.05641 
L 94.46875 202.05641 
z
" clip-path="url(#p85234cbeea)" style="fill: #2878b5"/>
   </g>
   <g id="patch_8">
    <path d="M 94.46875 206.735351 
L 268.197927 206.735351 
L 268.197927 225.451116 
L 94.46875 225.451116 
z
" clip-path="url(#p85234cbeea)" style="fill: #2878b5"/>
   </g>
   <g id="patch_9">
    <path d="M 94.46875 230.130058 
L 202.396079 230.130058 
L 202.396079 248.845823 
L 94.46875 248.845823 
z
" clip-path="url(#p85234cbeea)" style="fill: #2878b5"/>
   </g>
   <g id="patch_10">
    <path d="M 94.46875 253.524764 
L 183.331993 253.524764 
L 183.331993 272.240529 
L 94.46875 272.240529 
z
" clip-path="url(#p85234cbeea)" style="fill: #2878b5"/>
   </g>
   <g id="patch_11">
    <path d="M 94.46875 276.919471 
L 182.102051 276.919471 
L 182.102051 295.635236 
L 94.46875 295.635236 
z
" clip-path="url(#p85234cbeea)" style="fill: #2878b5"/>
   </g>
   <g id="patch_12">
    <path d="M 94.46875 300.314177 
L 178.719714 300.314177 
L 178.719714 319.029942 
L 94.46875 319.029942 
z
" clip-path="url(#p85234cbeea)" style="fill: #2878b5"/>
   </g>
   <g id="patch_13">
    <path d="M 94.46875 323.708884 
L 164.882876 323.708884 
L 164.882876 342.424649 
L 94.46875 342.424649 
z
" clip-path="url(#p85234cbeea)" style="fill: #2878b5"/>
   </g>
   <g id="patch_14">
    <path d="M 94.46875 347.10359 
L 159.655627 347.10359 
L 159.655627 365.819356 
L 94.46875 365.819356 
z
" clip-path="url(#p85234cbeea)" style="fill: #2878b5"/>
   </g>
   <g id="patch_15">
    <path d="M 94.46875 370.498297 
L 138.439143 370.498297 
L 138.439143 389.214062 
L 94.46875 389.214062 
z
" clip-path="url(#p85234cbeea)" style="fill: #2878b5"/>
   </g>
   <g id="patch_16">
    <path d="M 94.46875 393.893003 
L 132.904409 393.893003 
L 132.904409 412.608769 
L 94.46875 412.608769 
z
" clip-path="url(#p85234cbeea)" style="fill: #2878b5"/>
   </g>
   <g id="patch_17">
    <path d="M 94.46875 417.28771 
L 113.532837 417.28771 
L 113.532837 436.003475 
L 94.46875 436.003475 
z
" clip-path="url(#p85234cbeea)" style="fill: #2878b5"/>
   </g>
   <g id="patch_18">
    <path d="M 94.46875 440.682417 
L 100.31097 440.682417 
L 100.31097 459.398182 
L 94.46875 459.398182 
z
" clip-path="url(#p85234cbeea)" style="fill: #2878b5"/>
   </g>
   <g id="matplotlib.axis_1">
    <g id="xtick_1">
     <g id="line2d_1">
      <defs>
       <path id="ma669922e8b" d="M 0 0 
L 0 3.5 
" style="stroke: #000000; stroke-width: 0.8"/>
      </defs>
      <g>
       <use xlink:href="#ma669922e8b" x="94.46875" y="477.88" style="stroke: #000000; stroke-width: 0.8"/>
      </g>
     </g>
     <g id="text_1">
      <!-- 0.0% -->
      <g transform="translate(81.766406 492.478438) scale(0.1 -0.1)">
       <defs>
        <path id="DejaVuSans-30" d="M 2034 4250 
Q 1547 4250 1301 3770 
Q 1056 3291 1056 2328 
Q 1056 1369 1301 889 
Q 1547 409 2034 409 
Q 2525 409 2770 889 
Q 3016 1369 3016 2328 
Q 3016 3291 2770 3770 
Q 2525 4250 2034 4250 
z
M 2034 4750 
Q 2819 4750 3233 4129 
Q 3647 3509 3647 2328 
Q 3647 1150 3233 529 
Q 2819 -91 2034 -91 
Q 1250 -91 836 529 
Q 422 1150 422 2328 
Q 422 3509 836 4129 
Q 1250 4750 2034 4750 
z
" transform="scale(0.015625)"/>
        <path id="DejaVuSans-2e" d="M 684 794 
L 1344 794 
L 1344 0 
L 684 0 
L 684 794 
z
" transform="scale(0.015625)"/>
        <path id="DejaVuSans-25" d="M 4653 2053 
Q 4381 2053 4226 1822 
Q 4072 1591 4072 1178 
Q 4072 772 4226 539 
Q 4381 306 4653 306 
Q 4919 306 5073 539 
Q 5228 772 5228 1178 
Q 5228 1588 5073 1820 
Q 4919 2053 4653 2053 
z
M 4653 2450 
Q 5147 2450 5437 2106 
Q 5728 1763 5728 1178 
Q 5728 594 5436 251 
Q 5144 -91 4653 -91 
Q 4153 -91 3862 251 
Q 3572 594 3572 1178 
Q 3572 1766 3864 2108 
Q 4156 2450 4653 2450 
z
M 1428 4353 
Q 1159 4353 1004 4120 
Q 850 3888 850 3481 
Q 850 3069 1003 2837 
Q 1156 2606 1428 2606 
Q 1700 2606 1854 2837 
Q 2009 3069 2009 3481 
Q 2009 3884 1853 4118 
Q 1697 4353 1428 4353 
z
M 4250 4750 
L 4750 4750 
L 1831 -91 
L 1331 -91 
L 4250 4750 
z
M 1428 4750 
Q 1922 4750 2215 4408 
Q 2509 4066 2509 3481 
Q 2509 2891 2217 2550 
Q 1925 2209 1428 2209 
Q 931 2209 642 2551 
Q 353 2894 353 3481 
Q 353 4063 643 4406 
Q 934 4750 1428 4750 
z
" transform="scale(0.015625)"/>
       </defs>
       <use xlink:href="#DejaVuSans-30"/>
       <use xlink:href="#DejaVuSans-2e" x="63.623047"/>
       <use xlink:href="#DejaVuSans-30" x="95.410156"/>
       <use xlink:href="#DejaVuSans-25" x="159.033203"/>
      </g>
     </g>
    </g>
    <g id="xtick_2">
     <g id="line2d_2">
      <g>
       <use xlink:href="#ma669922e8b" x="186.698956" y="477.88" style="stroke: #000000; stroke-width: 0.8"/>
      </g>
     </g>
     <g id="text_2">
      <!-- 5.0% -->
      <g transform="translate(173.996612 492.478438) scale(0.1 -0.1)">
       <defs>
        <path id="DejaVuSans-35" d="M 691 4666 
L 3169 4666 
L 3169 4134 
L 1269 4134 
L 1269 2991 
Q 1406 3038 1543 3061 
Q 1681 3084 1819 3084 
Q 2600 3084 3056 2656 
Q 3513 2228 3513 1497 
Q 3513 744 3044 326 
Q 2575 -91 1722 -91 
Q 1428 -91 1123 -41 
Q 819 9 494 109 
L 494 744 
Q 775 591 1075 516 
Q 1375 441 1709 441 
Q 2250 441 2565 725 
Q 2881 1009 2881 1497 
Q 2881 1984 2565 2268 
Q 2250 2553 1709 2553 
Q 1456 2553 1204 2497 
Q 953 2441 691 2322 
L 691 4666 
z
" transform="scale(0.015625)"/>
       </defs>
       <use xlink:href="#DejaVuSans-35"/>
       <use xlink:href="#DejaVuSans-2e" x="63.623047"/>
       <use xlink:href="#DejaVuSans-30" x="95.410156"/>
       <use xlink:href="#DejaVuSans-25" x="159.033203"/>
      </g>
     </g>
    </g>
    <g id="xtick_3">
     <g id="line2d_3">
      <g>
       <use xlink:href="#ma669922e8b" x="278.929162" y="477.88" style="stroke: #000000; stroke-width: 0.8"/>
      </g>
     </g>
     <g id="text_3">
      <!-- 10.0% -->
      <g transform="translate(263.045569 492.478438) scale(0.1 -0.1)">
       <defs>
        <path id="DejaVuSans-31" d="M 794 531 
L 1825 531 
L 1825 4091 
L 703 3866 
L 703 4441 
L 1819 4666 
L 2450 4666 
L 2450 531 
L 3481 531 
L 3481 0 
L 794 0 
L 794 531 
z
" transform="scale(0.015625)"/>
       </defs>
       <use xlink:href="#DejaVuSans-31"/>
       <use xlink:href="#DejaVuSans-30" x="63.623047"/>
       <use xlink:href="#DejaVuSans-2e" x="127.246094"/>
       <use xlink:href="#DejaVuSans-30" x="159.033203"/>
       <use xlink:href="#DejaVuSans-25" x="222.65625"/>
      </g>
     </g>
    </g>
    <g id="xtick_4">
     <g id="line2d_4">
      <g>
       <use xlink:href="#ma669922e8b" x="371.159369" y="477.88" style="stroke: #000000; stroke-width: 0.8"/>
      </g>
     </g>
     <g id="text_4">
      <!-- 15.0% -->
      <g transform="translate(355.275775 492.478438) scale(0.1 -0.1)">
       <use xlink:href="#DejaVuSans-31"/>
       <use xlink:href="#DejaVuSans-35" x="63.623047"/>
       <use xlink:href="#DejaVuSans-2e" x="127.246094"/>
       <use xlink:href="#DejaVuSans-30" x="159.033203"/>
       <use xlink:href="#DejaVuSans-25" x="222.65625"/>
      </g>
     </g>
    </g>
    <g id="xtick_5">
     <g id="line2d_5">
      <g>
       <use xlink:href="#ma669922e8b" x="463.389575" y="477.88" style="stroke: #000000; stroke-width: 0.8"/>
      </g>
     </g>
     <g id="text_5">
      <!-- 20.0% -->
      <g transform="translate(447.505981 492.478438) scale(0.1 -0.1)">
       <defs>
        <path id="DejaVuSans-32" d="M 1228 531 
L 3431 531 
L 3431 0 
L 469 0 
L 469 531 
Q 828 903 1448 1529 
Q 2069 2156 2228 2338 
Q 2531 2678 2651 2914 
Q 2772 3150 2772 3378 
Q 2772 3750 2511 3984 
Q 2250 4219 1831 4219 
Q 1534 4219 1204 4116 
Q 875 4013 500 3803 
L 500 4441 
Q 881 4594 1212 4672 
Q 1544 4750 1819 4750 
Q 2544 4750 2975 4387 
Q 3406 4025 3406 3419 
Q 3406 3131 3298 2873 
Q 3191 2616 2906 2266 
Q 2828 2175 2409 1742 
Q 1991 1309 1228 531 
z
" transform="scale(0.015625)"/>
       </defs>
       <use xlink:href="#DejaVuSans-32"/>
       <use xlink:href="#DejaVuSans-30" x="63.623047"/>
       <use xlink:href="#DejaVuSans-2e" x="127.246094"/>
       <use xlink:href="#DejaVuSans-30" x="159.033203"/>
       <use xlink:href="#DejaVuSans-25" x="222.65625"/>
      </g>
     </g>
    </g>
    <g id="xtick_6">
     <g id="line2d_6">
      <g>
       <use xlink:href="#ma669922e8b" x="555.619781" y="477.88" style="stroke: #000000; stroke-width: 0.8"/>
      </g>
     </g>
     <g id="text_6">
      <!-- 25.0% -->
      <g transform="translate(539.736187 492.478438) scale(0.1 -0.1)">
       <use xlink:href="#DejaVuSans-32"/>
       <use xlink:href="#DejaVuSans-35" x="63.623047"/>
       <use xlink:href="#DejaVuSans-2e" x="127.246094"/>
       <use xlink:href="#DejaVuSans-30" x="159.033203"/>
       <use xlink:href="#DejaVuSans-25" x="222.65625"/>
      </g>
     </g>
    </g>
    <g id="text_7">
     <!-- Share of all reviews mentioning the topic -->
     <g transform="translate(222.810469 506.916406) scale(0.11 -0.11)">
      <defs>
       <path id="DejaVuSans-53" d="M 3425 4513 
L 3425 3897 
Q 3066 4069 2747 4153 
Q 2428 4238 2131 4238 
Q 1616 4238 1336 4038 
Q 1056 3838 1056 3469 
Q 1056 3159 1242 3001 
Q 1428 2844 1947 2747 
L 2328 2669 
Q 3034 2534 3370 2195 
Q 3706 1856 3706 1288 
Q 3706 609 3251 259 
Q 2797 -91 1919 -91 
Q 1588 -91 1214 -16 
Q 841 59 441 206 
L 441 856 
Q 825 641 1194 531 
Q 1563 422 1919 422 
Q 2459 422 2753 634 
Q 3047 847 3047 1241 
Q 3047 1584 2836 1778 
Q 2625 1972 2144 2069 
L 1759 2144 
Q 1053 2284 737 2584 
Q 422 2884 422 3419 
Q 422 4038 858 4394 
Q 1294 4750 2059 4750 
Q 2388 4750 2728 4690 
Q 3069 4631 3425 4513 
z
" transform="scale(0.015625)"/>
       <path id="DejaVuSans-68" d="M 3513 2113 
L 3513 0 
L 2938 0 
L 2938 2094 
Q 2938 2591 2744 2837 
Q 2550 3084 2163 3084 
Q 1697 3084 1428 2787 
Q 1159 2491 1159 1978 
L 1159 0 
L 581 0 
L 581 4863 
L 1159 4863 
L 1159 2956 
Q 1366 3272 1645 3428 
Q 1925 3584 2291 3584 
Q 2894 3584 3203 3211 
Q 3513 2838 3513 2113 
z
" transform="scale(0.015625)"/>
       <path id="DejaVuSans-61" d="M 2194 1759 
Q 1497 1759 1228 1600 
Q 959 1441 959 1056 
Q 959 750 1161 570 
Q 1363 391 1709 391 
Q 2188 391 2477 730 
Q 2766 1069 2766 1631 
L 2766 1759 
L 2194 1759 
z
M 3341 1997 
L 3341 0 
L 2766 0 
L 2766 531 
Q 2569 213 2275 61 
Q 1981 -91 1556 -91 
Q 1019 -91 701 211 
Q 384 513 384 1019 
Q 384 1609 779 1909 
Q 1175 2209 1959 2209 
L 2766 2209 
L 2766 2266 
Q 2766 2663 2505 2880 
Q 2244 3097 1772 3097 
Q 1472 3097 1187 3025 
Q 903 2953 641 2809 
L 641 3341 
Q 956 3463 1253 3523 
Q 1550 3584 1831 3584 
Q 2591 3584 2966 3190 
Q 3341 2797 3341 1997 
z
" transform="scale(0.015625)"/>
       <path id="DejaVuSans-72" d="M 2631 2963 
Q 2534 3019 2420 3045 
Q 2306 3072 2169 3072 
Q 1681 3072 1420 2755 
Q 1159 2438 1159 1844 
L 1159 0 
L 581 0 
L 581 3500 
L 1159 3500 
L 1159 2956 
Q 1341 3275 1631 3429 
Q 1922 3584 2338 3584 
Q 2397 3584 2469 3576 
Q 2541 3569 2628 3553 
L 2631 2963 
z
" transform="scale(0.015625)"/>
       <path id="DejaVuSans-65" d="M 3597 1894 
L 3597 1613 
L 953 1613 
Q 991 1019 1311 708 
Q 1631 397 2203 397 
Q 2534 397 2845 478 
Q 3156 559 3463 722 
L 3463 178 
Q 3153 47 2828 -22 
Q 2503 -91 2169 -91 
Q 1331 -91 842 396 
Q 353 884 353 1716 
Q 353 2575 817 3079 
Q 1281 3584 2069 3584 
Q 2775 3584 3186 3129 
Q 3597 2675 3597 1894 
z
M 3022 2063 
Q 3016 2534 2758 2815 
Q 2500 3097 2075 3097 
Q 1594 3097 1305 2825 
Q 1016 2553 972 2059 
L 3022 2063 
z
" transform="scale(0.015625)"/>
       <path id="DejaVuSans-20" transform="scale(0.015625)"/>
       <path id="DejaVuSans-6f" d="M 1959 3097 
Q 1497 3097 1228 2736 
Q 959 2375 959 1747 
Q 959 1119 1226 758 
Q 1494 397 1959 397 
Q 2419 397 2687 759 
Q 2956 1122 2956 1747 
Q 2956 2369 2687 2733 
Q 2419 3097 1959 3097 
z
M 1959 3584 
Q 2709 3584 3137 3096 
Q 3566 2609 3566 1747 
Q 3566 888 3137 398 
Q 2709 -91 1959 -91 
Q 1206 -91 779 398 
Q 353 888 353 1747 
Q 353 2609 779 3096 
Q 1206 3584 1959 3584 
z
" transform="scale(0.015625)"/>
       <path id="DejaVuSans-66" d="M 2375 4863 
L 2375 4384 
L 1825 4384 
Q 1516 4384 1395 4259 
Q 1275 4134 1275 3809 
L 1275 3500 
L 2222 3500 
L 2222 3053 
L 1275 3053 
L 1275 0 
L 697 0 
L 697 3053 
L 147 3053 
L 147 3500 
L 697 3500 
L 697 3744 
Q 697 4328 969 4595 
Q 1241 4863 1831 4863 
L 2375 4863 
z
" transform="scale(0.015625)"/>
       <path id="DejaVuSans-6c" d="M 603 4863 
L 1178 4863 
L 1178 0 
L 603 0 
L 603 4863 
z
" transform="scale(0.015625)"/>
       <path id="DejaVuSans-76" d="M 191 3500 
L 800 3500 
L 1894 563 
L 2988 3500 
L 3597 3500 
L 2284 0 
L 1503 0 
L 191 3500 
z
" transform="scale(0.015625)"/>
       <path id="DejaVuSans-69" d="M 603 3500 
L 1178 3500 
L 1178 0 
L 603 0 
L 603 3500 
z
M 603 4863 
L 1178 4863 
L 1178 4134 
L 603 4134 
L 603 4863 
z
" transform="scale(0.015625)"/>
       <path id="DejaVuSans-77" d="M 269 3500 
L 844 3500 
L 1563 769 
L 2278 3500 
L 2956 3500 
L 3675 769 
L 4391 3500 
L 4966 3500 
L 4050 0 
L 3372 0 
L 2619 2869 
L 1863 0 
L 1184 0 
L 269 3500 
z
" transform="scale(0.015625)"/>
       <path id="DejaVuSans-73" d="M 2834 3397 
L 2834 2853 
Q 2591 2978 2328 3040 
Q 2066 3103 1784 3103 
Q 1356 3103 1142 2972 
Q 928 2841 928 2578 
Q 928 2378 1081 2264 
Q 1234 2150 1697 2047 
L 1894 2003 
Q 2506 1872 2764 1633 
Q 3022 1394 3022 966 
Q 3022 478 2636 193 
Q 2250 -91 1575 -91 
Q 1294 -91 989 -36 
Q 684 19 347 128 
L 347 722 
Q 666 556 975 473 
Q 1284 391 1588 391 
Q 1994 391 2212 530 
Q 2431 669 2431 922 
Q 2431 1156 2273 1281 
Q 2116 1406 1581 1522 
L 1381 1569 
Q 847 1681 609 1914 
Q 372 2147 372 2553 
Q 372 3047 722 3315 
Q 1072 3584 1716 3584 
Q 2034 3584 2315 3537 
Q 2597 3491 2834 3397 
z
" transform="scale(0.015625)"/>
       <path id="DejaVuSans-6d" d="M 3328 2828 
Q 3544 3216 3844 3400 
Q 4144 3584 4550 3584 
Q 5097 3584 5394 3201 
Q 5691 2819 5691 2113 
L 5691 0 
L 5113 0 
L 5113 2094 
Q 5113 2597 4934 2840 
Q 4756 3084 4391 3084 
Q 3944 3084 3684 2787 
Q 3425 2491 3425 1978 
L 3425 0 
L 2847 0 
L 2847 2094 
Q 2847 2600 2669 2842 
Q 2491 3084 2119 3084 
Q 1678 3084 1418 2786 
Q 1159 2488 1159 1978 
L 1159 0 
L 581 0 
L 581 3500 
L 1159 3500 
L 1159 2956 
Q 1356 3278 1631 3431 
Q 1906 3584 2284 3584 
Q 2666 3584 2933 3390 
Q 3200 3197 3328 2828 
z
" transform="scale(0.015625)"/>
       <path id="DejaVuSans-6e" d="M 3513 2113 
L 3513 0 
L 2938 0 
L 2938 2094 
Q 2938 2591 2744 2837 
Q 2550 3084 2163 3084 
Q 1697 3084 1428 2787 
Q 1159 2491 1159 1978 
L 1159 0 
L 581 0 
L 581 3500 
L 1159 3500 
L 1159 2956 
Q 1366 3272 1645 3428 
Q 1925 3584 2291 3584 
Q 2894 3584 3203 3211 
Q 3513 2838 3513 2113 
z
" transform="scale(0.015625)"/>
       <path id="DejaVuSans-74" d="M 1172 4494 
L 1172 3500 
L 2356 3500 
L 2356 3053 
L 1172 3053 
L 1172 1153 
Q 1172 725 1289 603 
Q 1406 481 1766 481 
L 2356 481 
L 2356 0 
L 1766 0 
Q 1100 0 847 248 
Q 594 497 594 1153 
L 594 3053 
L 172 3053 
L 172 3500 
L 594 3500 
L 594 4494 
L 1172 4494 
z
" transform="scale(0.015625)"/>
       <path id="DejaVuSans-67" d="M 2906 1791 
Q 2906 2416 2648 2759 
Q 2391 3103 1925 3103 
Q 1463 3103 1205 2759 
Q 947 2416 947 1791 
Q 947 1169 1205 825 
Q 1463 481 1925 481 
Q 2391 481 2648 825 
Q 2906 1169 2906 1791 
z
M 3481 434 
Q 3481 -459 3084 -895 
Q 2688 -1331 1869 -1331 
Q 1566 -1331 1297 -1286 
Q 1028 -1241 775 -1147 
L 775 -588 
Q 1028 -725 1275 -790 
Q 1522 -856 1778 -856 
Q 2344 -856 2625 -561 
Q 2906 -266 2906 331 
L 2906 616 
Q 2728 306 2450 153 
Q 2172 0 1784 0 
Q 1141 0 747 490 
Q 353 981 353 1791 
Q 353 2603 747 3093 
Q 1141 3584 1784 3584 
Q 2172 3584 2450 3431 
Q 2728 3278 2906 2969 
L 2906 3500 
L 3481 3500 
L 3481 434 
z
" transform="scale(0.015625)"/>
       <path id="DejaVuSans-70" d="M 1159 525 
L 1159 -1331 
L 581 -1331 
L 581 3500 
L 1159 3500 
L 1159 2969 
Q 1341 3281 1617 3432 
Q 1894 3584 2278 3584 
Q 2916 3584 3314 3078 
Q 3713 2572 3713 1747 
Q 3713 922 3314 415 
Q 2916 -91 2278 -91 
Q 1894 -91 1617 61 
Q 1341 213 1159 525 
z
M 3116 1747 
Q 3116 2381 2855 2742 
Q 2594 3103 2138 3103 
Q 1681 3103 1420 2742 
Q 1159 2381 1159 1747 
Q 1159 1113 1420 752 
Q 1681 391 2138 391 
Q 2594 391 2855 752 
Q 3116 1113 3116 1747 
z
" transform="scale(0.015625)"/>
       <path id="DejaVuSans-63" d="M 3122 3366 
L 3122 2828 
Q 2878 2963 2633 3030 
Q 2388 3097 2138 3097 
Q 1578 3097 1268 2742 
Q 959 2388 959 1747 
Q 959 1106 1268 751 
Q 1578 397 2138 397 
Q 2388 397 2633 464 
Q 2878 531 3122 666 
L 3122 134 
Q 2881 22 2623 -34 
Q 2366 -91 2075 -91 
Q 1284 -91 818 406 
Q 353 903 353 1747 
Q 353 2603 823 3093 
Q 1294 3584 2113 3584 
Q 2378 3584 2631 3529 
Q 2884 3475 3122 3366 
z
" transform="scale(0.015625)"/>
      </defs>
      <use xlink:href="#DejaVuSans-53"/>
      <use xlink:href="#DejaVuSans-68" x="63.476562"/>
      <use xlink:href="#DejaVuSans-61" x="126.855469"/>
      <use xlink:href="#DejaVuSans-72" x="188.134766"/>
      <use xlink:href="#DejaVuSans-65" x="226.998047"/>
      <use xlink:href="#DejaVuSans-20" x="288.521484"/>
      <use xlink:href="#DejaVuSans-6f" x="320.308594"/>
      <use xlink:href="#DejaVuSans-66" x="381.490234"/>
      <use xlink:href="#DejaVuSans-20" x="416.695312"/>
      <use xlink:href="#DejaVuSans-61" x="448.482422"/>
      <use xlink:href="#DejaVuSans-6c" x="509.761719"/>
      <use xlink:href="#DejaVuSans-6c" x="537.544922"/>
      <use xlink:href="#DejaVuSans-20" x="565.328125"/>
      <use xlink:href="#DejaVuSans-72" x="597.115234"/>
      <use xlink:href="#DejaVuSans-65" x="635.978516"/>
      <use xlink:href="#DejaVuSans-76" x="697.501953"/>
      <use xlink:href="#DejaVuSans-69" x="756.681641"/>
      <use xlink:href="#DejaVuSans-65" x="784.464844"/>
      <use xlink:href="#DejaVuSans-77" x="845.988281"/>
      <use xlink:href="#DejaVuSans-73" x="927.775391"/>
      <use xlink:href="#DejaVuSans-20" x="979.875"/>
      <use xlink:href="#DejaVuSans-6d" x="1011.662109"/>
      <use xlink:href="#DejaVuSans-65" x="1109.074219"/>
      <use xlink:href="#DejaVuSans-6e" x="1170.597656"/>
      <use xlink:href="#DejaVuSans-74" x="1233.976562"/>
      <use xlink:href="#DejaVuSans-69" x="1273.185547"/>
      <use xlink:href="#DejaVuSans-6f" x="1300.96875"/>
      <use xlink:href="#DejaVuSans-6e" x="1362.150391"/>
      <use xlink:href="#DejaVuSans-69" x="1425.529297"/>
      <use xlink:href="#DejaVuSans-6e" x="1453.3125"/>
      <use xlink:href="#DejaVuSans-67" x="1516.691406"/>
      <use xlink:href="#DejaVuSans-20" x="1580.167969"/>
      <use xlink:href="#DejaVuSans-74" x="1611.955078"/>
      <use xlink:href="#DejaVuSans-68" x="1651.164062"/>
      <use xlink:href="#DejaVuSans-65" x="1714.542969"/>
      <use xlink:href="#DejaVuSans-20" x="1776.066406"/>
      <use xlink:href="#DejaVuSans-74" x="1807.853516"/>
      <use xlink:href="#DejaVuSans-6f" x="1847.0625"/>
      <use xlink:href="#DejaVuSans-70" x="1908.244141"/>
      <use xlink:href="#DejaVuSans-69" x="1971.720703"/>
      <use xlink:href="#DejaVuSans-63" x="1999.503906"/>
     </g>
    </g>
   </g>
   <g id="matplotlib.axis_2">
    <g id="ytick_1">
     <g id="line2d_7">
      <defs>
       <path id="m9e77256621" d="M 0 0 
L -3.5 0 
" style="stroke: #000000; stroke-width: 0.8"/>
      </defs>
      <g>
       <use xlink:href="#m9e77256621" x="94.46875" y="99.119701" style="stroke: #000000; stroke-width: 0.8"/>
      </g>
     </g>
     <g id="text_8">
      <!-- service -->
      <g transform="translate(51.646875 102.91892) scale(0.1 -0.1)">
       <use xlink:href="#DejaVuSans-73"/>
       <use xlink:href="#DejaVuSans-65" x="52.099609"/>
       <use xlink:href="#DejaVuSans-72" x="113.623047"/>
       <use xlink:href="#DejaVuSans-76" x="154.736328"/>
       <use xlink:href="#DejaVuSans-69" x="213.916016"/>
       <use xlink:href="#DejaVuSans-63" x="241.699219"/>
       <use xlink:href="#DejaVuSans-65" x="296.679688"/>
      </g>
     </g>
    </g>
    <g id="ytick_2">
     <g id="line2d_8">
      <g>
       <use xlink:href="#m9e77256621" x="94.46875" y="122.514407" style="stroke: #000000; stroke-width: 0.8"/>
      </g>
     </g>
     <g id="text_9">
      <!-- location -->
      <g transform="translate(47.790625 126.313626) scale(0.1 -0.1)">
       <use xlink:href="#DejaVuSans-6c"/>
       <use xlink:href="#DejaVuSans-6f" x="27.783203"/>
       <use xlink:href="#DejaVuSans-63" x="88.964844"/>
       <use xlink:href="#DejaVuSans-61" x="143.945312"/>
       <use xlink:href="#DejaVuSans-74" x="205.224609"/>
       <use xlink:href="#DejaVuSans-69" x="244.433594"/>
       <use xlink:href="#DejaVuSans-6f" x="272.216797"/>
       <use xlink:href="#DejaVuSans-6e" x="333.398438"/>
      </g>
     </g>
    </g>
    <g id="ytick_3">
     <g id="line2d_9">
      <g>
       <use xlink:href="#m9e77256621" x="94.46875" y="145.909114" style="stroke: #000000; stroke-width: 0.8"/>
      </g>
     </g>
     <g id="text_10">
      <!-- cleanliness -->
      <g transform="translate(32.107813 149.708333) scale(0.1 -0.1)">
       <use xlink:href="#DejaVuSans-63"/>
       <use xlink:href="#DejaVuSans-6c" x="54.980469"/>
       <use xlink:href="#DejaVuSans-65" x="82.763672"/>
       <use xlink:href="#DejaVuSans-61" x="144.287109"/>
       <use xlink:href="#DejaVuSans-6e" x="205.566406"/>
       <use xlink:href="#DejaVuSans-6c" x="268.945312"/>
       <use xlink:href="#DejaVuSans-69" x="296.728516"/>
       <use xlink:href="#DejaVuSans-6e" x="324.511719"/>
       <use xlink:href="#DejaVuSans-65" x="387.890625"/>
       <use xlink:href="#DejaVuSans-73" x="449.414062"/>
       <use xlink:href="#DejaVuSans-73" x="501.513672"/>
      </g>
     </g>
    </g>
    <g id="ytick_4">
     <g id="line2d_10">
      <g>
       <use xlink:href="#m9e77256621" x="94.46875" y="169.30382" style="stroke: #000000; stroke-width: 0.8"/>
      </g>
     </g>
     <g id="text_11">
      <!-- pet -->
      <g transform="translate(71.046875 173.103039) scale(0.1 -0.1)">
       <use xlink:href="#DejaVuSans-70"/>
       <use xlink:href="#DejaVuSans-65" x="63.476562"/>
       <use xlink:href="#DejaVuSans-74" x="125"/>
      </g>
     </g>
    </g>
    <g id="ytick_5">
     <g id="line2d_11">
      <g>
       <use xlink:href="#m9e77256621" x="94.46875" y="192.698527" style="stroke: #000000; stroke-width: 0.8"/>
      </g>
     </g>
     <g id="text_12">
      <!-- comfort -->
      <g transform="translate(48.440625 196.497746) scale(0.1 -0.1)">
       <use xlink:href="#DejaVuSans-63"/>
       <use xlink:href="#DejaVuSans-6f" x="54.980469"/>
       <use xlink:href="#DejaVuSans-6d" x="116.162109"/>
       <use xlink:href="#DejaVuSans-66" x="213.574219"/>
       <use xlink:href="#DejaVuSans-6f" x="248.779297"/>
       <use xlink:href="#DejaVuSans-72" x="309.960938"/>
       <use xlink:href="#DejaVuSans-74" x="351.074219"/>
      </g>
     </g>
    </g>
    <g id="ytick_6">
     <g id="line2d_12">
      <g>
       <use xlink:href="#m9e77256621" x="94.46875" y="216.093234" style="stroke: #000000; stroke-width: 0.8"/>
      </g>
     </g>
     <g id="text_13">
      <!-- breakfast -->
      <g transform="translate(40.384375 219.892452) scale(0.1 -0.1)">
       <defs>
        <path id="DejaVuSans-62" d="M 3116 1747 
Q 3116 2381 2855 2742 
Q 2594 3103 2138 3103 
Q 1681 3103 1420 2742 
Q 1159 2381 1159 1747 
Q 1159 1113 1420 752 
Q 1681 391 2138 391 
Q 2594 391 2855 752 
Q 3116 1113 3116 1747 
z
M 1159 2969 
Q 1341 3281 1617 3432 
Q 1894 3584 2278 3584 
Q 2916 3584 3314 3078 
Q 3713 2572 3713 1747 
Q 3713 922 3314 415 
Q 2916 -91 2278 -91 
Q 1894 -91 1617 61 
Q 1341 213 1159 525 
L 1159 0 
L 581 0 
L 581 4863 
L 1159 4863 
L 1159 2969 
z
" transform="scale(0.015625)"/>
        <path id="DejaVuSans-6b" d="M 581 4863 
L 1159 4863 
L 1159 1991 
L 2875 3500 
L 3609 3500 
L 1753 1863 
L 3688 0 
L 2938 0 
L 1159 1709 
L 1159 0 
L 581 0 
L 581 4863 
z
" transform="scale(0.015625)"/>
       </defs>
       <use xlink:href="#DejaVuSans-62"/>
       <use xlink:href="#DejaVuSans-72" x="63.476562"/>
       <use xlink:href="#DejaVuSans-65" x="102.339844"/>
       <use xlink:href="#DejaVuSans-61" x="163.863281"/>
       <use xlink:href="#DejaVuSans-6b" x="225.142578"/>
       <use xlink:href="#DejaVuSans-66" x="283.052734"/>
       <use xlink:href="#DejaVuSans-61" x="318.257812"/>
       <use xlink:href="#DejaVuSans-73" x="379.537109"/>
       <use xlink:href="#DejaVuSans-74" x="431.636719"/>
      </g>
     </g>
    </g>
    <g id="ytick_7">
     <g id="line2d_13">
      <g>
       <use xlink:href="#m9e77256621" x="94.46875" y="239.48794" style="stroke: #000000; stroke-width: 0.8"/>
      </g>
     </g>
     <g id="text_14">
      <!-- noise -->
      <g transform="translate(60.871875 243.287159) scale(0.1 -0.1)">
       <use xlink:href="#DejaVuSans-6e"/>
       <use xlink:href="#DejaVuSans-6f" x="63.378906"/>
       <use xlink:href="#DejaVuSans-69" x="124.560547"/>
       <use xlink:href="#DejaVuSans-73" x="152.34375"/>
       <use xlink:href="#DejaVuSans-65" x="204.443359"/>
      </g>
     </g>
    </g>
    <g id="ytick_8">
     <g id="line2d_14">
      <g>
       <use xlink:href="#m9e77256621" x="94.46875" y="262.882647" style="stroke: #000000; stroke-width: 0.8"/>
      </g>
     </g>
     <g id="text_15">
      <!-- eco -->
      <g transform="translate(69.698438 266.681865) scale(0.1 -0.1)">
       <use xlink:href="#DejaVuSans-65"/>
       <use xlink:href="#DejaVuSans-63" x="61.523438"/>
       <use xlink:href="#DejaVuSans-6f" x="116.503906"/>
      </g>
     </g>
    </g>
    <g id="ytick_9">
     <g id="line2d_15">
      <g>
       <use xlink:href="#m9e77256621" x="94.46875" y="286.277353" style="stroke: #000000; stroke-width: 0.8"/>
      </g>
     </g>
     <g id="text_16">
      <!-- value -->
      <g transform="translate(60.153125 290.076572) scale(0.1 -0.1)">
       <defs>
        <path id="DejaVuSans-75" d="M 544 1381 
L 544 3500 
L 1119 3500 
L 1119 1403 
Q 1119 906 1312 657 
Q 1506 409 1894 409 
Q 2359 409 2629 706 
Q 2900 1003 2900 1516 
L 2900 3500 
L 3475 3500 
L 3475 0 
L 2900 0 
L 2900 538 
Q 2691 219 2414 64 
Q 2138 -91 1772 -91 
Q 1169 -91 856 284 
Q 544 659 544 1381 
z
M 1991 3584 
L 1991 3584 
z
" transform="scale(0.015625)"/>
       </defs>
       <use xlink:href="#DejaVuSans-76"/>
       <use xlink:href="#DejaVuSans-61" x="59.179688"/>
       <use xlink:href="#DejaVuSans-6c" x="120.458984"/>
       <use xlink:href="#DejaVuSans-75" x="148.242188"/>
       <use xlink:href="#DejaVuSans-65" x="211.621094"/>
      </g>
     </g>
    </g>
    <g id="ytick_10">
     <g id="line2d_16">
      <g>
       <use xlink:href="#m9e77256621" x="94.46875" y="309.67206" style="stroke: #000000; stroke-width: 0.8"/>
      </g>
     </g>
     <g id="text_17">
      <!-- pool -->
      <g transform="translate(66.104688 313.471279) scale(0.1 -0.1)">
       <use xlink:href="#DejaVuSans-70"/>
       <use xlink:href="#DejaVuSans-6f" x="63.476562"/>
       <use xlink:href="#DejaVuSans-6f" x="124.658203"/>
       <use xlink:href="#DejaVuSans-6c" x="185.839844"/>
      </g>
     </g>
    </g>
    <g id="ytick_11">
     <g id="line2d_17">
      <g>
       <use xlink:href="#m9e77256621" x="94.46875" y="333.066766" style="stroke: #000000; stroke-width: 0.8"/>
      </g>
     </g>
     <g id="text_18">
      <!-- parking -->
      <g transform="translate(49.626563 336.865985) scale(0.1 -0.1)">
       <use xlink:href="#DejaVuSans-70"/>
       <use xlink:href="#DejaVuSans-61" x="63.476562"/>
       <use xlink:href="#DejaVuSans-72" x="124.755859"/>
       <use xlink:href="#DejaVuSans-6b" x="165.869141"/>
       <use xlink:href="#DejaVuSans-69" x="223.779297"/>
       <use xlink:href="#DejaVuSans-6e" x="251.5625"/>
       <use xlink:href="#DejaVuSans-67" x="314.941406"/>
      </g>
     </g>
    </g>
    <g id="ytick_12">
     <g id="line2d_18">
      <g>
       <use xlink:href="#m9e77256621" x="94.46875" y="356.461473" style="stroke: #000000; stroke-width: 0.8"/>
      </g>
     </g>
     <g id="text_19">
      <!-- checkin -->
      <g transform="translate(49.075 360.260692) scale(0.1 -0.1)">
       <use xlink:href="#DejaVuSans-63"/>
       <use xlink:href="#DejaVuSans-68" x="54.980469"/>
       <use xlink:href="#DejaVuSans-65" x="118.359375"/>
       <use xlink:href="#DejaVuSans-63" x="179.882812"/>
       <use xlink:href="#DejaVuSans-6b" x="234.863281"/>
       <use xlink:href="#DejaVuSans-69" x="292.773438"/>
       <use xlink:href="#DejaVuSans-6e" x="320.556641"/>
      </g>
     </g>
    </g>
    <g id="ytick_13">
     <g id="line2d_19">
      <g>
       <use xlink:href="#m9e77256621" x="94.46875" y="379.85618" style="stroke: #000000; stroke-width: 0.8"/>
      </g>
     </g>
     <g id="text_20">
      <!-- family -->
      <g transform="translate(56.604688 383.655398) scale(0.1 -0.1)">
       <defs>
        <path id="DejaVuSans-79" d="M 2059 -325 
Q 1816 -950 1584 -1140 
Q 1353 -1331 966 -1331 
L 506 -1331 
L 506 -850 
L 844 -850 
Q 1081 -850 1212 -737 
Q 1344 -625 1503 -206 
L 1606 56 
L 191 3500 
L 800 3500 
L 1894 763 
L 2988 3500 
L 3597 3500 
L 2059 -325 
z
" transform="scale(0.015625)"/>
       </defs>
       <use xlink:href="#DejaVuSans-66"/>
       <use xlink:href="#DejaVuSans-61" x="35.205078"/>
       <use xlink:href="#DejaVuSans-6d" x="96.484375"/>
       <use xlink:href="#DejaVuSans-69" x="193.896484"/>
       <use xlink:href="#DejaVuSans-6c" x="221.679688"/>
       <use xlink:href="#DejaVuSans-79" x="249.462891"/>
      </g>
     </g>
    </g>
    <g id="ytick_14">
     <g id="line2d_20">
      <g>
       <use xlink:href="#m9e77256621" x="94.46875" y="403.250886" style="stroke: #000000; stroke-width: 0.8"/>
      </g>
     </g>
     <g id="text_21">
      <!-- accessibility -->
      <g transform="translate(26.471875 407.050105) scale(0.1 -0.1)">
       <use xlink:href="#DejaVuSans-61"/>
       <use xlink:href="#DejaVuSans-63" x="61.279297"/>
       <use xlink:href="#DejaVuSans-63" x="116.259766"/>
       <use xlink:href="#DejaVuSans-65" x="171.240234"/>
       <use xlink:href="#DejaVuSans-73" x="232.763672"/>
       <use xlink:href="#DejaVuSans-73" x="284.863281"/>
       <use xlink:href="#DejaVuSans-69" x="336.962891"/>
       <use xlink:href="#DejaVuSans-62" x="364.746094"/>
       <use xlink:href="#DejaVuSans-69" x="428.222656"/>
       <use xlink:href="#DejaVuSans-6c" x="456.005859"/>
       <use xlink:href="#DejaVuSans-69" x="483.789062"/>
       <use xlink:href="#DejaVuSans-74" x="511.572266"/>
       <use xlink:href="#DejaVuSans-79" x="550.78125"/>
      </g>
     </g>
    </g>
    <g id="ytick_15">
     <g id="line2d_21">
      <g>
       <use xlink:href="#m9e77256621" x="94.46875" y="426.645593" style="stroke: #000000; stroke-width: 0.8"/>
      </g>
     </g>
     <g id="text_22">
      <!-- wifi -->
      <g transform="translate(70.214063 430.444811) scale(0.1 -0.1)">
       <use xlink:href="#DejaVuSans-77"/>
       <use xlink:href="#DejaVuSans-69" x="81.787109"/>
       <use xlink:href="#DejaVuSans-66" x="109.570312"/>
       <use xlink:href="#DejaVuSans-69" x="144.775391"/>
      </g>
     </g>
    </g>
    <g id="ytick_16">
     <g id="line2d_22">
      <g>
       <use xlink:href="#m9e77256621" x="94.46875" y="450.040299" style="stroke: #000000; stroke-width: 0.8"/>
      </g>
     </g>
     <g id="text_23">
      <!-- listing_accuracy -->
      <g transform="translate(7.2 453.839518) scale(0.1 -0.1)">
       <defs>
        <path id="DejaVuSans-5f" d="M 3263 -1063 
L 3263 -1509 
L -63 -1509 
L -63 -1063 
L 3263 -1063 
z
" transform="scale(0.015625)"/>
       </defs>
       <use xlink:href="#DejaVuSans-6c"/>
       <use xlink:href="#DejaVuSans-69" x="27.783203"/>
       <use xlink:href="#DejaVuSans-73" x="55.566406"/>
       <use xlink:href="#DejaVuSans-74" x="107.666016"/>
       <use xlink:href="#DejaVuSans-69" x="146.875"/>
       <use xlink:href="#DejaVuSans-6e" x="174.658203"/>
       <use xlink:href="#DejaVuSans-67" x="238.037109"/>
       <use xlink:href="#DejaVuSans-5f" x="301.513672"/>
       <use xlink:href="#DejaVuSans-61" x="351.513672"/>
       <use xlink:href="#DejaVuSans-63" x="412.792969"/>
       <use xlink:href="#DejaVuSans-63" x="467.773438"/>
       <use xlink:href="#DejaVuSans-75" x="522.753906"/>
       <use xlink:href="#DejaVuSans-72" x="586.132812"/>
       <use xlink:href="#DejaVuSans-61" x="627.246094"/>
       <use xlink:href="#DejaVuSans-63" x="688.525391"/>
       <use xlink:href="#DejaVuSans-79" x="743.505859"/>
      </g>
     </g>
    </g>
   </g>
   <g id="patch_19">
    <path d="M 94.46875 477.88 
L 94.46875 71.28 
" style="fill: none; stroke: #000000; stroke-width: 0.8; stroke-linejoin: miter; stroke-linecap: square"/>
   </g>
   <g id="patch_20">
    <path d="M 94.46875 477.88 
L 577.14375 477.88 
" style="fill: none; stroke: #000000; stroke-width: 0.8; stroke-linejoin: miter; stroke-linecap: square"/>
   </g>
   <g id="text_24">
    <!-- How Often Key Topics Appear in Review Text -->
    <g transform="translate(160.0275 65.28) scale(0.14 -0.14)">
     <defs>
      <path id="DejaVuSans-Bold-48" d="M 588 4666 
L 1791 4666 
L 1791 2888 
L 3566 2888 
L 3566 4666 
L 4769 4666 
L 4769 0 
L 3566 0 
L 3566 1978 
L 1791 1978 
L 1791 0 
L 588 0 
L 588 4666 
z
" transform="scale(0.015625)"/>
      <path id="DejaVuSans-Bold-6f" d="M 2203 2784 
Q 1831 2784 1636 2517 
Q 1441 2250 1441 1747 
Q 1441 1244 1636 976 
Q 1831 709 2203 709 
Q 2569 709 2762 976 
Q 2956 1244 2956 1747 
Q 2956 2250 2762 2517 
Q 2569 2784 2203 2784 
z
M 2203 3584 
Q 3106 3584 3614 3096 
Q 4122 2609 4122 1747 
Q 4122 884 3614 396 
Q 3106 -91 2203 -91 
Q 1297 -91 786 396 
Q 275 884 275 1747 
Q 275 2609 786 3096 
Q 1297 3584 2203 3584 
z
" transform="scale(0.015625)"/>
      <path id="DejaVuSans-Bold-77" d="M 225 3500 
L 1313 3500 
L 1900 1088 
L 2491 3500 
L 3425 3500 
L 4013 1113 
L 4603 3500 
L 5691 3500 
L 4769 0 
L 3547 0 
L 2956 2406 
L 2369 0 
L 1147 0 
L 225 3500 
z
" transform="scale(0.015625)"/>
      <path id="DejaVuSans-Bold-20" transform="scale(0.015625)"/>
      <path id="DejaVuSans-Bold-4f" d="M 2719 3878 
Q 2169 3878 1866 3472 
Q 1563 3066 1563 2328 
Q 1563 1594 1866 1187 
Q 2169 781 2719 781 
Q 3272 781 3575 1187 
Q 3878 1594 3878 2328 
Q 3878 3066 3575 3472 
Q 3272 3878 2719 3878 
z
M 2719 4750 
Q 3844 4750 4481 4106 
Q 5119 3463 5119 2328 
Q 5119 1197 4481 553 
Q 3844 -91 2719 -91 
Q 1597 -91 958 553 
Q 319 1197 319 2328 
Q 319 3463 958 4106 
Q 1597 4750 2719 4750 
z
" transform="scale(0.015625)"/>
      <path id="DejaVuSans-Bold-66" d="M 2841 4863 
L 2841 4128 
L 2222 4128 
Q 1984 4128 1890 4042 
Q 1797 3956 1797 3744 
L 1797 3500 
L 2753 3500 
L 2753 2700 
L 1797 2700 
L 1797 0 
L 678 0 
L 678 2700 
L 122 2700 
L 122 3500 
L 678 3500 
L 678 3744 
Q 678 4316 997 4589 
Q 1316 4863 1984 4863 
L 2841 4863 
z
" transform="scale(0.015625)"/>
      <path id="DejaVuSans-Bold-74" d="M 1759 4494 
L 1759 3500 
L 2913 3500 
L 2913 2700 
L 1759 2700 
L 1759 1216 
Q 1759 972 1856 886 
Q 1953 800 2241 800 
L 2816 800 
L 2816 0 
L 1856 0 
Q 1194 0 917 276 
Q 641 553 641 1216 
L 641 2700 
L 84 2700 
L 84 3500 
L 641 3500 
L 641 4494 
L 1759 4494 
z
" transform="scale(0.015625)"/>
      <path id="DejaVuSans-Bold-65" d="M 4031 1759 
L 4031 1441 
L 1416 1441 
Q 1456 1047 1700 850 
Q 1944 653 2381 653 
Q 2734 653 3104 758 
Q 3475 863 3866 1075 
L 3866 213 
Q 3469 63 3072 -14 
Q 2675 -91 2278 -91 
Q 1328 -91 801 392 
Q 275 875 275 1747 
Q 275 2603 792 3093 
Q 1309 3584 2216 3584 
Q 3041 3584 3536 3087 
Q 4031 2591 4031 1759 
z
M 2881 2131 
Q 2881 2450 2695 2645 
Q 2509 2841 2209 2841 
Q 1884 2841 1681 2658 
Q 1478 2475 1428 2131 
L 2881 2131 
z
" transform="scale(0.015625)"/>
      <path id="DejaVuSans-Bold-6e" d="M 4056 2131 
L 4056 0 
L 2931 0 
L 2931 347 
L 2931 1631 
Q 2931 2084 2911 2256 
Q 2891 2428 2841 2509 
Q 2775 2619 2662 2680 
Q 2550 2741 2406 2741 
Q 2056 2741 1856 2470 
Q 1656 2200 1656 1722 
L 1656 0 
L 538 0 
L 538 3500 
L 1656 3500 
L 1656 2988 
Q 1909 3294 2193 3439 
Q 2478 3584 2822 3584 
Q 3428 3584 3742 3212 
Q 4056 2841 4056 2131 
z
" transform="scale(0.015625)"/>
      <path id="DejaVuSans-Bold-4b" d="M 588 4666 
L 1791 4666 
L 1791 2963 
L 3525 4666 
L 4922 4666 
L 2675 2456 
L 5153 0 
L 3647 0 
L 1791 1838 
L 1791 0 
L 588 0 
L 588 4666 
z
" transform="scale(0.015625)"/>
      <path id="DejaVuSans-Bold-79" d="M 78 3500 
L 1197 3500 
L 2138 1125 
L 2938 3500 
L 4056 3500 
L 2584 -331 
Q 2363 -916 2067 -1148 
Q 1772 -1381 1288 -1381 
L 641 -1381 
L 641 -647 
L 991 -647 
Q 1275 -647 1404 -556 
Q 1534 -466 1606 -231 
L 1638 -134 
L 78 3500 
z
" transform="scale(0.015625)"/>
      <path id="DejaVuSans-Bold-54" d="M 31 4666 
L 4331 4666 
L 4331 3756 
L 2784 3756 
L 2784 0 
L 1581 0 
L 1581 3756 
L 31 3756 
L 31 4666 
z
" transform="scale(0.015625)"/>
      <path id="DejaVuSans-Bold-70" d="M 1656 506 
L 1656 -1331 
L 538 -1331 
L 538 3500 
L 1656 3500 
L 1656 2988 
Q 1888 3294 2169 3439 
Q 2450 3584 2816 3584 
Q 3463 3584 3878 3070 
Q 4294 2556 4294 1747 
Q 4294 938 3878 423 
Q 3463 -91 2816 -91 
Q 2450 -91 2169 54 
Q 1888 200 1656 506 
z
M 2400 2772 
Q 2041 2772 1848 2508 
Q 1656 2244 1656 1747 
Q 1656 1250 1848 986 
Q 2041 722 2400 722 
Q 2759 722 2948 984 
Q 3138 1247 3138 1747 
Q 3138 2247 2948 2509 
Q 2759 2772 2400 2772 
z
" transform="scale(0.015625)"/>
      <path id="DejaVuSans-Bold-69" d="M 538 3500 
L 1656 3500 
L 1656 0 
L 538 0 
L 538 3500 
z
M 538 4863 
L 1656 4863 
L 1656 3950 
L 538 3950 
L 538 4863 
z
" transform="scale(0.015625)"/>
      <path id="DejaVuSans-Bold-63" d="M 3366 3391 
L 3366 2478 
Q 3138 2634 2908 2709 
Q 2678 2784 2431 2784 
Q 1963 2784 1702 2511 
Q 1441 2238 1441 1747 
Q 1441 1256 1702 982 
Q 1963 709 2431 709 
Q 2694 709 2930 787 
Q 3166 866 3366 1019 
L 3366 103 
Q 3103 6 2833 -42 
Q 2563 -91 2291 -91 
Q 1344 -91 809 395 
Q 275 881 275 1747 
Q 275 2613 809 3098 
Q 1344 3584 2291 3584 
Q 2566 3584 2833 3536 
Q 3100 3488 3366 3391 
z
" transform="scale(0.015625)"/>
      <path id="DejaVuSans-Bold-73" d="M 3272 3391 
L 3272 2541 
Q 2913 2691 2578 2766 
Q 2244 2841 1947 2841 
Q 1628 2841 1473 2761 
Q 1319 2681 1319 2516 
Q 1319 2381 1436 2309 
Q 1553 2238 1856 2203 
L 2053 2175 
Q 2913 2066 3209 1816 
Q 3506 1566 3506 1031 
Q 3506 472 3093 190 
Q 2681 -91 1863 -91 
Q 1516 -91 1145 -36 
Q 775 19 384 128 
L 384 978 
Q 719 816 1070 734 
Q 1422 653 1784 653 
Q 2113 653 2278 743 
Q 2444 834 2444 1013 
Q 2444 1163 2330 1236 
Q 2216 1309 1875 1350 
L 1678 1375 
Q 931 1469 631 1722 
Q 331 1975 331 2491 
Q 331 3047 712 3315 
Q 1094 3584 1881 3584 
Q 2191 3584 2531 3537 
Q 2872 3491 3272 3391 
z
" transform="scale(0.015625)"/>
      <path id="DejaVuSans-Bold-41" d="M 3419 850 
L 1538 850 
L 1241 0 
L 31 0 
L 1759 4666 
L 3194 4666 
L 4922 0 
L 3713 0 
L 3419 850 
z
M 1838 1716 
L 3116 1716 
L 2478 3572 
L 1838 1716 
z
" transform="scale(0.015625)"/>
      <path id="DejaVuSans-Bold-61" d="M 2106 1575 
Q 1756 1575 1579 1456 
Q 1403 1338 1403 1106 
Q 1403 894 1545 773 
Q 1688 653 1941 653 
Q 2256 653 2472 879 
Q 2688 1106 2688 1447 
L 2688 1575 
L 2106 1575 
z
M 3816 1997 
L 3816 0 
L 2688 0 
L 2688 519 
Q 2463 200 2181 54 
Q 1900 -91 1497 -91 
Q 953 -91 614 226 
Q 275 544 275 1050 
Q 275 1666 698 1953 
Q 1122 2241 2028 2241 
L 2688 2241 
L 2688 2328 
Q 2688 2594 2478 2717 
Q 2269 2841 1825 2841 
Q 1466 2841 1156 2769 
Q 847 2697 581 2553 
L 581 3406 
Q 941 3494 1303 3539 
Q 1666 3584 2028 3584 
Q 2975 3584 3395 3211 
Q 3816 2838 3816 1997 
z
" transform="scale(0.015625)"/>
      <path id="DejaVuSans-Bold-72" d="M 3138 2547 
Q 2991 2616 2845 2648 
Q 2700 2681 2553 2681 
Q 2122 2681 1889 2404 
Q 1656 2128 1656 1613 
L 1656 0 
L 538 0 
L 538 3500 
L 1656 3500 
L 1656 2925 
Q 1872 3269 2151 3426 
Q 2431 3584 2822 3584 
Q 2878 3584 2943 3579 
Q 3009 3575 3134 3559 
L 3138 2547 
z
" transform="scale(0.015625)"/>
      <path id="DejaVuSans-Bold-52" d="M 2297 2597 
Q 2675 2597 2839 2737 
Q 3003 2878 3003 3200 
Q 3003 3519 2839 3656 
Q 2675 3794 2297 3794 
L 1791 3794 
L 1791 2597 
L 2297 2597 
z
M 1791 1766 
L 1791 0 
L 588 0 
L 588 4666 
L 2425 4666 
Q 3347 4666 3776 4356 
Q 4206 4047 4206 3378 
Q 4206 2916 3982 2619 
Q 3759 2322 3309 2181 
Q 3556 2125 3751 1926 
Q 3947 1728 4147 1325 
L 4800 0 
L 3519 0 
L 2950 1159 
Q 2778 1509 2601 1637 
Q 2425 1766 2131 1766 
L 1791 1766 
z
" transform="scale(0.015625)"/>
      <path id="DejaVuSans-Bold-76" d="M 97 3500 
L 1216 3500 
L 2088 1081 
L 2956 3500 
L 4078 3500 
L 2700 0 
L 1472 0 
L 97 3500 
z
" transform="scale(0.015625)"/>
      <path id="DejaVuSans-Bold-78" d="M 1422 1791 
L 159 3500 
L 1344 3500 
L 2059 2463 
L 2784 3500 
L 3969 3500 
L 2706 1797 
L 4031 0 
L 2847 0 
L 2059 1106 
L 1281 0 
L 97 0 
L 1422 1791 
z
" transform="scale(0.015625)"/>
     </defs>
     <use xlink:href="#DejaVuSans-Bold-48"/>
     <use xlink:href="#DejaVuSans-Bold-6f" x="83.691406"/>
     <use xlink:href="#DejaVuSans-Bold-77" x="152.392578"/>
     <use xlink:href="#DejaVuSans-Bold-20" x="244.775391"/>
     <use xlink:href="#DejaVuSans-Bold-4f" x="279.589844"/>
     <use xlink:href="#DejaVuSans-Bold-66" x="364.599609"/>
     <use xlink:href="#DejaVuSans-Bold-74" x="408.105469"/>
     <use xlink:href="#DejaVuSans-Bold-65" x="455.908203"/>
     <use xlink:href="#DejaVuSans-Bold-6e" x="523.730469"/>
     <use xlink:href="#DejaVuSans-Bold-20" x="594.921875"/>
     <use xlink:href="#DejaVuSans-Bold-4b" x="629.736328"/>
     <use xlink:href="#DejaVuSans-Bold-65" x="705.476562"/>
     <use xlink:href="#DejaVuSans-Bold-79" x="773.298828"/>
     <use xlink:href="#DejaVuSans-Bold-20" x="838.484375"/>
     <use xlink:href="#DejaVuSans-Bold-54" x="873.298828"/>
     <use xlink:href="#DejaVuSans-Bold-6f" x="928.261719"/>
     <use xlink:href="#DejaVuSans-Bold-70" x="996.962891"/>
     <use xlink:href="#DejaVuSans-Bold-69" x="1068.544922"/>
     <use xlink:href="#DejaVuSans-Bold-63" x="1102.822266"/>
     <use xlink:href="#DejaVuSans-Bold-73" x="1162.099609"/>
     <use xlink:href="#DejaVuSans-Bold-20" x="1221.621094"/>
     <use xlink:href="#DejaVuSans-Bold-41" x="1256.435547"/>
     <use xlink:href="#DejaVuSans-Bold-70" x="1333.828125"/>
     <use xlink:href="#DejaVuSans-Bold-70" x="1405.410156"/>
     <use xlink:href="#DejaVuSans-Bold-65" x="1476.992188"/>
     <use xlink:href="#DejaVuSans-Bold-61" x="1544.814453"/>
     <use xlink:href="#DejaVuSans-Bold-72" x="1612.294922"/>
     <use xlink:href="#DejaVuSans-Bold-20" x="1661.611328"/>
     <use xlink:href="#DejaVuSans-Bold-69" x="1696.425781"/>
     <use xlink:href="#DejaVuSans-Bold-6e" x="1730.703125"/>
     <use xlink:href="#DejaVuSans-Bold-20" x="1801.894531"/>
     <use xlink:href="#DejaVuSans-Bold-52" x="1836.708984"/>
     <use xlink:href="#DejaVuSans-Bold-65" x="1913.710938"/>
     <use xlink:href="#DejaVuSans-Bold-76" x="1981.533203"/>
     <use xlink:href="#DejaVuSans-Bold-69" x="2046.71875"/>
     <use xlink:href="#DejaVuSans-Bold-65" x="2080.996094"/>
     <use xlink:href="#DejaVuSans-Bold-77" x="2148.818359"/>
     <use xlink:href="#DejaVuSans-Bold-20" x="2241.201172"/>
     <use xlink:href="#DejaVuSans-Bold-54" x="2276.015625"/>
     <use xlink:href="#DejaVuSans-Bold-65" x="2330.978516"/>
     <use xlink:href="#DejaVuSans-Bold-78" x="2398.800781"/>
     <use xlink:href="#DejaVuSans-Bold-74" x="2463.302734"/>
    </g>
   </g>
  </g>
  <g id="axes_2">
   <g id="patch_21">
    <path d="M 655.16875 477.88 
L 1137.84375 477.88 
L 1137.84375 71.28 
L 655.16875 71.28 
z
" style="fill: #ffffff"/>
   </g>
   <g id="patch_22">
    <path d="M 655.16875 459.398182 
L 757.279696 459.398182 
L 757.279696 439.417838 
L 655.16875 439.417838 
z
" clip-path="url(#p8c8ffca822)" style="fill: #f3a712"/>
   </g>
   <g id="patch_23">
    <path d="M 655.16875 434.422752 
L 759.574324 434.422752 
L 759.574324 414.442408 
L 655.16875 414.442408 
z
" clip-path="url(#p8c8ffca822)" style="fill: #f3a712"/>
   </g>
   <g id="patch_24">
    <path d="M 655.16875 409.447322 
L 760.3392 409.447322 
L 760.3392 389.466978 
L 655.16875 389.466978 
z
" clip-path="url(#p8c8ffca822)" style="fill: #f3a712"/>
   </g>
   <g id="patch_25">
    <path d="M 655.16875 384.471892 
L 764.16358 384.471892 
L 764.16358 364.491548 
L 655.16875 364.491548 
z
" clip-path="url(#p8c8ffca822)" style="fill: #f3a712"/>
   </g>
   <g id="patch_26">
    <path d="M 655.16875 359.496462 
L 774.106968 359.496462 
L 774.106968 339.516118 
L 655.16875 339.516118 
z
" clip-path="url(#p8c8ffca822)" style="fill: #f3a712"/>
   </g>
   <g id="patch_27">
    <path d="M 655.16875 334.521032 
L 777.931348 334.521032 
L 777.931348 314.540688 
L 655.16875 314.540688 
z
" clip-path="url(#p8c8ffca822)" style="fill: #f3a712"/>
   </g>
   <g id="patch_28">
    <path d="M 655.16875 309.545602 
L 780.990852 309.545602 
L 780.990852 289.565258 
L 655.16875 289.565258 
z
" clip-path="url(#p8c8ffca822)" style="fill: #f3a712"/>
   </g>
   <g id="patch_29">
    <path d="M 655.16875 284.570172 
L 789.404488 284.570172 
L 789.404488 264.589828 
L 655.16875 264.589828 
z
" clip-path="url(#p8c8ffca822)" style="fill: #f3a712"/>
   </g>
   <g id="patch_30">
    <path d="M 655.16875 259.594742 
L 790.93424 259.594742 
L 790.93424 239.614398 
L 655.16875 239.614398 
z
" clip-path="url(#p8c8ffca822)" style="fill: #f3a712"/>
   </g>
   <g id="patch_31">
    <path d="M 655.16875 234.619312 
L 798.965438 234.619312 
L 798.965438 214.638968 
L 655.16875 214.638968 
z
" clip-path="url(#p8c8ffca822)" style="fill: #f3a712"/>
   </g>
   <g id="patch_32">
    <path d="M 655.16875 209.643882 
L 870.098906 209.643882 
L 870.098906 189.663538 
L 655.16875 189.663538 
z
" clip-path="url(#p8c8ffca822)" style="fill: #f3a712"/>
   </g>
   <g id="patch_33">
    <path d="M 655.16875 184.668452 
L 873.15841 184.668452 
L 873.15841 164.688108 
L 655.16875 164.688108 
z
" clip-path="url(#p8c8ffca822)" style="fill: #f3a712"/>
   </g>
   <g id="patch_34">
    <path d="M 655.16875 159.693022 
L 916.756342 159.693022 
L 916.756342 139.712678 
L 655.16875 139.712678 
z
" clip-path="url(#p8c8ffca822)" style="fill: #f3a712"/>
   </g>
   <g id="patch_35">
    <path d="M 655.16875 134.717592 
L 1036.076998 134.717592 
L 1036.076998 114.737248 
L 655.16875 114.737248 
z
" clip-path="url(#p8c8ffca822)" style="fill: #f3a712"/>
   </g>
   <g id="patch_36">
    <path d="M 655.16875 109.742162 
L 1114.859226 109.742162 
L 1114.859226 89.761818 
L 655.16875 89.761818 
z
" clip-path="url(#p8c8ffca822)" style="fill: #f3a712"/>
   </g>
   <g id="matplotlib.axis_3">
    <g id="xtick_7">
     <g id="line2d_23">
      <g>
       <use xlink:href="#ma669922e8b" x="655.16875" y="477.88" style="stroke: #000000; stroke-width: 0.8"/>
      </g>
     </g>
     <g id="text_25">
      <!-- 0 -->
      <g transform="translate(651.9875 492.478438) scale(0.1 -0.1)">
       <use xlink:href="#DejaVuSans-30"/>
      </g>
     </g>
    </g>
    <g id="xtick_8">
     <g id="line2d_24">
      <g>
       <use xlink:href="#ma669922e8b" x="731.65635" y="477.88" style="stroke: #000000; stroke-width: 0.8"/>
      </g>
     </g>
     <g id="text_26">
      <!-- 200 -->
      <g transform="translate(722.1126 492.478438) scale(0.1 -0.1)">
       <use xlink:href="#DejaVuSans-32"/>
       <use xlink:href="#DejaVuSans-30" x="63.623047"/>
       <use xlink:href="#DejaVuSans-30" x="127.246094"/>
      </g>
     </g>
    </g>
    <g id="xtick_9">
     <g id="line2d_25">
      <g>
       <use xlink:href="#ma669922e8b" x="808.14395" y="477.88" style="stroke: #000000; stroke-width: 0.8"/>
      </g>
     </g>
     <g id="text_27">
      <!-- 400 -->
      <g transform="translate(798.6002 492.478438) scale(0.1 -0.1)">
       <defs>
        <path id="DejaVuSans-34" d="M 2419 4116 
L 825 1625 
L 2419 1625 
L 2419 4116 
z
M 2253 4666 
L 3047 4666 
L 3047 1625 
L 3713 1625 
L 3713 1100 
L 3047 1100 
L 3047 0 
L 2419 0 
L 2419 1100 
L 313 1100 
L 313 1709 
L 2253 4666 
z
" transform="scale(0.015625)"/>
       </defs>
       <use xlink:href="#DejaVuSans-34"/>
       <use xlink:href="#DejaVuSans-30" x="63.623047"/>
       <use xlink:href="#DejaVuSans-30" x="127.246094"/>
      </g>
     </g>
    </g>
    <g id="xtick_10">
     <g id="line2d_26">
      <g>
       <use xlink:href="#ma669922e8b" x="884.63155" y="477.88" style="stroke: #000000; stroke-width: 0.8"/>
      </g>
     </g>
     <g id="text_28">
      <!-- 600 -->
      <g transform="translate(875.0878 492.478438) scale(0.1 -0.1)">
       <defs>
        <path id="DejaVuSans-36" d="M 2113 2584 
Q 1688 2584 1439 2293 
Q 1191 2003 1191 1497 
Q 1191 994 1439 701 
Q 1688 409 2113 409 
Q 2538 409 2786 701 
Q 3034 994 3034 1497 
Q 3034 2003 2786 2293 
Q 2538 2584 2113 2584 
z
M 3366 4563 
L 3366 3988 
Q 3128 4100 2886 4159 
Q 2644 4219 2406 4219 
Q 1781 4219 1451 3797 
Q 1122 3375 1075 2522 
Q 1259 2794 1537 2939 
Q 1816 3084 2150 3084 
Q 2853 3084 3261 2657 
Q 3669 2231 3669 1497 
Q 3669 778 3244 343 
Q 2819 -91 2113 -91 
Q 1303 -91 875 529 
Q 447 1150 447 2328 
Q 447 3434 972 4092 
Q 1497 4750 2381 4750 
Q 2619 4750 2861 4703 
Q 3103 4656 3366 4563 
z
" transform="scale(0.015625)"/>
       </defs>
       <use xlink:href="#DejaVuSans-36"/>
       <use xlink:href="#DejaVuSans-30" x="63.623047"/>
       <use xlink:href="#DejaVuSans-30" x="127.246094"/>
      </g>
     </g>
    </g>
    <g id="xtick_11">
     <g id="line2d_27">
      <g>
       <use xlink:href="#ma669922e8b" x="961.11915" y="477.88" style="stroke: #000000; stroke-width: 0.8"/>
      </g>
     </g>
     <g id="text_29">
      <!-- 800 -->
      <g transform="translate(951.5754 492.478438) scale(0.1 -0.1)">
       <defs>
        <path id="DejaVuSans-38" d="M 2034 2216 
Q 1584 2216 1326 1975 
Q 1069 1734 1069 1313 
Q 1069 891 1326 650 
Q 1584 409 2034 409 
Q 2484 409 2743 651 
Q 3003 894 3003 1313 
Q 3003 1734 2745 1975 
Q 2488 2216 2034 2216 
z
M 1403 2484 
Q 997 2584 770 2862 
Q 544 3141 544 3541 
Q 544 4100 942 4425 
Q 1341 4750 2034 4750 
Q 2731 4750 3128 4425 
Q 3525 4100 3525 3541 
Q 3525 3141 3298 2862 
Q 3072 2584 2669 2484 
Q 3125 2378 3379 2068 
Q 3634 1759 3634 1313 
Q 3634 634 3220 271 
Q 2806 -91 2034 -91 
Q 1263 -91 848 271 
Q 434 634 434 1313 
Q 434 1759 690 2068 
Q 947 2378 1403 2484 
z
M 1172 3481 
Q 1172 3119 1398 2916 
Q 1625 2713 2034 2713 
Q 2441 2713 2670 2916 
Q 2900 3119 2900 3481 
Q 2900 3844 2670 4047 
Q 2441 4250 2034 4250 
Q 1625 4250 1398 4047 
Q 1172 3844 1172 3481 
z
" transform="scale(0.015625)"/>
       </defs>
       <use xlink:href="#DejaVuSans-38"/>
       <use xlink:href="#DejaVuSans-30" x="63.623047"/>
       <use xlink:href="#DejaVuSans-30" x="127.246094"/>
      </g>
     </g>
    </g>
    <g id="xtick_12">
     <g id="line2d_28">
      <g>
       <use xlink:href="#ma669922e8b" x="1037.60675" y="477.88" style="stroke: #000000; stroke-width: 0.8"/>
      </g>
     </g>
     <g id="text_30">
      <!-- 1000 -->
      <g transform="translate(1024.88175 492.478438) scale(0.1 -0.1)">
       <use xlink:href="#DejaVuSans-31"/>
       <use xlink:href="#DejaVuSans-30" x="63.623047"/>
       <use xlink:href="#DejaVuSans-30" x="127.246094"/>
       <use xlink:href="#DejaVuSans-30" x="190.869141"/>
      </g>
     </g>
    </g>
    <g id="xtick_13">
     <g id="line2d_29">
      <g>
       <use xlink:href="#ma669922e8b" x="1114.09435" y="477.88" style="stroke: #000000; stroke-width: 0.8"/>
      </g>
     </g>
     <g id="text_31">
      <!-- 1200 -->
      <g transform="translate(1101.36935 492.478438) scale(0.1 -0.1)">
       <use xlink:href="#DejaVuSans-31"/>
       <use xlink:href="#DejaVuSans-32" x="63.623047"/>
       <use xlink:href="#DejaVuSans-30" x="127.246094"/>
       <use xlink:href="#DejaVuSans-30" x="190.869141"/>
      </g>
     </g>
    </g>
    <g id="text_32">
     <!-- Count -->
     <g transform="translate(880.172969 506.916406) scale(0.11 -0.11)">
      <defs>
       <path id="DejaVuSans-43" d="M 4122 4306 
L 4122 3641 
Q 3803 3938 3442 4084 
Q 3081 4231 2675 4231 
Q 1875 4231 1450 3742 
Q 1025 3253 1025 2328 
Q 1025 1406 1450 917 
Q 1875 428 2675 428 
Q 3081 428 3442 575 
Q 3803 722 4122 1019 
L 4122 359 
Q 3791 134 3420 21 
Q 3050 -91 2638 -91 
Q 1578 -91 968 557 
Q 359 1206 359 2328 
Q 359 3453 968 4101 
Q 1578 4750 2638 4750 
Q 3056 4750 3426 4639 
Q 3797 4528 4122 4306 
z
" transform="scale(0.015625)"/>
      </defs>
      <use xlink:href="#DejaVuSans-43"/>
      <use xlink:href="#DejaVuSans-6f" x="69.824219"/>
      <use xlink:href="#DejaVuSans-75" x="131.005859"/>
      <use xlink:href="#DejaVuSans-6e" x="194.384766"/>
      <use xlink:href="#DejaVuSans-74" x="257.763672"/>
     </g>
    </g>
   </g>
   <g id="matplotlib.axis_4">
    <g id="ytick_17">
     <g id="line2d_30">
      <g>
       <use xlink:href="#m9e77256621" x="655.16875" y="449.40801" style="stroke: #000000; stroke-width: 0.8"/>
      </g>
     </g>
     <g id="text_33">
      <!-- desk -->
      <g transform="translate(624.667188 453.207229) scale(0.1 -0.1)">
       <defs>
        <path id="DejaVuSans-64" d="M 2906 2969 
L 2906 4863 
L 3481 4863 
L 3481 0 
L 2906 0 
L 2906 525 
Q 2725 213 2448 61 
Q 2172 -91 1784 -91 
Q 1150 -91 751 415 
Q 353 922 353 1747 
Q 353 2572 751 3078 
Q 1150 3584 1784 3584 
Q 2172 3584 2448 3432 
Q 2725 3281 2906 2969 
z
M 947 1747 
Q 947 1113 1208 752 
Q 1469 391 1925 391 
Q 2381 391 2643 752 
Q 2906 1113 2906 1747 
Q 2906 2381 2643 2742 
Q 2381 3103 1925 3103 
Q 1469 3103 1208 2742 
Q 947 2381 947 1747 
z
" transform="scale(0.015625)"/>
       </defs>
       <use xlink:href="#DejaVuSans-64"/>
       <use xlink:href="#DejaVuSans-65" x="63.476562"/>
       <use xlink:href="#DejaVuSans-73" x="125"/>
       <use xlink:href="#DejaVuSans-6b" x="177.099609"/>
      </g>
     </g>
    </g>
    <g id="ytick_18">
     <g id="line2d_31">
      <g>
       <use xlink:href="#m9e77256621" x="655.16875" y="424.43258" style="stroke: #000000; stroke-width: 0.8"/>
      </g>
     </g>
     <g id="text_34">
      <!-- area -->
      <g transform="translate(625.873438 428.231799) scale(0.1 -0.1)">
       <use xlink:href="#DejaVuSans-61"/>
       <use xlink:href="#DejaVuSans-72" x="61.279297"/>
       <use xlink:href="#DejaVuSans-65" x="100.142578"/>
       <use xlink:href="#DejaVuSans-61" x="161.666016"/>
      </g>
     </g>
    </g>
    <g id="ytick_19">
     <g id="line2d_32">
      <g>
       <use xlink:href="#m9e77256621" x="655.16875" y="399.45715" style="stroke: #000000; stroke-width: 0.8"/>
      </g>
     </g>
     <g id="text_35">
      <!-- front -->
      <g transform="translate(624.385938 403.256369) scale(0.1 -0.1)">
       <use xlink:href="#DejaVuSans-66"/>
       <use xlink:href="#DejaVuSans-72" x="35.205078"/>
       <use xlink:href="#DejaVuSans-6f" x="74.068359"/>
       <use xlink:href="#DejaVuSans-6e" x="135.25"/>
       <use xlink:href="#DejaVuSans-74" x="198.628906"/>
      </g>
     </g>
    </g>
    <g id="ytick_20">
     <g id="line2d_33">
      <g>
       <use xlink:href="#m9e77256621" x="655.16875" y="374.48172" style="stroke: #000000; stroke-width: 0.8"/>
      </g>
     </g>
     <g id="text_36">
      <!-- night -->
      <g transform="translate(622.446875 378.280939) scale(0.1 -0.1)">
       <use xlink:href="#DejaVuSans-6e"/>
       <use xlink:href="#DejaVuSans-69" x="63.378906"/>
       <use xlink:href="#DejaVuSans-67" x="91.162109"/>
       <use xlink:href="#DejaVuSans-68" x="154.638672"/>
       <use xlink:href="#DejaVuSans-74" x="218.017578"/>
      </g>
     </g>
    </g>
    <g id="ytick_21">
     <g id="line2d_34">
      <g>
       <use xlink:href="#m9e77256621" x="655.16875" y="349.50629" style="stroke: #000000; stroke-width: 0.8"/>
      </g>
     </g>
     <g id="text_37">
      <!-- again -->
      <g transform="translate(620.448438 353.305509) scale(0.1 -0.1)">
       <use xlink:href="#DejaVuSans-61"/>
       <use xlink:href="#DejaVuSans-67" x="61.279297"/>
       <use xlink:href="#DejaVuSans-61" x="124.755859"/>
       <use xlink:href="#DejaVuSans-69" x="186.035156"/>
       <use xlink:href="#DejaVuSans-6e" x="213.818359"/>
      </g>
     </g>
    </g>
    <g id="ytick_22">
     <g id="line2d_35">
      <g>
       <use xlink:href="#m9e77256621" x="655.16875" y="324.53086" style="stroke: #000000; stroke-width: 0.8"/>
      </g>
     </g>
     <g id="text_38">
      <!-- comfortable -->
      <g transform="translate(587.732813 328.330079) scale(0.1 -0.1)">
       <use xlink:href="#DejaVuSans-63"/>
       <use xlink:href="#DejaVuSans-6f" x="54.980469"/>
       <use xlink:href="#DejaVuSans-6d" x="116.162109"/>
       <use xlink:href="#DejaVuSans-66" x="213.574219"/>
       <use xlink:href="#DejaVuSans-6f" x="248.779297"/>
       <use xlink:href="#DejaVuSans-72" x="309.960938"/>
       <use xlink:href="#DejaVuSans-74" x="351.074219"/>
       <use xlink:href="#DejaVuSans-61" x="390.283203"/>
       <use xlink:href="#DejaVuSans-62" x="451.5625"/>
       <use xlink:href="#DejaVuSans-6c" x="515.039062"/>
       <use xlink:href="#DejaVuSans-65" x="542.822266"/>
      </g>
     </g>
    </g>
    <g id="ytick_23">
     <g id="line2d_36">
      <g>
       <use xlink:href="#m9e77256621" x="655.16875" y="299.55543" style="stroke: #000000; stroke-width: 0.8"/>
      </g>
     </g>
     <g id="text_39">
      <!-- helpful -->
      <g transform="translate(613.915625 303.354649) scale(0.1 -0.1)">
       <use xlink:href="#DejaVuSans-68"/>
       <use xlink:href="#DejaVuSans-65" x="63.378906"/>
       <use xlink:href="#DejaVuSans-6c" x="124.902344"/>
       <use xlink:href="#DejaVuSans-70" x="152.685547"/>
       <use xlink:href="#DejaVuSans-66" x="216.162109"/>
       <use xlink:href="#DejaVuSans-75" x="251.367188"/>
       <use xlink:href="#DejaVuSans-6c" x="314.746094"/>
      </g>
     </g>
    </g>
    <g id="ytick_24">
     <g id="line2d_37">
      <g>
       <use xlink:href="#m9e77256621" x="655.16875" y="274.58" style="stroke: #000000; stroke-width: 0.8"/>
      </g>
     </g>
     <g id="text_40">
      <!-- property -->
      <g transform="translate(605.364063 278.379219) scale(0.1 -0.1)">
       <use xlink:href="#DejaVuSans-70"/>
       <use xlink:href="#DejaVuSans-72" x="63.476562"/>
       <use xlink:href="#DejaVuSans-6f" x="102.339844"/>
       <use xlink:href="#DejaVuSans-70" x="163.521484"/>
       <use xlink:href="#DejaVuSans-65" x="226.998047"/>
       <use xlink:href="#DejaVuSans-72" x="288.521484"/>
       <use xlink:href="#DejaVuSans-74" x="329.634766"/>
       <use xlink:href="#DejaVuSans-79" x="368.84375"/>
      </g>
     </g>
    </g>
    <g id="ytick_25">
     <g id="line2d_38">
      <g>
       <use xlink:href="#m9e77256621" x="655.16875" y="249.60457" style="stroke: #000000; stroke-width: 0.8"/>
      </g>
     </g>
     <g id="text_41">
      <!-- close -->
      <g transform="translate(622.410938 253.403789) scale(0.1 -0.1)">
       <use xlink:href="#DejaVuSans-63"/>
       <use xlink:href="#DejaVuSans-6c" x="54.980469"/>
       <use xlink:href="#DejaVuSans-6f" x="82.763672"/>
       <use xlink:href="#DejaVuSans-73" x="143.945312"/>
       <use xlink:href="#DejaVuSans-65" x="196.044922"/>
      </g>
     </g>
    </g>
    <g id="ytick_26">
     <g id="line2d_39">
      <g>
       <use xlink:href="#m9e77256621" x="655.16875" y="224.62914" style="stroke: #000000; stroke-width: 0.8"/>
      </g>
     </g>
     <g id="text_42">
      <!-- mask -->
      <g transform="translate(621.3 228.428359) scale(0.1 -0.1)">
       <use xlink:href="#DejaVuSans-6d"/>
       <use xlink:href="#DejaVuSans-61" x="97.412109"/>
       <use xlink:href="#DejaVuSans-73" x="158.691406"/>
       <use xlink:href="#DejaVuSans-6b" x="210.791016"/>
      </g>
     </g>
    </g>
    <g id="ytick_27">
     <g id="line2d_40">
      <g>
       <use xlink:href="#m9e77256621" x="655.16875" y="199.65371" style="stroke: #000000; stroke-width: 0.8"/>
      </g>
     </g>
     <g id="text_43">
      <!-- friendly -->
      <g transform="translate(610.223438 203.452929) scale(0.1 -0.1)">
       <use xlink:href="#DejaVuSans-66"/>
       <use xlink:href="#DejaVuSans-72" x="35.205078"/>
       <use xlink:href="#DejaVuSans-69" x="76.318359"/>
       <use xlink:href="#DejaVuSans-65" x="104.101562"/>
       <use xlink:href="#DejaVuSans-6e" x="165.625"/>
       <use xlink:href="#DejaVuSans-64" x="229.003906"/>
       <use xlink:href="#DejaVuSans-6c" x="292.480469"/>
       <use xlink:href="#DejaVuSans-79" x="320.263672"/>
      </g>
     </g>
    </g>
    <g id="ytick_28">
     <g id="line2d_41">
      <g>
       <use xlink:href="#m9e77256621" x="655.16875" y="174.67828" style="stroke: #000000; stroke-width: 0.8"/>
      </g>
     </g>
     <g id="text_44">
      <!-- breakfast -->
      <g transform="translate(601.084375 178.477499) scale(0.1 -0.1)">
       <use xlink:href="#DejaVuSans-62"/>
       <use xlink:href="#DejaVuSans-72" x="63.476562"/>
       <use xlink:href="#DejaVuSans-65" x="102.339844"/>
       <use xlink:href="#DejaVuSans-61" x="163.863281"/>
       <use xlink:href="#DejaVuSans-6b" x="225.142578"/>
       <use xlink:href="#DejaVuSans-66" x="283.052734"/>
       <use xlink:href="#DejaVuSans-61" x="318.257812"/>
       <use xlink:href="#DejaVuSans-73" x="379.537109"/>
       <use xlink:href="#DejaVuSans-74" x="431.636719"/>
      </g>
     </g>
    </g>
    <g id="ytick_29">
     <g id="line2d_42">
      <g>
       <use xlink:href="#m9e77256621" x="655.16875" y="149.70285" style="stroke: #000000; stroke-width: 0.8"/>
      </g>
     </g>
     <g id="text_45">
      <!-- location -->
      <g transform="translate(608.490625 153.502069) scale(0.1 -0.1)">
       <use xlink:href="#DejaVuSans-6c"/>
       <use xlink:href="#DejaVuSans-6f" x="27.783203"/>
       <use xlink:href="#DejaVuSans-63" x="88.964844"/>
       <use xlink:href="#DejaVuSans-61" x="143.945312"/>
       <use xlink:href="#DejaVuSans-74" x="205.224609"/>
       <use xlink:href="#DejaVuSans-69" x="244.433594"/>
       <use xlink:href="#DejaVuSans-6f" x="272.216797"/>
       <use xlink:href="#DejaVuSans-6e" x="333.398438"/>
      </g>
     </g>
    </g>
    <g id="ytick_30">
     <g id="line2d_43">
      <g>
       <use xlink:href="#m9e77256621" x="655.16875" y="124.72742" style="stroke: #000000; stroke-width: 0.8"/>
      </g>
     </g>
     <g id="text_46">
      <!-- clean -->
      <g transform="translate(621.273438 128.526639) scale(0.1 -0.1)">
       <use xlink:href="#DejaVuSans-63"/>
       <use xlink:href="#DejaVuSans-6c" x="54.980469"/>
       <use xlink:href="#DejaVuSans-65" x="82.763672"/>
       <use xlink:href="#DejaVuSans-61" x="144.287109"/>
       <use xlink:href="#DejaVuSans-6e" x="205.566406"/>
      </g>
     </g>
    </g>
    <g id="ytick_31">
     <g id="line2d_44">
      <g>
       <use xlink:href="#m9e77256621" x="655.16875" y="99.75199" style="stroke: #000000; stroke-width: 0.8"/>
      </g>
     </g>
     <g id="text_47">
      <!-- staff -->
      <g transform="translate(625.870313 103.551209) scale(0.1 -0.1)">
       <use xlink:href="#DejaVuSans-73"/>
       <use xlink:href="#DejaVuSans-74" x="52.099609"/>
       <use xlink:href="#DejaVuSans-61" x="91.308594"/>
       <use xlink:href="#DejaVuSans-66" x="152.587891"/>
       <use xlink:href="#DejaVuSans-66" x="187.792969"/>
      </g>
     </g>
    </g>
   </g>
   <g id="patch_37">
    <path d="M 655.16875 477.88 
L 655.16875 71.28 
" style="fill: none; stroke: #000000; stroke-width: 0.8; stroke-linejoin: miter; stroke-linecap: square"/>
   </g>
   <g id="patch_38">
    <path d="M 655.16875 477.88 
L 1137.84375 477.88 
" style="fill: none; stroke: #000000; stroke-width: 0.8; stroke-linejoin: miter; stroke-linecap: square"/>
   </g>
   <g id="text_48">
    <!-- Most Common Review Terms -->
    <g transform="translate(783.757031 65.28) scale(0.14 -0.14)">
     <defs>
      <path id="DejaVuSans-Bold-4d" d="M 588 4666 
L 2119 4666 
L 3181 2169 
L 4250 4666 
L 5778 4666 
L 5778 0 
L 4641 0 
L 4641 3413 
L 3566 897 
L 2803 897 
L 1728 3413 
L 1728 0 
L 588 0 
L 588 4666 
z
" transform="scale(0.015625)"/>
      <path id="DejaVuSans-Bold-43" d="M 4288 256 
Q 3956 84 3597 -3 
Q 3238 -91 2847 -91 
Q 1681 -91 1000 561 
Q 319 1213 319 2328 
Q 319 3447 1000 4098 
Q 1681 4750 2847 4750 
Q 3238 4750 3597 4662 
Q 3956 4575 4288 4403 
L 4288 3438 
Q 3953 3666 3628 3772 
Q 3303 3878 2944 3878 
Q 2300 3878 1931 3465 
Q 1563 3053 1563 2328 
Q 1563 1606 1931 1193 
Q 2300 781 2944 781 
Q 3303 781 3628 887 
Q 3953 994 4288 1222 
L 4288 256 
z
" transform="scale(0.015625)"/>
      <path id="DejaVuSans-Bold-6d" d="M 3781 2919 
Q 3994 3244 4286 3414 
Q 4578 3584 4928 3584 
Q 5531 3584 5847 3212 
Q 6163 2841 6163 2131 
L 6163 0 
L 5038 0 
L 5038 1825 
Q 5041 1866 5042 1909 
Q 5044 1953 5044 2034 
Q 5044 2406 4934 2573 
Q 4825 2741 4581 2741 
Q 4263 2741 4089 2478 
Q 3916 2216 3909 1719 
L 3909 0 
L 2784 0 
L 2784 1825 
Q 2784 2406 2684 2573 
Q 2584 2741 2328 2741 
Q 2006 2741 1831 2477 
Q 1656 2213 1656 1722 
L 1656 0 
L 531 0 
L 531 3500 
L 1656 3500 
L 1656 2988 
Q 1863 3284 2130 3434 
Q 2397 3584 2719 3584 
Q 3081 3584 3359 3409 
Q 3638 3234 3781 2919 
z
" transform="scale(0.015625)"/>
     </defs>
     <use xlink:href="#DejaVuSans-Bold-4d"/>
     <use xlink:href="#DejaVuSans-Bold-6f" x="99.511719"/>
     <use xlink:href="#DejaVuSans-Bold-73" x="168.212891"/>
     <use xlink:href="#DejaVuSans-Bold-74" x="227.734375"/>
     <use xlink:href="#DejaVuSans-Bold-20" x="275.537109"/>
     <use xlink:href="#DejaVuSans-Bold-43" x="310.351562"/>
     <use xlink:href="#DejaVuSans-Bold-6f" x="383.740234"/>
     <use xlink:href="#DejaVuSans-Bold-6d" x="452.441406"/>
     <use xlink:href="#DejaVuSans-Bold-6d" x="556.640625"/>
     <use xlink:href="#DejaVuSans-Bold-6f" x="660.839844"/>
     <use xlink:href="#DejaVuSans-Bold-6e" x="729.541016"/>
     <use xlink:href="#DejaVuSans-Bold-20" x="800.732422"/>
     <use xlink:href="#DejaVuSans-Bold-52" x="835.546875"/>
     <use xlink:href="#DejaVuSans-Bold-65" x="912.548828"/>
     <use xlink:href="#DejaVuSans-Bold-76" x="980.371094"/>
     <use xlink:href="#DejaVuSans-Bold-69" x="1045.556641"/>
     <use xlink:href="#DejaVuSans-Bold-65" x="1079.833984"/>
     <use xlink:href="#DejaVuSans-Bold-77" x="1147.65625"/>
     <use xlink:href="#DejaVuSans-Bold-20" x="1240.039062"/>
     <use xlink:href="#DejaVuSans-Bold-54" x="1274.853516"/>
     <use xlink:href="#DejaVuSans-Bold-65" x="1329.816406"/>
     <use xlink:href="#DejaVuSans-Bold-72" x="1397.638672"/>
     <use xlink:href="#DejaVuSans-Bold-6d" x="1446.955078"/>
     <use xlink:href="#DejaVuSans-Bold-73" x="1551.154297"/>
    </g>
   </g>
  </g>
  <g id="text_49">
   <!-- What Travelers Actually Talk About -->
   <g transform="translate(414.9525 19.3575) scale(0.16 -0.16)">
    <defs>
     <path id="DejaVuSans-Bold-57" d="M 191 4666 
L 1344 4666 
L 2150 1275 
L 2950 4666 
L 4109 4666 
L 4909 1275 
L 5716 4666 
L 6859 4666 
L 5759 0 
L 4372 0 
L 3525 3547 
L 2688 0 
L 1300 0 
L 191 4666 
z
" transform="scale(0.015625)"/>
     <path id="DejaVuSans-Bold-68" d="M 4056 2131 
L 4056 0 
L 2931 0 
L 2931 347 
L 2931 1625 
Q 2931 2084 2911 2256 
Q 2891 2428 2841 2509 
Q 2775 2619 2662 2680 
Q 2550 2741 2406 2741 
Q 2056 2741 1856 2470 
Q 1656 2200 1656 1722 
L 1656 0 
L 538 0 
L 538 4863 
L 1656 4863 
L 1656 2988 
Q 1909 3294 2193 3439 
Q 2478 3584 2822 3584 
Q 3428 3584 3742 3212 
Q 4056 2841 4056 2131 
z
" transform="scale(0.015625)"/>
     <path id="DejaVuSans-Bold-6c" d="M 538 4863 
L 1656 4863 
L 1656 0 
L 538 0 
L 538 4863 
z
" transform="scale(0.015625)"/>
     <path id="DejaVuSans-Bold-75" d="M 500 1363 
L 500 3500 
L 1625 3500 
L 1625 3150 
Q 1625 2866 1622 2436 
Q 1619 2006 1619 1863 
Q 1619 1441 1641 1255 
Q 1663 1069 1716 984 
Q 1784 875 1895 815 
Q 2006 756 2150 756 
Q 2500 756 2700 1025 
Q 2900 1294 2900 1772 
L 2900 3500 
L 4019 3500 
L 4019 0 
L 2900 0 
L 2900 506 
Q 2647 200 2364 54 
Q 2081 -91 1741 -91 
Q 1134 -91 817 281 
Q 500 653 500 1363 
z
" transform="scale(0.015625)"/>
     <path id="DejaVuSans-Bold-6b" d="M 538 4863 
L 1656 4863 
L 1656 2216 
L 2944 3500 
L 4244 3500 
L 2534 1894 
L 4378 0 
L 3022 0 
L 1656 1459 
L 1656 0 
L 538 0 
L 538 4863 
z
" transform="scale(0.015625)"/>
     <path id="DejaVuSans-Bold-62" d="M 2400 722 
Q 2759 722 2948 984 
Q 3138 1247 3138 1747 
Q 3138 2247 2948 2509 
Q 2759 2772 2400 2772 
Q 2041 2772 1848 2508 
Q 1656 2244 1656 1747 
Q 1656 1250 1848 986 
Q 2041 722 2400 722 
z
M 1656 2988 
Q 1888 3294 2169 3439 
Q 2450 3584 2816 3584 
Q 3463 3584 3878 3070 
Q 4294 2556 4294 1747 
Q 4294 938 3878 423 
Q 3463 -91 2816 -91 
Q 2450 -91 2169 54 
Q 1888 200 1656 506 
L 1656 0 
L 538 0 
L 538 4863 
L 1656 4863 
L 1656 2988 
z
" transform="scale(0.015625)"/>
    </defs>
    <use xlink:href="#DejaVuSans-Bold-57"/>
    <use xlink:href="#DejaVuSans-Bold-68" x="110.302734"/>
    <use xlink:href="#DejaVuSans-Bold-61" x="181.494141"/>
    <use xlink:href="#DejaVuSans-Bold-74" x="248.974609"/>
    <use xlink:href="#DejaVuSans-Bold-20" x="296.777344"/>
    <use xlink:href="#DejaVuSans-Bold-54" x="331.591797"/>
    <use xlink:href="#DejaVuSans-Bold-72" x="388.804688"/>
    <use xlink:href="#DejaVuSans-Bold-61" x="438.121094"/>
    <use xlink:href="#DejaVuSans-Bold-76" x="505.601562"/>
    <use xlink:href="#DejaVuSans-Bold-65" x="570.787109"/>
    <use xlink:href="#DejaVuSans-Bold-6c" x="638.609375"/>
    <use xlink:href="#DejaVuSans-Bold-65" x="672.886719"/>
    <use xlink:href="#DejaVuSans-Bold-72" x="740.708984"/>
    <use xlink:href="#DejaVuSans-Bold-73" x="790.025391"/>
    <use xlink:href="#DejaVuSans-Bold-20" x="849.546875"/>
    <use xlink:href="#DejaVuSans-Bold-41" x="884.361328"/>
    <use xlink:href="#DejaVuSans-Bold-63" x="961.753906"/>
    <use xlink:href="#DejaVuSans-Bold-74" x="1021.03125"/>
    <use xlink:href="#DejaVuSans-Bold-75" x="1068.833984"/>
    <use xlink:href="#DejaVuSans-Bold-61" x="1140.025391"/>
    <use xlink:href="#DejaVuSans-Bold-6c" x="1207.505859"/>
    <use xlink:href="#DejaVuSans-Bold-6c" x="1241.783203"/>
    <use xlink:href="#DejaVuSans-Bold-79" x="1276.060547"/>
    <use xlink:href="#DejaVuSans-Bold-20" x="1341.246094"/>
    <use xlink:href="#DejaVuSans-Bold-54" x="1376.060547"/>
    <use xlink:href="#DejaVuSans-Bold-61" x="1431.398438"/>
    <use xlink:href="#DejaVuSans-Bold-6c" x="1498.878906"/>
    <use xlink:href="#DejaVuSans-Bold-6b" x="1533.15625"/>
    <use xlink:href="#DejaVuSans-Bold-20" x="1599.660156"/>
    <use xlink:href="#DejaVuSans-Bold-41" x="1634.474609"/>
    <use xlink:href="#DejaVuSans-Bold-62" x="1711.867188"/>
    <use xlink:href="#DejaVuSans-Bold-6f" x="1783.449219"/>
    <use xlink:href="#DejaVuSans-Bold-75" x="1852.150391"/>
    <use xlink:href="#DejaVuSans-Bold-74" x="1923.341797"/>
   </g>
  </g>
 </g>
 <defs>
  <clipPath id="p85234cbeea">
   <rect x="94.46875" y="71.28" width="482.675" height="406.6"/>
  </clipPath>
  <clipPath id="p8c8ffca822">
   <rect x="655.16875" y="71.28" width="482.675" height="406.6"/>
  </clipPath>
 </defs>
</svg>
