<?xml version="1.0" encoding="utf-8" standalone="no"?>
<!DOCTYPE svg PUBLIC "-//W3C//DTD SVG 1.1//EN"
  "http://www.w3.org/Graphics/SVG/1.1/DTD/svg11.dtd">
<svg xmlns:xlink="http://www.w3.org/1999/xlink" width="630.85422pt" height="450.441875pt" viewBox="0 0 630.85422 450.441875" xmlns="http://www.w3.org/2000/svg" version="1.1">
 <metadata>
  <rdf:RDF xmlns:dc="http://purl.org/dc/elements/1.1/" xmlns:cc="http://creativecommons.org/ns#" xmlns:rdf="http://www.w3.org/1999/02/22-rdf-syntax-ns#">
   <cc:Work>
    <dc:type rdf:resource="http://purl.org/dc/dcmitype/StillImage"/>
    <dc:date>2026-04-14T09:20:29.489092</dc:date>
    <dc:format>image/svg+xml</dc:format>
    <dc:creator>
     <cc:Agent>
      <dc:title>Matplotlib v3.9.2, https://matplotlib.org/</dc:title>
     </cc:Agent>
    </dc:creator>
   </cc:Work>
  </rdf:RDF>
 </metadata>
 <defs>
  <style type="text/css">*{stroke-linejoin: round; stroke-linecap: butt}</style>
 </defs>
 <g id="figure_1">
  <g id="patch_1">
   <path d="M 0 450.441875 
L 630.85422 450.441875 
L 630.85422 0 
L 0 0 
z
" style="fill: #ffffff"/>
  </g>
  <g id="axes_1">
   <g id="patch_2">
    <path d="M 51.0725 411.917812 
L 609.0725 411.917812 
L 609.0725 23.837812 
L 51.0725 23.837812 
z
" style="fill: #ffffff"/>
   </g>
   <g id="PathCollection_1">
    <path d="M 492.977156 414.949876 
C 498.478656 414.949876 503.755569 412.764107 507.645717 408.873959 
C 511.535864 404.983811 513.721633 399.706898 513.721633 394.205399 
C 513.721633 388.703899 511.535864 383.426986 507.645717 379.536838 
C 503.755569 375.646691 498.478656 373.460922 492.977156 373.460922 
C 487.475657 373.460922 482.198744 375.646691 478.308596 379.536838 
C 474.418448 383.426986 472.232679 388.703899 472.232679 394.205399 
C 472.232679 399.706898 474.418448 404.983811 478.308596 408.873959 
C 482.198744 412.764107 487.475657 414.949876 492.977156 414.949876 
z
" clip-path="url(#p6557aebffa)" style="fill: #f3a712; fill-opacity: 0.85; stroke: #0b1f3a; stroke-opacity: 0.85"/>
    <path d="M 583.708864 68.894191 
C 586.754813 68.894191 589.676417 67.684023 591.830229 65.530212 
C 593.98404 63.376401 595.194208 60.454796 595.194208 57.408847 
C 595.194208 54.362898 593.98404 51.441293 591.830229 49.287482 
C 589.676417 47.133671 586.754813 45.923503 583.708864 45.923503 
C 580.662915 45.923503 577.74131 47.133671 575.587499 49.287482 
C 573.433688 51.441293 572.223519 54.362898 572.223519 57.408847 
C 572.223519 60.454796 573.433688 63.376401 575.587499 65.530212 
C 577.74131 67.684023 580.662915 68.894191 583.708864 68.894191 
z
" clip-path="url(#p6557aebffa)" style="fill: #f3a712; fill-opacity: 0.85; stroke: #0b1f3a; stroke-opacity: 0.85"/>
    <path d="M 167.855205 405.002356 
C 170.699387 405.002356 173.427462 403.872351 175.438603 401.86121 
C 177.449743 399.850069 178.579749 397.121995 178.579749 394.277812 
C 178.579749 391.43363 177.449743 388.705556 175.438603 386.694415 
C 173.427462 384.683274 170.699387 383.553269 167.855205 383.553269 
C 165.011023 383.553269 162.282948 384.683274 160.271808 386.694415 
C 158.260667 388.705556 157.130661 391.43363 157.130661 394.277812 
C 157.130661 397.121995 158.260667 399.850069 160.271808 401.86121 
C 162.282948 403.872351 165.011023 405.002356 167.855205 405.002356 
z
" clip-path="url(#p6557aebffa)" style="fill: #f3a712; fill-opacity: 0.85; stroke: #0b1f3a; stroke-opacity: 0.85"/>
    <path d="M 478.198886 51.724779 
C 480.781982 51.724779 483.25963 50.698503 485.086155 48.871978 
C 486.91268 47.045453 487.938955 44.567806 487.938955 41.984709 
C 487.938955 39.401612 486.91268 36.923965 485.086155 35.09744 
C 483.25963 33.270915 480.781982 32.24464 478.198886 32.24464 
C 475.615789 32.24464 473.138142 33.270915 471.311617 35.09744 
C 469.485091 36.923965 468.458816 39.401612 468.458816 41.984709 
C 468.458816 44.567806 469.485091 47.045453 471.311617 48.871978 
C 473.138142 50.698503 475.615789 51.724779 478.198886 51.724779 
z
" clip-path="url(#p6557aebffa)" style="fill: #f3a712; fill-opacity: 0.85; stroke: #0b1f3a; stroke-opacity: 0.85"/>
    <path d="M 142.766513 403.800336 
C 145.291916 403.800336 147.714225 402.796983 149.499954 401.011253 
C 151.285683 399.225524 152.289036 396.803215 152.289036 394.277812 
C 152.289036 391.75241 151.285683 389.330101 149.499954 387.544372 
C 147.714225 385.758642 145.291916 384.755289 142.766513 384.755289 
C 140.241111 384.755289 137.818802 385.758642 136.033073 387.544372 
C 134.247343 389.330101 133.24399 391.75241 133.24399 394.277812 
C 133.24399 396.803215 134.247343 399.225524 136.033073 401.011253 
C 137.818802 402.796983 140.241111 403.800336 142.766513 403.800336 
z
" clip-path="url(#p6557aebffa)" style="fill: #f3a712; fill-opacity: 0.85; stroke: #0b1f3a; stroke-opacity: 0.85"/>
    <path d="M 169.229928 263.831081 
C 171.680265 263.831081 174.030573 262.857551 175.763223 261.124901 
C 177.495874 259.392251 178.469403 257.041943 178.469403 254.591606 
C 178.469403 252.141268 177.495874 249.79096 175.763223 248.05831 
C 174.030573 246.32566 171.680265 245.352131 169.229928 245.352131 
C 166.779591 245.352131 164.429283 246.32566 162.696632 248.05831 
C 160.963982 249.79096 159.990453 252.141268 159.990453 254.591606 
C 159.990453 257.041943 160.963982 259.392251 162.696632 261.124901 
C 164.429283 262.857551 166.779591 263.831081 169.229928 263.831081 
z
" clip-path="url(#p6557aebffa)" style="fill: #f3a712; fill-opacity: 0.85; stroke: #0b1f3a; stroke-opacity: 0.85"/>
    <path d="M 283.331924 49.152085 
C 285.367164 49.152085 287.319321 48.343476 288.758454 46.904343 
C 290.197587 45.46521 291.006196 43.513053 291.006196 41.477812 
C 291.006196 39.442572 290.197587 37.490415 288.758454 36.051282 
C 287.319321 34.612149 285.367164 33.80354 283.331924 33.80354 
C 281.296683 33.80354 279.344526 34.612149 277.905393 36.051282 
C 276.46626 37.490415 275.657651 39.442572 275.657651 41.477812 
C 275.657651 43.513053 276.46626 45.46521 277.905393 46.904343 
C 279.344526 48.343476 281.296683 49.152085 283.331924 49.152085 
z
" clip-path="url(#p6557aebffa)" style="fill: #f3a712; fill-opacity: 0.85; stroke: #0b1f3a; stroke-opacity: 0.85"/>
    <path d="M 76.436136 399.409517 
C 77.79708 399.409517 79.102467 398.868808 80.064799 397.906475 
C 81.027132 396.944143 81.567841 395.638756 81.567841 394.277812 
C 81.567841 392.916869 81.027132 391.611482 80.064799 390.64915 
C 79.102467 389.686817 77.79708 389.146108 76.436136 389.146108 
C 75.075192 389.146108 73.769806 389.686817 72.807473 390.64915 
C 71.845141 391.611482 71.304432 392.916869 71.304432 394.277812 
C 71.304432 395.638756 71.845141 396.944143 72.807473 397.906475 
C 73.769806 398.868808 75.075192 399.409517 76.436136 399.409517 
z
" clip-path="url(#p6557aebffa)" style="fill: #f3a712; fill-opacity: 0.85; stroke: #0b1f3a; stroke-opacity: 0.85"/>
   </g>
   <g id="matplotlib.axis_1">
    <g id="xtick_1">
     <g id="line2d_1">
      <defs>
       <path id="m9bd51be578" d="M 0 0 
L 0 3.5 
" style="stroke: #000000; stroke-width: 0.8"/>
      </defs>
      <g>
       <use xlink:href="#m9bd51be578" x="69.906203" y="411.917812" style="stroke: #000000; stroke-width: 0.8"/>
      </g>
     </g>
     <g id="text_1">
      <!-- 0.0% -->
      <g transform="translate(57.203859 426.51625) scale(0.1 -0.1)">
       <defs>
        <path id="DejaVuSans-30" d="M 2034 4250 
Q 1547 4250 1301 3770 
Q 1056 3291 1056 2328 
Q 1056 1369 1301 889 
Q 1547 409 2034 409 
Q 2525 409 2770 889 
Q 3016 1369 3016 2328 
Q 3016 3291 2770 3770 
Q 2525 4250 2034 4250 
z
M 2034 4750 
Q 2819 4750 3233 4129 
Q 3647 3509 3647 2328 
Q 3647 1150 3233 529 
Q 2819 -91 2034 -91 
Q 1250 -91 836 529 
Q 422 1150 422 2328 
Q 422 3509 836 4129 
Q 1250 4750 2034 4750 
z
" transform="scale(0.015625)"/>
        <path id="DejaVuSans-2e" d="M 684 794 
L 1344 794 
L 1344 0 
L 684 0 
L 684 794 
z
" transform="scale(0.015625)"/>
        <path id="DejaVuSans-25" d="M 4653 2053 
Q 4381 2053 4226 1822 
Q 4072 1591 4072 1178 
Q 4072 772 4226 539 
Q 4381 306 4653 306 
Q 4919 306 5073 539 
Q 5228 772 5228 1178 
Q 5228 1588 5073 1820 
Q 4919 2053 4653 2053 
z
M 4653 2450 
Q 5147 2450 5437 2106 
Q 5728 1763 5728 1178 
Q 5728 594 5436 251 
Q 5144 -91 4653 -91 
Q 4153 -91 3862 251 
Q 3572 594 3572 1178 
Q 3572 1766 3864 2108 
Q 4156 2450 4653 2450 
z
M 1428 4353 
Q 1159 4353 1004 4120 
Q 850 3888 850 3481 
Q 850 3069 1003 2837 
Q 1156 2606 1428 2606 
Q 1700 2606 1854 2837 
Q 2009 3069 2009 3481 
Q 2009 3884 1853 4118 
Q 1697 4353 1428 4353 
z
M 4250 4750 
L 4750 4750 
L 1831 -91 
L 1331 -91 
L 4250 4750 
z
M 1428 4750 
Q 1922 4750 2215 4408 
Q 2509 4066 2509 3481 
Q 2509 2891 2217 2550 
Q 1925 2209 1428 2209 
Q 931 2209 642 2551 
Q 353 2894 353 3481 
Q 353 4063 643 4406 
Q 934 4750 1428 4750 
z
" transform="scale(0.015625)"/>
       </defs>
       <use xlink:href="#DejaVuSans-30"/>
       <use xlink:href="#DejaVuSans-2e" x="63.623047"/>
       <use xlink:href="#DejaVuSans-30" x="95.410156"/>
       <use xlink:href="#DejaVuSans-25" x="159.033203"/>
      </g>
     </g>
    </g>
    <g id="xtick_2">
     <g id="line2d_2">
      <g>
       <use xlink:href="#m9bd51be578" x="172.993232" y="411.917812" style="stroke: #000000; stroke-width: 0.8"/>
      </g>
     </g>
     <g id="text_2">
      <!-- 5.0% -->
      <g transform="translate(160.290888 426.51625) scale(0.1 -0.1)">
       <defs>
        <path id="DejaVuSans-35" d="M 691 4666 
L 3169 4666 
L 3169 4134 
L 1269 4134 
L 1269 2991 
Q 1406 3038 1543 3061 
Q 1681 3084 1819 3084 
Q 2600 3084 3056 2656 
Q 3513 2228 3513 1497 
Q 3513 744 3044 326 
Q 2575 -91 1722 -91 
Q 1428 -91 1123 -41 
Q 819 9 494 109 
L 494 744 
Q 775 591 1075 516 
Q 1375 441 1709 441 
Q 2250 441 2565 725 
Q 2881 1009 2881 1497 
Q 2881 1984 2565 2268 
Q 2250 2553 1709 2553 
Q 1456 2553 1204 2497 
Q 953 2441 691 2322 
L 691 4666 
z
" transform="scale(0.015625)"/>
       </defs>
       <use xlink:href="#DejaVuSans-35"/>
       <use xlink:href="#DejaVuSans-2e" x="63.623047"/>
       <use xlink:href="#DejaVuSans-30" x="95.410156"/>
       <use xlink:href="#DejaVuSans-25" x="159.033203"/>
      </g>
     </g>
    </g>
    <g id="xtick_3">
     <g id="line2d_3">
      <g>
       <use xlink:href="#m9bd51be578" x="276.080261" y="411.917812" style="stroke: #000000; stroke-width: 0.8"/>
      </g>
     </g>
     <g id="text_3">
      <!-- 10.0% -->
      <g transform="translate(260.196667 426.51625) scale(0.1 -0.1)">
       <defs>
        <path id="DejaVuSans-31" d="M 794 531 
L 1825 531 
L 1825 4091 
L 703 3866 
L 703 4441 
L 1819 4666 
L 2450 4666 
L 2450 531 
L 3481 531 
L 3481 0 
L 794 0 
L 794 531 
z
" transform="scale(0.015625)"/>
       </defs>
       <use xlink:href="#DejaVuSans-31"/>
       <use xlink:href="#DejaVuSans-30" x="63.623047"/>
       <use xlink:href="#DejaVuSans-2e" x="127.246094"/>
       <use xlink:href="#DejaVuSans-30" x="159.033203"/>
       <use xlink:href="#DejaVuSans-25" x="222.65625"/>
      </g>
     </g>
    </g>
    <g id="xtick_4">
     <g id="line2d_4">
      <g>
       <use xlink:href="#m9bd51be578" x="379.167289" y="411.917812" style="stroke: #000000; stroke-width: 0.8"/>
      </g>
     </g>
     <g id="text_4">
      <!-- 15.0% -->
      <g transform="translate(363.283696 426.51625) scale(0.1 -0.1)">
       <use xlink:href="#DejaVuSans-31"/>
       <use xlink:href="#DejaVuSans-35" x="63.623047"/>
       <use xlink:href="#DejaVuSans-2e" x="127.246094"/>
       <use xlink:href="#DejaVuSans-30" x="159.033203"/>
       <use xlink:href="#DejaVuSans-25" x="222.65625"/>
      </g>
     </g>
    </g>
    <g id="xtick_5">
     <g id="line2d_5">
      <g>
       <use xlink:href="#m9bd51be578" x="482.254318" y="411.917812" style="stroke: #000000; stroke-width: 0.8"/>
      </g>
     </g>
     <g id="text_5">
      <!-- 20.0% -->
      <g transform="translate(466.370724 426.51625) scale(0.1 -0.1)">
       <defs>
        <path id="DejaVuSans-32" d="M 1228 531 
L 3431 531 
L 3431 0 
L 469 0 
L 469 531 
Q 828 903 1448 1529 
Q 2069 2156 2228 2338 
Q 2531 2678 2651 2914 
Q 2772 3150 2772 3378 
Q 2772 3750 2511 3984 
Q 2250 4219 1831 4219 
Q 1534 4219 1204 4116 
Q 875 4013 500 3803 
L 500 4441 
Q 881 4594 1212 4672 
Q 1544 4750 1819 4750 
Q 2544 4750 2975 4387 
Q 3406 4025 3406 3419 
Q 3406 3131 3298 2873 
Q 3191 2616 2906 2266 
Q 2828 2175 2409 1742 
Q 1991 1309 1228 531 
z
" transform="scale(0.015625)"/>
       </defs>
       <use xlink:href="#DejaVuSans-32"/>
       <use xlink:href="#DejaVuSans-30" x="63.623047"/>
       <use xlink:href="#DejaVuSans-2e" x="127.246094"/>
       <use xlink:href="#DejaVuSans-30" x="159.033203"/>
       <use xlink:href="#DejaVuSans-25" x="222.65625"/>
      </g>
     </g>
    </g>
    <g id="xtick_6">
     <g id="line2d_6">
      <g>
       <use xlink:href="#m9bd51be578" x="585.341347" y="411.917812" style="stroke: #000000; stroke-width: 0.8"/>
      </g>
     </g>
     <g id="text_6">
      <!-- 25.0% -->
      <g transform="translate(569.457753 426.51625) scale(0.1 -0.1)">
       <use xlink:href="#DejaVuSans-32"/>
       <use xlink:href="#DejaVuSans-35" x="63.623047"/>
       <use xlink:href="#DejaVuSans-2e" x="127.246094"/>
       <use xlink:href="#DejaVuSans-30" x="159.033203"/>
       <use xlink:href="#DejaVuSans-25" x="222.65625"/>
      </g>
     </g>
    </g>
    <g id="text_7">
     <!-- Share of reviews mentioning the topic in text -->
     <g transform="translate(205.885938 440.954219) scale(0.11 -0.11)">
      <defs>
       <path id="DejaVuSans-53" d="M 3425 4513 
L 3425 3897 
Q 3066 4069 2747 4153 
Q 2428 4238 2131 4238 
Q 1616 4238 1336 4038 
Q 1056 3838 1056 3469 
Q 1056 3159 1242 3001 
Q 1428 2844 1947 2747 
L 2328 2669 
Q 3034 2534 3370 2195 
Q 3706 1856 3706 1288 
Q 3706 609 3251 259 
Q 2797 -91 1919 -91 
Q 1588 -91 1214 -16 
Q 841 59 441 206 
L 441 856 
Q 825 641 1194 531 
Q 1563 422 1919 422 
Q 2459 422 2753 634 
Q 3047 847 3047 1241 
Q 3047 1584 2836 1778 
Q 2625 1972 2144 2069 
L 1759 2144 
Q 1053 2284 737 2584 
Q 422 2884 422 3419 
Q 422 4038 858 4394 
Q 1294 4750 2059 4750 
Q 2388 4750 2728 4690 
Q 3069 4631 3425 4513 
z
" transform="scale(0.015625)"/>
       <path id="DejaVuSans-68" d="M 3513 2113 
L 3513 0 
L 2938 0 
L 2938 2094 
Q 2938 2591 2744 2837 
Q 2550 3084 2163 3084 
Q 1697 3084 1428 2787 
Q 1159 2491 1159 1978 
L 1159 0 
L 581 0 
L 581 4863 
L 1159 4863 
L 1159 2956 
Q 1366 3272 1645 3428 
Q 1925 3584 2291 3584 
Q 2894 3584 3203 3211 
Q 3513 2838 3513 2113 
z
" transform="scale(0.015625)"/>
       <path id="DejaVuSans-61" d="M 2194 1759 
Q 1497 1759 1228 1600 
Q 959 1441 959 1056 
Q 959 750 1161 570 
Q 1363 391 1709 391 
Q 2188 391 2477 730 
Q 2766 1069 2766 1631 
L 2766 1759 
L 2194 1759 
z
M 3341 1997 
L 3341 0 
L 2766 0 
L 2766 531 
Q 2569 213 2275 61 
Q 1981 -91 1556 -91 
Q 1019 -91 701 211 
Q 384 513 384 1019 
Q 384 1609 779 1909 
Q 1175 2209 1959 2209 
L 2766 2209 
L 2766 2266 
Q 2766 2663 2505 2880 
Q 2244 3097 1772 3097 
Q 1472 3097 1187 3025 
Q 903 2953 641 2809 
L 641 3341 
Q 956 3463 1253 3523 
Q 1550 3584 1831 3584 
Q 2591 3584 2966 3190 
Q 3341 2797 3341 1997 
z
" transform="scale(0.015625)"/>
       <path id="DejaVuSans-72" d="M 2631 2963 
Q 2534 3019 2420 3045 
Q 2306 3072 2169 3072 
Q 1681 3072 1420 2755 
Q 1159 2438 1159 1844 
L 1159 0 
L 581 0 
L 581 3500 
L 1159 3500 
L 1159 2956 
Q 1341 3275 1631 3429 
Q 1922 3584 2338 3584 
Q 2397 3584 2469 3576 
Q 2541 3569 2628 3553 
L 2631 2963 
z
" transform="scale(0.015625)"/>
       <path id="DejaVuSans-65" d="M 3597 1894 
L 3597 1613 
L 953 1613 
Q 991 1019 1311 708 
Q 1631 397 2203 397 
Q 2534 397 2845 478 
Q 3156 559 3463 722 
L 3463 178 
Q 3153 47 2828 -22 
Q 2503 -91 2169 -91 
Q 1331 -91 842 396 
Q 353 884 353 1716 
Q 353 2575 817 3079 
Q 1281 3584 2069 3584 
Q 2775 3584 3186 3129 
Q 3597 2675 3597 1894 
z
M 3022 2063 
Q 3016 2534 2758 2815 
Q 2500 3097 2075 3097 
Q 1594 3097 1305 2825 
Q 1016 2553 972 2059 
L 3022 2063 
z
" transform="scale(0.015625)"/>
       <path id="DejaVuSans-20" transform="scale(0.015625)"/>
       <path id="DejaVuSans-6f" d="M 1959 3097 
Q 1497 3097 1228 2736 
Q 959 2375 959 1747 
Q 959 1119 1226 758 
Q 1494 397 1959 397 
Q 2419 397 2687 759 
Q 2956 1122 2956 1747 
Q 2956 2369 2687 2733 
Q 2419 3097 1959 3097 
z
M 1959 3584 
Q 2709 3584 3137 3096 
Q 3566 2609 3566 1747 
Q 3566 888 3137 398 
Q 2709 -91 1959 -91 
Q 1206 -91 779 398 
Q 353 888 353 1747 
Q 353 2609 779 3096 
Q 1206 3584 1959 3584 
z
" transform="scale(0.015625)"/>
       <path id="DejaVuSans-66" d="M 2375 4863 
L 2375 4384 
L 1825 4384 
Q 1516 4384 1395 4259 
Q 1275 4134 1275 3809 
L 1275 3500 
L 2222 3500 
L 2222 3053 
L 1275 3053 
L 1275 0 
L 697 0 
L 697 3053 
L 147 3053 
L 147 3500 
L 697 3500 
L 697 3744 
Q 697 4328 969 4595 
Q 1241 4863 1831 4863 
L 2375 4863 
z
" transform="scale(0.015625)"/>
       <path id="DejaVuSans-76" d="M 191 3500 
L 800 3500 
L 1894 563 
L 2988 3500 
L 3597 3500 
L 2284 0 
L 1503 0 
L 191 3500 
z
" transform="scale(0.015625)"/>
       <path id="DejaVuSans-69" d="M 603 3500 
L 1178 3500 
L 1178 0 
L 603 0 
L 603 3500 
z
M 603 4863 
L 1178 4863 
L 1178 4134 
L 603 4134 
L 603 4863 
z
" transform="scale(0.015625)"/>
       <path id="DejaVuSans-77" d="M 269 3500 
L 844 3500 
L 1563 769 
L 2278 3500 
L 2956 3500 
L 3675 769 
L 4391 3500 
L 4966 3500 
L 4050 0 
L 3372 0 
L 2619 2869 
L 1863 0 
L 1184 0 
L 269 3500 
z
" transform="scale(0.015625)"/>
       <path id="DejaVuSans-73" d="M 2834 3397 
L 2834 2853 
Q 2591 2978 2328 3040 
Q 2066 3103 1784 3103 
Q 1356 3103 1142 2972 
Q 928 2841 928 2578 
Q 928 2378 1081 2264 
Q 1234 2150 1697 2047 
L 1894 2003 
Q 2506 1872 2764 1633 
Q 3022 1394 3022 966 
Q 3022 478 2636 193 
Q 2250 -91 1575 -91 
Q 1294 -91 989 -36 
Q 684 19 347 128 
L 347 722 
Q 666 556 975 473 
Q 1284 391 1588 391 
Q 1994 391 2212 530 
Q 2431 669 2431 922 
Q 2431 1156 2273 1281 
Q 2116 1406 1581 1522 
L 1381 1569 
Q 847 1681 609 1914 
Q 372 2147 372 2553 
Q 372 3047 722 3315 
Q 1072 3584 1716 3584 
Q 2034 3584 2315 3537 
Q 2597 3491 2834 3397 
z
" transform="scale(0.015625)"/>
       <path id="DejaVuSans-6d" d="M 3328 2828 
Q 3544 3216 3844 3400 
Q 4144 3584 4550 3584 
Q 5097 3584 5394 3201 
Q 5691 2819 5691 2113 
L 5691 0 
L 5113 0 
L 5113 2094 
Q 5113 2597 4934 2840 
Q 4756 3084 4391 3084 
Q 3944 3084 3684 2787 
Q 3425 2491 3425 1978 
L 3425 0 
L 2847 0 
L 2847 2094 
Q 2847 2600 2669 2842 
Q 2491 3084 2119 3084 
Q 1678 3084 1418 2786 
Q 1159 2488 1159 1978 
L 1159 0 
L 581 0 
L 581 3500 
L 1159 3500 
L 1159 2956 
Q 1356 3278 1631 3431 
Q 1906 3584 2284 3584 
Q 2666 3584 2933 3390 
Q 3200 3197 3328 2828 
z
" transform="scale(0.015625)"/>
       <path id="DejaVuSans-6e" d="M 3513 2113 
L 3513 0 
L 2938 0 
L 2938 2094 
Q 2938 2591 2744 2837 
Q 2550 3084 2163 3084 
Q 1697 3084 1428 2787 
Q 1159 2491 1159 1978 
L 1159 0 
L 581 0 
L 581 3500 
L 1159 3500 
L 1159 2956 
Q 1366 3272 1645 3428 
Q 1925 3584 2291 3584 
Q 2894 3584 3203 3211 
Q 3513 2838 3513 2113 
z
" transform="scale(0.015625)"/>
       <path id="DejaVuSans-74" d="M 1172 4494 
L 1172 3500 
L 2356 3500 
L 2356 3053 
L 1172 3053 
L 1172 1153 
Q 1172 725 1289 603 
Q 1406 481 1766 481 
L 2356 481 
L 2356 0 
L 1766 0 
Q 1100 0 847 248 
Q 594 497 594 1153 
L 594 3053 
L 172 3053 
L 172 3500 
L 594 3500 
L 594 4494 
L 1172 4494 
z
" transform="scale(0.015625)"/>
       <path id="DejaVuSans-67" d="M 2906 1791 
Q 2906 2416 2648 2759 
Q 2391 3103 1925 3103 
Q 1463 3103 1205 2759 
Q 947 2416 947 1791 
Q 947 1169 1205 825 
Q 1463 481 1925 481 
Q 2391 481 2648 825 
Q 2906 1169 2906 1791 
z
M 3481 434 
Q 3481 -459 3084 -895 
Q 2688 -1331 1869 -1331 
Q 1566 -1331 1297 -1286 
Q 1028 -1241 775 -1147 
L 775 -588 
Q 1028 -725 1275 -790 
Q 1522 -856 1778 -856 
Q 2344 -856 2625 -561 
Q 2906 -266 2906 331 
L 2906 616 
Q 2728 306 2450 153 
Q 2172 0 1784 0 
Q 1141 0 747 490 
Q 353 981 353 1791 
Q 353 2603 747 3093 
Q 1141 3584 1784 3584 
Q 2172 3584 2450 3431 
Q 2728 3278 2906 2969 
L 2906 3500 
L 3481 3500 
L 3481 434 
z
" transform="scale(0.015625)"/>
       <path id="DejaVuSans-70" d="M 1159 525 
L 1159 -1331 
L 581 -1331 
L 581 3500 
L 1159 3500 
L 1159 2969 
Q 1341 3281 1617 3432 
Q 1894 3584 2278 3584 
Q 2916 3584 3314 3078 
Q 3713 2572 3713 1747 
Q 3713 922 3314 415 
Q 2916 -91 2278 -91 
Q 1894 -91 1617 61 
Q 1341 213 1159 525 
z
M 3116 1747 
Q 3116 2381 2855 2742 
Q 2594 3103 2138 3103 
Q 1681 3103 1420 2742 
Q 1159 2381 1159 1747 
Q 1159 1113 1420 752 
Q 1681 391 2138 391 
Q 2594 391 2855 752 
Q 3116 1113 3116 1747 
z
" transform="scale(0.015625)"/>
       <path id="DejaVuSans-63" d="M 3122 3366 
L 3122 2828 
Q 2878 2963 2633 3030 
Q 2388 3097 2138 3097 
Q 1578 3097 1268 2742 
Q 959 2388 959 1747 
Q 959 1106 1268 751 
Q 1578 397 2138 397 
Q 2388 397 2633 464 
Q 2878 531 3122 666 
L 3122 134 
Q 2881 22 2623 -34 
Q 2366 -91 2075 -91 
Q 1284 -91 818 406 
Q 353 903 353 1747 
Q 353 2603 823 3093 
Q 1294 3584 2113 3584 
Q 2378 3584 2631 3529 
Q 2884 3475 3122 3366 
z
" transform="scale(0.015625)"/>
       <path id="DejaVuSans-78" d="M 3513 3500 
L 2247 1797 
L 3578 0 
L 2900 0 
L 1881 1375 
L 863 0 
L 184 0 
L 1544 1831 
L 300 3500 
L 978 3500 
L 1906 2253 
L 2834 3500 
L 3513 3500 
z
" transform="scale(0.015625)"/>
      </defs>
      <use xlink:href="#DejaVuSans-53"/>
      <use xlink:href="#DejaVuSans-68" x="63.476562"/>
      <use xlink:href="#DejaVuSans-61" x="126.855469"/>
      <use xlink:href="#DejaVuSans-72" x="188.134766"/>
      <use xlink:href="#DejaVuSans-65" x="226.998047"/>
      <use xlink:href="#DejaVuSans-20" x="288.521484"/>
      <use xlink:href="#DejaVuSans-6f" x="320.308594"/>
      <use xlink:href="#DejaVuSans-66" x="381.490234"/>
      <use xlink:href="#DejaVuSans-20" x="416.695312"/>
      <use xlink:href="#DejaVuSans-72" x="448.482422"/>
      <use xlink:href="#DejaVuSans-65" x="487.345703"/>
      <use xlink:href="#DejaVuSans-76" x="548.869141"/>
      <use xlink:href="#DejaVuSans-69" x="608.048828"/>
      <use xlink:href="#DejaVuSans-65" x="635.832031"/>
      <use xlink:href="#DejaVuSans-77" x="697.355469"/>
      <use xlink:href="#DejaVuSans-73" x="779.142578"/>
      <use xlink:href="#DejaVuSans-20" x="831.242188"/>
      <use xlink:href="#DejaVuSans-6d" x="863.029297"/>
      <use xlink:href="#DejaVuSans-65" x="960.441406"/>
      <use xlink:href="#DejaVuSans-6e" x="1021.964844"/>
      <use xlink:href="#DejaVuSans-74" x="1085.34375"/>
      <use xlink:href="#DejaVuSans-69" x="1124.552734"/>
      <use xlink:href="#DejaVuSans-6f" x="1152.335938"/>
      <use xlink:href="#DejaVuSans-6e" x="1213.517578"/>
      <use xlink:href="#DejaVuSans-69" x="1276.896484"/>
      <use xlink:href="#DejaVuSans-6e" x="1304.679688"/>
      <use xlink:href="#DejaVuSans-67" x="1368.058594"/>
      <use xlink:href="#DejaVuSans-20" x="1431.535156"/>
      <use xlink:href="#DejaVuSans-74" x="1463.322266"/>
      <use xlink:href="#DejaVuSans-68" x="1502.53125"/>
      <use xlink:href="#DejaVuSans-65" x="1565.910156"/>
      <use xlink:href="#DejaVuSans-20" x="1627.433594"/>
      <use xlink:href="#DejaVuSans-74" x="1659.220703"/>
      <use xlink:href="#DejaVuSans-6f" x="1698.429688"/>
      <use xlink:href="#DejaVuSans-70" x="1759.611328"/>
      <use xlink:href="#DejaVuSans-69" x="1823.087891"/>
      <use xlink:href="#DejaVuSans-63" x="1850.871094"/>
      <use xlink:href="#DejaVuSans-20" x="1905.851562"/>
      <use xlink:href="#DejaVuSans-69" x="1937.638672"/>
      <use xlink:href="#DejaVuSans-6e" x="1965.421875"/>
      <use xlink:href="#DejaVuSans-20" x="2028.800781"/>
      <use xlink:href="#DejaVuSans-74" x="2060.587891"/>
      <use xlink:href="#DejaVuSans-65" x="2099.796875"/>
      <use xlink:href="#DejaVuSans-78" x="2159.570312"/>
      <use xlink:href="#DejaVuSans-74" x="2218.75"/>
     </g>
    </g>
   </g>
   <g id="matplotlib.axis_2">
    <g id="ytick_1">
     <g id="line2d_7">
      <defs>
       <path id="m641e62898f" d="M 0 0 
L -3.5 0 
" style="stroke: #000000; stroke-width: 0.8"/>
      </defs>
      <g>
       <use xlink:href="#m641e62898f" x="51.0725" y="394.277812" style="stroke: #000000; stroke-width: 0.8"/>
      </g>
     </g>
     <g id="text_8">
      <!-- 0% -->
      <g transform="translate(28.208438 398.077031) scale(0.1 -0.1)">
       <use xlink:href="#DejaVuSans-30"/>
       <use xlink:href="#DejaVuSans-25" x="63.623047"/>
      </g>
     </g>
    </g>
    <g id="ytick_2">
     <g id="line2d_8">
      <g>
       <use xlink:href="#m641e62898f" x="51.0725" y="350.836778" style="stroke: #000000; stroke-width: 0.8"/>
      </g>
     </g>
     <g id="text_9">
      <!-- 10% -->
      <g transform="translate(21.845938 354.635997) scale(0.1 -0.1)">
       <use xlink:href="#DejaVuSans-31"/>
       <use xlink:href="#DejaVuSans-30" x="63.623047"/>
       <use xlink:href="#DejaVuSans-25" x="127.246094"/>
      </g>
     </g>
    </g>
    <g id="ytick_3">
     <g id="line2d_9">
      <g>
       <use xlink:href="#m641e62898f" x="51.0725" y="307.395744" style="stroke: #000000; stroke-width: 0.8"/>
      </g>
     </g>
     <g id="text_10">
      <!-- 20% -->
      <g transform="translate(21.845938 311.194962) scale(0.1 -0.1)">
       <use xlink:href="#DejaVuSans-32"/>
       <use xlink:href="#DejaVuSans-30" x="63.623047"/>
       <use xlink:href="#DejaVuSans-25" x="127.246094"/>
      </g>
     </g>
    </g>
    <g id="ytick_4">
     <g id="line2d_10">
      <g>
       <use xlink:href="#m641e62898f" x="51.0725" y="263.954709" style="stroke: #000000; stroke-width: 0.8"/>
      </g>
     </g>
     <g id="text_11">
      <!-- 30% -->
      <g transform="translate(21.845938 267.753928) scale(0.1 -0.1)">
       <defs>
        <path id="DejaVuSans-33" d="M 2597 2516 
Q 3050 2419 3304 2112 
Q 3559 1806 3559 1356 
Q 3559 666 3084 287 
Q 2609 -91 1734 -91 
Q 1441 -91 1130 -33 
Q 819 25 488 141 
L 488 750 
Q 750 597 1062 519 
Q 1375 441 1716 441 
Q 2309 441 2620 675 
Q 2931 909 2931 1356 
Q 2931 1769 2642 2001 
Q 2353 2234 1838 2234 
L 1294 2234 
L 1294 2753 
L 1863 2753 
Q 2328 2753 2575 2939 
Q 2822 3125 2822 3475 
Q 2822 3834 2567 4026 
Q 2313 4219 1838 4219 
Q 1578 4219 1281 4162 
Q 984 4106 628 3988 
L 628 4550 
Q 988 4650 1302 4700 
Q 1616 4750 1894 4750 
Q 2613 4750 3031 4423 
Q 3450 4097 3450 3541 
Q 3450 3153 3228 2886 
Q 3006 2619 2597 2516 
z
" transform="scale(0.015625)"/>
       </defs>
       <use xlink:href="#DejaVuSans-33"/>
       <use xlink:href="#DejaVuSans-30" x="63.623047"/>
       <use xlink:href="#DejaVuSans-25" x="127.246094"/>
      </g>
     </g>
    </g>
    <g id="ytick_5">
     <g id="line2d_11">
      <g>
       <use xlink:href="#m641e62898f" x="51.0725" y="220.513675" style="stroke: #000000; stroke-width: 0.8"/>
      </g>
     </g>
     <g id="text_12">
      <!-- 40% -->
      <g transform="translate(21.845938 224.312893) scale(0.1 -0.1)">
       <defs>
        <path id="DejaVuSans-34" d="M 2419 4116 
L 825 1625 
L 2419 1625 
L 2419 4116 
z
M 2253 4666 
L 3047 4666 
L 3047 1625 
L 3713 1625 
L 3713 1100 
L 3047 1100 
L 3047 0 
L 2419 0 
L 2419 1100 
L 313 1100 
L 313 1709 
L 2253 4666 
z
" transform="scale(0.015625)"/>
       </defs>
       <use xlink:href="#DejaVuSans-34"/>
       <use xlink:href="#DejaVuSans-30" x="63.623047"/>
       <use xlink:href="#DejaVuSans-25" x="127.246094"/>
      </g>
     </g>
    </g>
    <g id="ytick_6">
     <g id="line2d_12">
      <g>
       <use xlink:href="#m641e62898f" x="51.0725" y="177.07264" style="stroke: #000000; stroke-width: 0.8"/>
      </g>
     </g>
     <g id="text_13">
      <!-- 50% -->
      <g transform="translate(21.845938 180.871859) scale(0.1 -0.1)">
       <use xlink:href="#DejaVuSans-35"/>
       <use xlink:href="#DejaVuSans-30" x="63.623047"/>
       <use xlink:href="#DejaVuSans-25" x="127.246094"/>
      </g>
     </g>
    </g>
    <g id="ytick_7">
     <g id="line2d_13">
      <g>
       <use xlink:href="#m641e62898f" x="51.0725" y="133.631606" style="stroke: #000000; stroke-width: 0.8"/>
      </g>
     </g>
     <g id="text_14">
      <!-- 60% -->
      <g transform="translate(21.845938 137.430824) scale(0.1 -0.1)">
       <defs>
        <path id="DejaVuSans-36" d="M 2113 2584 
Q 1688 2584 1439 2293 
Q 1191 2003 1191 1497 
Q 1191 994 1439 701 
Q 1688 409 2113 409 
Q 2538 409 2786 701 
Q 3034 994 3034 1497 
Q 3034 2003 2786 2293 
Q 2538 2584 2113 2584 
z
M 3366 4563 
L 3366 3988 
Q 3128 4100 2886 4159 
Q 2644 4219 2406 4219 
Q 1781 4219 1451 3797 
Q 1122 3375 1075 2522 
Q 1259 2794 1537 2939 
Q 1816 3084 2150 3084 
Q 2853 3084 3261 2657 
Q 3669 2231 3669 1497 
Q 3669 778 3244 343 
Q 2819 -91 2113 -91 
Q 1303 -91 875 529 
Q 447 1150 447 2328 
Q 447 3434 972 4092 
Q 1497 4750 2381 4750 
Q 2619 4750 2861 4703 
Q 3103 4656 3366 4563 
z
" transform="scale(0.015625)"/>
       </defs>
       <use xlink:href="#DejaVuSans-36"/>
       <use xlink:href="#DejaVuSans-30" x="63.623047"/>
       <use xlink:href="#DejaVuSans-25" x="127.246094"/>
      </g>
     </g>
    </g>
    <g id="ytick_8">
     <g id="line2d_14">
      <g>
       <use xlink:href="#m641e62898f" x="51.0725" y="90.190571" style="stroke: #000000; stroke-width: 0.8"/>
      </g>
     </g>
     <g id="text_15">
      <!-- 70% -->
      <g transform="translate(21.845938 93.98979) scale(0.1 -0.1)">
       <defs>
        <path id="DejaVuSans-37" d="M 525 4666 
L 3525 4666 
L 3525 4397 
L 1831 0 
L 1172 0 
L 2766 4134 
L 525 4134 
L 525 4666 
z
" transform="scale(0.015625)"/>
       </defs>
       <use xlink:href="#DejaVuSans-37"/>
       <use xlink:href="#DejaVuSans-30" x="63.623047"/>
       <use xlink:href="#DejaVuSans-25" x="127.246094"/>
      </g>
     </g>
    </g>
    <g id="ytick_9">
     <g id="line2d_15">
      <g>
       <use xlink:href="#m641e62898f" x="51.0725" y="46.749537" style="stroke: #000000; stroke-width: 0.8"/>
      </g>
     </g>
     <g id="text_16">
      <!-- 80% -->
      <g transform="translate(21.845938 50.548755) scale(0.1 -0.1)">
       <defs>
        <path id="DejaVuSans-38" d="M 2034 2216 
Q 1584 2216 1326 1975 
Q 1069 1734 1069 1313 
Q 1069 891 1326 650 
Q 1584 409 2034 409 
Q 2484 409 2743 651 
Q 3003 894 3003 1313 
Q 3003 1734 2745 1975 
Q 2488 2216 2034 2216 
z
M 1403 2484 
Q 997 2584 770 2862 
Q 544 3141 544 3541 
Q 544 4100 942 4425 
Q 1341 4750 2034 4750 
Q 2731 4750 3128 4425 
Q 3525 4100 3525 3541 
Q 3525 3141 3298 2862 
Q 3072 2584 2669 2484 
Q 3125 2378 3379 2068 
Q 3634 1759 3634 1313 
Q 3634 634 3220 271 
Q 2806 -91 2034 -91 
Q 1263 -91 848 271 
Q 434 634 434 1313 
Q 434 1759 690 2068 
Q 947 2378 1403 2484 
z
M 1172 3481 
Q 1172 3119 1398 2916 
Q 1625 2713 2034 2713 
Q 2441 2713 2670 2916 
Q 2900 3119 2900 3481 
Q 2900 3844 2670 4047 
Q 2441 4250 2034 4250 
Q 1625 4250 1398 4047 
Q 1172 3844 1172 3481 
z
" transform="scale(0.015625)"/>
       </defs>
       <use xlink:href="#DejaVuSans-38"/>
       <use xlink:href="#DejaVuSans-30" x="63.623047"/>
       <use xlink:href="#DejaVuSans-25" x="127.246094"/>
      </g>
     </g>
    </g>
    <g id="text_17">
     <!-- Share of reviews with a structured rating for the topic -->
     <g transform="translate(15.558281 365.764219) rotate(-90) scale(0.11 -0.11)">
      <defs>
       <path id="DejaVuSans-75" d="M 544 1381 
L 544 3500 
L 1119 3500 
L 1119 1403 
Q 1119 906 1312 657 
Q 1506 409 1894 409 
Q 2359 409 2629 706 
Q 2900 1003 2900 1516 
L 2900 3500 
L 3475 3500 
L 3475 0 
L 2900 0 
L 2900 538 
Q 2691 219 2414 64 
Q 2138 -91 1772 -91 
Q 1169 -91 856 284 
Q 544 659 544 1381 
z
M 1991 3584 
L 1991 3584 
z
" transform="scale(0.015625)"/>
       <path id="DejaVuSans-64" d="M 2906 2969 
L 2906 4863 
L 3481 4863 
L 3481 0 
L 2906 0 
L 2906 525 
Q 2725 213 2448 61 
Q 2172 -91 1784 -91 
Q 1150 -91 751 415 
Q 353 922 353 1747 
Q 353 2572 751 3078 
Q 1150 3584 1784 3584 
Q 2172 3584 2448 3432 
Q 2725 3281 2906 2969 
z
M 947 1747 
Q 947 1113 1208 752 
Q 1469 391 1925 391 
Q 2381 391 2643 752 
Q 2906 1113 2906 1747 
Q 2906 2381 2643 2742 
Q 2381 3103 1925 3103 
Q 1469 3103 1208 2742 
Q 947 2381 947 1747 
z
" transform="scale(0.015625)"/>
      </defs>
      <use xlink:href="#DejaVuSans-53"/>
      <use xlink:href="#DejaVuSans-68" x="63.476562"/>
      <use xlink:href="#DejaVuSans-61" x="126.855469"/>
      <use xlink:href="#DejaVuSans-72" x="188.134766"/>
      <use xlink:href="#DejaVuSans-65" x="226.998047"/>
      <use xlink:href="#DejaVuSans-20" x="288.521484"/>
      <use xlink:href="#DejaVuSans-6f" x="320.308594"/>
      <use xlink:href="#DejaVuSans-66" x="381.490234"/>
      <use xlink:href="#DejaVuSans-20" x="416.695312"/>
      <use xlink:href="#DejaVuSans-72" x="448.482422"/>
      <use xlink:href="#DejaVuSans-65" x="487.345703"/>
      <use xlink:href="#DejaVuSans-76" x="548.869141"/>
      <use xlink:href="#DejaVuSans-69" x="608.048828"/>
      <use xlink:href="#DejaVuSans-65" x="635.832031"/>
      <use xlink:href="#DejaVuSans-77" x="697.355469"/>
      <use xlink:href="#DejaVuSans-73" x="779.142578"/>
      <use xlink:href="#DejaVuSans-20" x="831.242188"/>
      <use xlink:href="#DejaVuSans-77" x="863.029297"/>
      <use xlink:href="#DejaVuSans-69" x="944.816406"/>
      <use xlink:href="#DejaVuSans-74" x="972.599609"/>
      <use xlink:href="#DejaVuSans-68" x="1011.808594"/>
      <use xlink:href="#DejaVuSans-20" x="1075.1875"/>
      <use xlink:href="#DejaVuSans-61" x="1106.974609"/>
      <use xlink:href="#DejaVuSans-20" x="1168.253906"/>
      <use xlink:href="#DejaVuSans-73" x="1200.041016"/>
      <use xlink:href="#DejaVuSans-74" x="1252.140625"/>
      <use xlink:href="#DejaVuSans-72" x="1291.349609"/>
      <use xlink:href="#DejaVuSans-75" x="1332.462891"/>
      <use xlink:href="#DejaVuSans-63" x="1395.841797"/>
      <use xlink:href="#DejaVuSans-74" x="1450.822266"/>
      <use xlink:href="#DejaVuSans-75" x="1490.03125"/>
      <use xlink:href="#DejaVuSans-72" x="1553.410156"/>
      <use xlink:href="#DejaVuSans-65" x="1592.273438"/>
      <use xlink:href="#DejaVuSans-64" x="1653.796875"/>
      <use xlink:href="#DejaVuSans-20" x="1717.273438"/>
      <use xlink:href="#DejaVuSans-72" x="1749.060547"/>
      <use xlink:href="#DejaVuSans-61" x="1790.173828"/>
      <use xlink:href="#DejaVuSans-74" x="1851.453125"/>
      <use xlink:href="#DejaVuSans-69" x="1890.662109"/>
      <use xlink:href="#DejaVuSans-6e" x="1918.445312"/>
      <use xlink:href="#DejaVuSans-67" x="1981.824219"/>
      <use xlink:href="#DejaVuSans-20" x="2045.300781"/>
      <use xlink:href="#DejaVuSans-66" x="2077.087891"/>
      <use xlink:href="#DejaVuSans-6f" x="2112.292969"/>
      <use xlink:href="#DejaVuSans-72" x="2173.474609"/>
      <use xlink:href="#DejaVuSans-20" x="2214.587891"/>
      <use xlink:href="#DejaVuSans-74" x="2246.375"/>
      <use xlink:href="#DejaVuSans-68" x="2285.583984"/>
      <use xlink:href="#DejaVuSans-65" x="2348.962891"/>
      <use xlink:href="#DejaVuSans-20" x="2410.486328"/>
      <use xlink:href="#DejaVuSans-74" x="2442.273438"/>
      <use xlink:href="#DejaVuSans-6f" x="2481.482422"/>
      <use xlink:href="#DejaVuSans-70" x="2542.664062"/>
      <use xlink:href="#DejaVuSans-69" x="2606.140625"/>
      <use xlink:href="#DejaVuSans-63" x="2633.923828"/>
     </g>
    </g>
   </g>
   <g id="line2d_16">
    <path d="M 226.280926 411.917812 
L 226.280926 23.837812 
" clip-path="url(#p6557aebffa)" style="fill: none; stroke-dasharray: 5.55,2.4; stroke-dashoffset: 0; stroke: #e5e7eb; stroke-width: 1.5"/>
   </g>
   <g id="line2d_17">
    <path d="M 51.0725 324.398502 
L 609.0725 324.398502 
" clip-path="url(#p6557aebffa)" style="fill: none; stroke-dasharray: 5.55,2.4; stroke-dashoffset: 0; stroke: #e5e7eb; stroke-width: 1.5"/>
   </g>
   <g id="patch_3">
    <path d="M 51.0725 411.917812 
L 51.0725 23.837812 
" style="fill: none; stroke: #000000; stroke-width: 0.8; stroke-linejoin: miter; stroke-linecap: square"/>
   </g>
   <g id="patch_4">
    <path d="M 51.0725 411.917812 
L 609.0725 411.917812 
" style="fill: none; stroke: #000000; stroke-width: 0.8; stroke-linejoin: miter; stroke-linecap: square"/>
   </g>
   <g id="text_18">
    <!-- location -->
    <g transform="translate(497.100637 389.861295) scale(0.1 -0.1)">
     <defs>
      <path id="DejaVuSans-6c" d="M 603 4863 
L 1178 4863 
L 1178 0 
L 603 0 
L 603 4863 
z
" transform="scale(0.015625)"/>
     </defs>
     <use xlink:href="#DejaVuSans-6c"/>
     <use xlink:href="#DejaVuSans-6f" x="27.783203"/>
     <use xlink:href="#DejaVuSans-63" x="88.964844"/>
     <use xlink:href="#DejaVuSans-61" x="143.945312"/>
     <use xlink:href="#DejaVuSans-74" x="205.224609"/>
     <use xlink:href="#DejaVuSans-69" x="244.433594"/>
     <use xlink:href="#DejaVuSans-6f" x="272.216797"/>
     <use xlink:href="#DejaVuSans-6e" x="333.398438"/>
    </g>
   </g>
   <g id="text_19">
    <!-- service -->
    <g transform="translate(587.832345 53.064744) scale(0.1 -0.1)">
     <use xlink:href="#DejaVuSans-73"/>
     <use xlink:href="#DejaVuSans-65" x="52.099609"/>
     <use xlink:href="#DejaVuSans-72" x="113.623047"/>
     <use xlink:href="#DejaVuSans-76" x="154.736328"/>
     <use xlink:href="#DejaVuSans-69" x="213.916016"/>
     <use xlink:href="#DejaVuSans-63" x="241.699219"/>
     <use xlink:href="#DejaVuSans-65" x="296.679688"/>
    </g>
   </g>
   <g id="text_20">
    <!-- value -->
    <g transform="translate(171.978686 389.933709) scale(0.1 -0.1)">
     <use xlink:href="#DejaVuSans-76"/>
     <use xlink:href="#DejaVuSans-61" x="59.179688"/>
     <use xlink:href="#DejaVuSans-6c" x="120.458984"/>
     <use xlink:href="#DejaVuSans-75" x="148.242188"/>
     <use xlink:href="#DejaVuSans-65" x="211.621094"/>
    </g>
   </g>
   <g id="text_21">
    <!-- cleanliness -->
    <g transform="translate(482.322367 37.640606) scale(0.1 -0.1)">
     <use xlink:href="#DejaVuSans-63"/>
     <use xlink:href="#DejaVuSans-6c" x="54.980469"/>
     <use xlink:href="#DejaVuSans-65" x="82.763672"/>
     <use xlink:href="#DejaVuSans-61" x="144.287109"/>
     <use xlink:href="#DejaVuSans-6e" x="205.566406"/>
     <use xlink:href="#DejaVuSans-6c" x="268.945312"/>
     <use xlink:href="#DejaVuSans-69" x="296.728516"/>
     <use xlink:href="#DejaVuSans-6e" x="324.511719"/>
     <use xlink:href="#DejaVuSans-65" x="387.890625"/>
     <use xlink:href="#DejaVuSans-73" x="449.414062"/>
     <use xlink:href="#DejaVuSans-73" x="501.513672"/>
    </g>
   </g>
   <g id="text_22">
    <!-- checkin -->
    <g transform="translate(146.889994 389.933709) scale(0.1 -0.1)">
     <defs>
      <path id="DejaVuSans-6b" d="M 581 4863 
L 1159 4863 
L 1159 1991 
L 2875 3500 
L 3609 3500 
L 1753 1863 
L 3688 0 
L 2938 0 
L 1159 1709 
L 1159 0 
L 581 0 
L 581 4863 
z
" transform="scale(0.015625)"/>
     </defs>
     <use xlink:href="#DejaVuSans-63"/>
     <use xlink:href="#DejaVuSans-68" x="54.980469"/>
     <use xlink:href="#DejaVuSans-65" x="118.359375"/>
     <use xlink:href="#DejaVuSans-63" x="179.882812"/>
     <use xlink:href="#DejaVuSans-6b" x="234.863281"/>
     <use xlink:href="#DejaVuSans-69" x="292.773438"/>
     <use xlink:href="#DejaVuSans-6e" x="320.556641"/>
    </g>
   </g>
   <g id="text_23">
    <!-- eco -->
    <g transform="translate(173.353409 250.247502) scale(0.1 -0.1)">
     <use xlink:href="#DejaVuSans-65"/>
     <use xlink:href="#DejaVuSans-63" x="61.523438"/>
     <use xlink:href="#DejaVuSans-6f" x="116.503906"/>
    </g>
   </g>
   <g id="text_24">
    <!-- comfort -->
    <g transform="translate(287.455405 37.133709) scale(0.1 -0.1)">
     <use xlink:href="#DejaVuSans-63"/>
     <use xlink:href="#DejaVuSans-6f" x="54.980469"/>
     <use xlink:href="#DejaVuSans-6d" x="116.162109"/>
     <use xlink:href="#DejaVuSans-66" x="213.574219"/>
     <use xlink:href="#DejaVuSans-6f" x="248.779297"/>
     <use xlink:href="#DejaVuSans-72" x="309.960938"/>
     <use xlink:href="#DejaVuSans-74" x="351.074219"/>
    </g>
   </g>
   <g id="text_25">
    <!-- listing accuracy -->
    <g transform="translate(80.559618 389.933709) scale(0.1 -0.1)">
     <defs>
      <path id="DejaVuSans-79" d="M 2059 -325 
Q 1816 -950 1584 -1140 
Q 1353 -1331 966 -1331 
L 506 -1331 
L 506 -850 
L 844 -850 
Q 1081 -850 1212 -737 
Q 1344 -625 1503 -206 
L 1606 56 
L 191 3500 
L 800 3500 
L 1894 763 
L 2988 3500 
L 3597 3500 
L 2059 -325 
z
" transform="scale(0.015625)"/>
     </defs>
     <use xlink:href="#DejaVuSans-6c"/>
     <use xlink:href="#DejaVuSans-69" x="27.783203"/>
     <use xlink:href="#DejaVuSans-73" x="55.566406"/>
     <use xlink:href="#DejaVuSans-74" x="107.666016"/>
     <use xlink:href="#DejaVuSans-69" x="146.875"/>
     <use xlink:href="#DejaVuSans-6e" x="174.658203"/>
     <use xlink:href="#DejaVuSans-67" x="238.037109"/>
     <use xlink:href="#DejaVuSans-20" x="301.513672"/>
     <use xlink:href="#DejaVuSans-61" x="333.300781"/>
     <use xlink:href="#DejaVuSans-63" x="394.580078"/>
     <use xlink:href="#DejaVuSans-63" x="449.560547"/>
     <use xlink:href="#DejaVuSans-75" x="504.541016"/>
     <use xlink:href="#DejaVuSans-72" x="567.919922"/>
     <use xlink:href="#DejaVuSans-61" x="609.033203"/>
     <use xlink:href="#DejaVuSans-63" x="670.3125"/>
     <use xlink:href="#DejaVuSans-79" x="725.292969"/>
    </g>
   </g>
   <g id="text_26">
    <!-- High-Importance, Low-Coverage Topics Are the Best Question Targets -->
    <g transform="translate(54.866406 17.837812) scale(0.14 -0.14)">
     <defs>
      <path id="DejaVuSans-Bold-48" d="M 588 4666 
L 1791 4666 
L 1791 2888 
L 3566 2888 
L 3566 4666 
L 4769 4666 
L 4769 0 
L 3566 0 
L 3566 1978 
L 1791 1978 
L 1791 0 
L 588 0 
L 588 4666 
z
" transform="scale(0.015625)"/>
      <path id="DejaVuSans-Bold-69" d="M 538 3500 
L 1656 3500 
L 1656 0 
L 538 0 
L 538 3500 
z
M 538 4863 
L 1656 4863 
L 1656 3950 
L 538 3950 
L 538 4863 
z
" transform="scale(0.015625)"/>
      <path id="DejaVuSans-Bold-67" d="M 2919 594 
Q 2688 288 2409 144 
Q 2131 0 1766 0 
Q 1125 0 706 504 
Q 288 1009 288 1791 
Q 288 2575 706 3076 
Q 1125 3578 1766 3578 
Q 2131 3578 2409 3434 
Q 2688 3291 2919 2981 
L 2919 3500 
L 4044 3500 
L 4044 353 
Q 4044 -491 3511 -936 
Q 2978 -1381 1966 -1381 
Q 1638 -1381 1331 -1331 
Q 1025 -1281 716 -1178 
L 716 -306 
Q 1009 -475 1290 -558 
Q 1572 -641 1856 -641 
Q 2406 -641 2662 -400 
Q 2919 -159 2919 353 
L 2919 594 
z
M 2181 2772 
Q 1834 2772 1640 2515 
Q 1447 2259 1447 1791 
Q 1447 1309 1634 1061 
Q 1822 813 2181 813 
Q 2531 813 2725 1069 
Q 2919 1325 2919 1791 
Q 2919 2259 2725 2515 
Q 2531 2772 2181 2772 
z
" transform="scale(0.015625)"/>
      <path id="DejaVuSans-Bold-68" d="M 4056 2131 
L 4056 0 
L 2931 0 
L 2931 347 
L 2931 1625 
Q 2931 2084 2911 2256 
Q 2891 2428 2841 2509 
Q 2775 2619 2662 2680 
Q 2550 2741 2406 2741 
Q 2056 2741 1856 2470 
Q 1656 2200 1656 1722 
L 1656 0 
L 538 0 
L 538 4863 
L 1656 4863 
L 1656 2988 
Q 1909 3294 2193 3439 
Q 2478 3584 2822 3584 
Q 3428 3584 3742 3212 
Q 4056 2841 4056 2131 
z
" transform="scale(0.015625)"/>
      <path id="DejaVuSans-Bold-2d" d="M 347 2297 
L 2309 2297 
L 2309 1388 
L 347 1388 
L 347 2297 
z
" transform="scale(0.015625)"/>
      <path id="DejaVuSans-Bold-49" d="M 588 4666 
L 1791 4666 
L 1791 0 
L 588 0 
L 588 4666 
z
" transform="scale(0.015625)"/>
      <path id="DejaVuSans-Bold-6d" d="M 3781 2919 
Q 3994 3244 4286 3414 
Q 4578 3584 4928 3584 
Q 5531 3584 5847 3212 
Q 6163 2841 6163 2131 
L 6163 0 
L 5038 0 
L 5038 1825 
Q 5041 1866 5042 1909 
Q 5044 1953 5044 2034 
Q 5044 2406 4934 2573 
Q 4825 2741 4581 2741 
Q 4263 2741 4089 2478 
Q 3916 2216 3909 1719 
L 3909 0 
L 2784 0 
L 2784 1825 
Q 2784 2406 2684 2573 
Q 2584 2741 2328 2741 
Q 2006 2741 1831 2477 
Q 1656 2213 1656 1722 
L 1656 0 
L 531 0 
L 531 3500 
L 1656 3500 
L 1656 2988 
Q 1863 3284 2130 3434 
Q 2397 3584 2719 3584 
Q 3081 3584 3359 3409 
Q 3638 3234 3781 2919 
z
" transform="scale(0.015625)"/>
      <path id="DejaVuSans-Bold-70" d="M 1656 506 
L 1656 -1331 
L 538 -1331 
L 538 3500 
L 1656 3500 
L 1656 2988 
Q 1888 3294 2169 3439 
Q 2450 3584 2816 3584 
Q 3463 3584 3878 3070 
Q 4294 2556 4294 1747 
Q 4294 938 3878 423 
Q 3463 -91 2816 -91 
Q 2450 -91 2169 54 
Q 1888 200 1656 506 
z
M 2400 2772 
Q 2041 2772 1848 2508 
Q 1656 2244 1656 1747 
Q 1656 1250 1848 986 
Q 2041 722 2400 722 
Q 2759 722 2948 984 
Q 3138 1247 3138 1747 
Q 3138 2247 2948 2509 
Q 2759 2772 2400 2772 
z
" transform="scale(0.015625)"/>
      <path id="DejaVuSans-Bold-6f" d="M 2203 2784 
Q 1831 2784 1636 2517 
Q 1441 2250 1441 1747 
Q 1441 1244 1636 976 
Q 1831 709 2203 709 
Q 2569 709 2762 976 
Q 2956 1244 2956 1747 
Q 2956 2250 2762 2517 
Q 2569 2784 2203 2784 
z
M 2203 3584 
Q 3106 3584 3614 3096 
Q 4122 2609 4122 1747 
Q 4122 884 3614 396 
Q 3106 -91 2203 -91 
Q 1297 -91 786 396 
Q 275 884 275 1747 
Q 275 2609 786 3096 
Q 1297 3584 2203 3584 
z
" transform="scale(0.015625)"/>
      <path id="DejaVuSans-Bold-72" d="M 3138 2547 
Q 2991 2616 2845 2648 
Q 2700 2681 2553 2681 
Q 2122 2681 1889 2404 
Q 1656 2128 1656 1613 
L 1656 0 
L 538 0 
L 538 3500 
L 1656 3500 
L 1656 2925 
Q 1872 3269 2151 3426 
Q 2431 3584 2822 3584 
Q 2878 3584 2943 3579 
Q 3009 3575 3134 3559 
L 3138 2547 
z
" transform="scale(0.015625)"/>
      <path id="DejaVuSans-Bold-74" d="M 1759 4494 
L 1759 3500 
L 2913 3500 
L 2913 2700 
L 1759 2700 
L 1759 1216 
Q 1759 972 1856 886 
Q 1953 800 2241 800 
L 2816 800 
L 2816 0 
L 1856 0 
Q 1194 0 917 276 
Q 641 553 641 1216 
L 641 2700 
L 84 2700 
L 84 3500 
L 641 3500 
L 641 4494 
L 1759 4494 
z
" transform="scale(0.015625)"/>
      <path id="DejaVuSans-Bold-61" d="M 2106 1575 
Q 1756 1575 1579 1456 
Q 1403 1338 1403 1106 
Q 1403 894 1545 773 
Q 1688 653 1941 653 
Q 2256 653 2472 879 
Q 2688 1106 2688 1447 
L 2688 1575 
L 2106 1575 
z
M 3816 1997 
L 3816 0 
L 2688 0 
L 2688 519 
Q 2463 200 2181 54 
Q 1900 -91 1497 -91 
Q 953 -91 614 226 
Q 275 544 275 1050 
Q 275 1666 698 1953 
Q 1122 2241 2028 2241 
L 2688 2241 
L 2688 2328 
Q 2688 2594 2478 2717 
Q 2269 2841 1825 2841 
Q 1466 2841 1156 2769 
Q 847 2697 581 2553 
L 581 3406 
Q 941 3494 1303 3539 
Q 1666 3584 2028 3584 
Q 2975 3584 3395 3211 
Q 3816 2838 3816 1997 
z
" transform="scale(0.015625)"/>
      <path id="DejaVuSans-Bold-6e" d="M 4056 2131 
L 4056 0 
L 2931 0 
L 2931 347 
L 2931 1631 
Q 2931 2084 2911 2256 
Q 2891 2428 2841 2509 
Q 2775 2619 2662 2680 
Q 2550 2741 2406 2741 
Q 2056 2741 1856 2470 
Q 1656 2200 1656 1722 
L 1656 0 
L 538 0 
L 538 3500 
L 1656 3500 
L 1656 2988 
Q 1909 3294 2193 3439 
Q 2478 3584 2822 3584 
Q 3428 3584 3742 3212 
Q 4056 2841 4056 2131 
z
" transform="scale(0.015625)"/>
      <path id="DejaVuSans-Bold-63" d="M 3366 3391 
L 3366 2478 
Q 3138 2634 2908 2709 
Q 2678 2784 2431 2784 
Q 1963 2784 1702 2511 
Q 1441 2238 1441 1747 
Q 1441 1256 1702 982 
Q 1963 709 2431 709 
Q 2694 709 2930 787 
Q 3166 866 3366 1019 
L 3366 103 
Q 3103 6 2833 -42 
Q 2563 -91 2291 -91 
Q 1344 -91 809 395 
Q 275 881 275 1747 
Q 275 2613 809 3098 
Q 1344 3584 2291 3584 
Q 2566 3584 2833 3536 
Q 3100 3488 3366 3391 
z
" transform="scale(0.015625)"/>
      <path id="DejaVuSans-Bold-65" d="M 4031 1759 
L 4031 1441 
L 1416 1441 
Q 1456 1047 1700 850 
Q 1944 653 2381 653 
Q 2734 653 3104 758 
Q 3475 863 3866 1075 
L 3866 213 
Q 3469 63 3072 -14 
Q 2675 -91 2278 -91 
Q 1328 -91 801 392 
Q 275 875 275 1747 
Q 275 2603 792 3093 
Q 1309 3584 2216 3584 
Q 3041 3584 3536 3087 
Q 4031 2591 4031 1759 
z
M 2881 2131 
Q 2881 2450 2695 2645 
Q 2509 2841 2209 2841 
Q 1884 2841 1681 2658 
Q 1478 2475 1428 2131 
L 2881 2131 
z
" transform="scale(0.015625)"/>
      <path id="DejaVuSans-Bold-2c" d="M 653 1209 
L 1778 1209 
L 1778 256 
L 1006 -909 
L 341 -909 
L 653 256 
L 653 1209 
z
" transform="scale(0.015625)"/>
      <path id="DejaVuSans-Bold-20" transform="scale(0.015625)"/>
      <path id="DejaVuSans-Bold-4c" d="M 588 4666 
L 1791 4666 
L 1791 909 
L 3903 909 
L 3903 0 
L 588 0 
L 588 4666 
z
" transform="scale(0.015625)"/>
      <path id="DejaVuSans-Bold-77" d="M 225 3500 
L 1313 3500 
L 1900 1088 
L 2491 3500 
L 3425 3500 
L 4013 1113 
L 4603 3500 
L 5691 3500 
L 4769 0 
L 3547 0 
L 2956 2406 
L 2369 0 
L 1147 0 
L 225 3500 
z
" transform="scale(0.015625)"/>
      <path id="DejaVuSans-Bold-43" d="M 4288 256 
Q 3956 84 3597 -3 
Q 3238 -91 2847 -91 
Q 1681 -91 1000 561 
Q 319 1213 319 2328 
Q 319 3447 1000 4098 
Q 1681 4750 2847 4750 
Q 3238 4750 3597 4662 
Q 3956 4575 4288 4403 
L 4288 3438 
Q 3953 3666 3628 3772 
Q 3303 3878 2944 3878 
Q 2300 3878 1931 3465 
Q 1563 3053 1563 2328 
Q 1563 1606 1931 1193 
Q 2300 781 2944 781 
Q 3303 781 3628 887 
Q 3953 994 4288 1222 
L 4288 256 
z
" transform="scale(0.015625)"/>
      <path id="DejaVuSans-Bold-76" d="M 97 3500 
L 1216 3500 
L 2088 1081 
L 2956 3500 
L 4078 3500 
L 2700 0 
L 1472 0 
L 97 3500 
z
" transform="scale(0.015625)"/>
      <path id="DejaVuSans-Bold-54" d="M 31 4666 
L 4331 4666 
L 4331 3756 
L 2784 3756 
L 2784 0 
L 1581 0 
L 1581 3756 
L 31 3756 
L 31 4666 
z
" transform="scale(0.015625)"/>
      <path id="DejaVuSans-Bold-73" d="M 3272 3391 
L 3272 2541 
Q 2913 2691 2578 2766 
Q 2244 2841 1947 2841 
Q 1628 2841 1473 2761 
Q 1319 2681 1319 2516 
Q 1319 2381 1436 2309 
Q 1553 2238 1856 2203 
L 2053 2175 
Q 2913 2066 3209 1816 
Q 3506 1566 3506 1031 
Q 3506 472 3093 190 
Q 2681 -91 1863 -91 
Q 1516 -91 1145 -36 
Q 775 19 384 128 
L 384 978 
Q 719 816 1070 734 
Q 1422 653 1784 653 
Q 2113 653 2278 743 
Q 2444 834 2444 1013 
Q 2444 1163 2330 1236 
Q 2216 1309 1875 1350 
L 1678 1375 
Q 931 1469 631 1722 
Q 331 1975 331 2491 
Q 331 3047 712 3315 
Q 1094 3584 1881 3584 
Q 2191 3584 2531 3537 
Q 2872 3491 3272 3391 
z
" transform="scale(0.015625)"/>
      <path id="DejaVuSans-Bold-41" d="M 3419 850 
L 1538 850 
L 1241 0 
L 31 0 
L 1759 4666 
L 3194 4666 
L 4922 0 
L 3713 0 
L 3419 850 
z
M 1838 1716 
L 3116 1716 
L 2478 3572 
L 1838 1716 
z
" transform="scale(0.015625)"/>
      <path id="DejaVuSans-Bold-42" d="M 2456 2859 
Q 2741 2859 2887 2984 
Q 3034 3109 3034 3353 
Q 3034 3594 2887 3720 
Q 2741 3847 2456 3847 
L 1791 3847 
L 1791 2859 
L 2456 2859 
z
M 2497 819 
Q 2859 819 3042 972 
Q 3225 1125 3225 1434 
Q 3225 1738 3044 1889 
Q 2863 2041 2497 2041 
L 1791 2041 
L 1791 819 
L 2497 819 
z
M 3616 2497 
Q 4003 2384 4215 2081 
Q 4428 1778 4428 1338 
Q 4428 663 3972 331 
Q 3516 0 2584 0 
L 588 0 
L 588 4666 
L 2394 4666 
Q 3366 4666 3802 4372 
Q 4238 4078 4238 3431 
Q 4238 3091 4078 2852 
Q 3919 2613 3616 2497 
z
" transform="scale(0.015625)"/>
      <path id="DejaVuSans-Bold-51" d="M 2847 -84 
L 2753 -84 
Q 1600 -84 959 553 
Q 319 1191 319 2328 
Q 319 3463 958 4106 
Q 1597 4750 2719 4750 
Q 3853 4750 4486 4112 
Q 5119 3475 5119 2328 
Q 5119 1541 4783 972 
Q 4447 403 3816 116 
L 4756 -934 
L 3609 -934 
L 2847 -84 
z
M 2719 3878 
Q 2169 3878 1866 3472 
Q 1563 3066 1563 2328 
Q 1563 1578 1859 1179 
Q 2156 781 2719 781 
Q 3272 781 3575 1187 
Q 3878 1594 3878 2328 
Q 3878 3066 3575 3472 
Q 3272 3878 2719 3878 
z
" transform="scale(0.015625)"/>
      <path id="DejaVuSans-Bold-75" d="M 500 1363 
L 500 3500 
L 1625 3500 
L 1625 3150 
Q 1625 2866 1622 2436 
Q 1619 2006 1619 1863 
Q 1619 1441 1641 1255 
Q 1663 1069 1716 984 
Q 1784 875 1895 815 
Q 2006 756 2150 756 
Q 2500 756 2700 1025 
Q 2900 1294 2900 1772 
L 2900 3500 
L 4019 3500 
L 4019 0 
L 2900 0 
L 2900 506 
Q 2647 200 2364 54 
Q 2081 -91 1741 -91 
Q 1134 -91 817 281 
Q 500 653 500 1363 
z
" transform="scale(0.015625)"/>
     </defs>
     <use xlink:href="#DejaVuSans-Bold-48"/>
     <use xlink:href="#DejaVuSans-Bold-69" x="83.691406"/>
     <use xlink:href="#DejaVuSans-Bold-67" x="117.96875"/>
     <use xlink:href="#DejaVuSans-Bold-68" x="189.550781"/>
     <use xlink:href="#DejaVuSans-Bold-2d" x="260.742188"/>
     <use xlink:href="#DejaVuSans-Bold-49" x="302.246094"/>
     <use xlink:href="#DejaVuSans-Bold-6d" x="339.453125"/>
     <use xlink:href="#DejaVuSans-Bold-70" x="443.652344"/>
     <use xlink:href="#DejaVuSans-Bold-6f" x="515.234375"/>
     <use xlink:href="#DejaVuSans-Bold-72" x="583.935547"/>
     <use xlink:href="#DejaVuSans-Bold-74" x="633.251953"/>
     <use xlink:href="#DejaVuSans-Bold-61" x="681.054688"/>
     <use xlink:href="#DejaVuSans-Bold-6e" x="748.535156"/>
     <use xlink:href="#DejaVuSans-Bold-63" x="819.726562"/>
     <use xlink:href="#DejaVuSans-Bold-65" x="879.003906"/>
     <use xlink:href="#DejaVuSans-Bold-2c" x="946.826172"/>
     <use xlink:href="#DejaVuSans-Bold-20" x="984.814453"/>
     <use xlink:href="#DejaVuSans-Bold-4c" x="1019.628906"/>
     <use xlink:href="#DejaVuSans-Bold-6f" x="1083.349609"/>
     <use xlink:href="#DejaVuSans-Bold-77" x="1152.050781"/>
     <use xlink:href="#DejaVuSans-Bold-2d" x="1244.433594"/>
     <use xlink:href="#DejaVuSans-Bold-43" x="1285.9375"/>
     <use xlink:href="#DejaVuSans-Bold-6f" x="1359.326172"/>
     <use xlink:href="#DejaVuSans-Bold-76" x="1428.027344"/>
     <use xlink:href="#DejaVuSans-Bold-65" x="1493.212891"/>
     <use xlink:href="#DejaVuSans-Bold-72" x="1561.035156"/>
     <use xlink:href="#DejaVuSans-Bold-61" x="1610.351562"/>
     <use xlink:href="#DejaVuSans-Bold-67" x="1677.832031"/>
     <use xlink:href="#DejaVuSans-Bold-65" x="1749.414062"/>
     <use xlink:href="#DejaVuSans-Bold-20" x="1817.236328"/>
     <use xlink:href="#DejaVuSans-Bold-54" x="1852.050781"/>
     <use xlink:href="#DejaVuSans-Bold-6f" x="1907.013672"/>
     <use xlink:href="#DejaVuSans-Bold-70" x="1975.714844"/>
     <use xlink:href="#DejaVuSans-Bold-69" x="2047.296875"/>
     <use xlink:href="#DejaVuSans-Bold-63" x="2081.574219"/>
     <use xlink:href="#DejaVuSans-Bold-73" x="2140.851562"/>
     <use xlink:href="#DejaVuSans-Bold-20" x="2200.373047"/>
     <use xlink:href="#DejaVuSans-Bold-41" x="2235.1875"/>
     <use xlink:href="#DejaVuSans-Bold-72" x="2312.580078"/>
     <use xlink:href="#DejaVuSans-Bold-65" x="2361.896484"/>
     <use xlink:href="#DejaVuSans-Bold-20" x="2429.71875"/>
     <use xlink:href="#DejaVuSans-Bold-74" x="2464.533203"/>
     <use xlink:href="#DejaVuSans-Bold-68" x="2512.335938"/>
     <use xlink:href="#DejaVuSans-Bold-65" x="2583.527344"/>
     <use xlink:href="#DejaVuSans-Bold-20" x="2651.349609"/>
     <use xlink:href="#DejaVuSans-Bold-42" x="2686.164062"/>
     <use xlink:href="#DejaVuSans-Bold-65" x="2762.384766"/>
     <use xlink:href="#DejaVuSans-Bold-73" x="2830.207031"/>
     <use xlink:href="#DejaVuSans-Bold-74" x="2889.728516"/>
     <use xlink:href="#DejaVuSans-Bold-20" x="2937.53125"/>
     <use xlink:href="#DejaVuSans-Bold-51" x="2972.345703"/>
     <use xlink:href="#DejaVuSans-Bold-75" x="3057.355469"/>
     <use xlink:href="#DejaVuSans-Bold-65" x="3128.546875"/>
     <use xlink:href="#DejaVuSans-Bold-73" x="3196.369141"/>
     <use xlink:href="#DejaVuSans-Bold-74" x="3255.890625"/>
     <use xlink:href="#DejaVuSans-Bold-69" x="3303.693359"/>
     <use xlink:href="#DejaVuSans-Bold-6f" x="3337.970703"/>
     <use xlink:href="#DejaVuSans-Bold-6e" x="3406.671875"/>
     <use xlink:href="#DejaVuSans-Bold-20" x="3477.863281"/>
     <use xlink:href="#DejaVuSans-Bold-54" x="3512.677734"/>
     <use xlink:href="#DejaVuSans-Bold-61" x="3568.015625"/>
     <use xlink:href="#DejaVuSans-Bold-72" x="3635.496094"/>
     <use xlink:href="#DejaVuSans-Bold-67" x="3684.8125"/>
     <use xlink:href="#DejaVuSans-Bold-65" x="3756.394531"/>
     <use xlink:href="#DejaVuSans-Bold-74" x="3824.216797"/>
     <use xlink:href="#DejaVuSans-Bold-73" x="3872.019531"/>
    </g>
   </g>
  </g>
 </g>
 <defs>
  <clipPath id="p6557aebffa">
   <rect x="51.0725" y="23.837812" width="558" height="388.08"/>
  </clipPath>
 </defs>
</svg>
